%TF.GenerationSoftware,KiCad,Pcbnew,8.0.9*%
%TF.CreationDate,2025-04-23T01:05:39+02:00*%
%TF.ProjectId,12v-actuators-pcb,3132762d-6163-4747-9561-746f72732d70,rev?*%
%TF.SameCoordinates,Original*%
%TF.FileFunction,Soldermask,Bot*%
%TF.FilePolarity,Negative*%
%FSLAX46Y46*%
G04 Gerber Fmt 4.6, Leading zero omitted, Abs format (unit mm)*
G04 Created by KiCad (PCBNEW 8.0.9) date 2025-04-23 01:05:39*
%MOMM*%
%LPD*%
G01*
G04 APERTURE LIST*
G04 Aperture macros list*
%AMRoundRect*
0 Rectangle with rounded corners*
0 $1 Rounding radius*
0 $2 $3 $4 $5 $6 $7 $8 $9 X,Y pos of 4 corners*
0 Add a 4 corners polygon primitive as box body*
4,1,4,$2,$3,$4,$5,$6,$7,$8,$9,$2,$3,0*
0 Add four circle primitives for the rounded corners*
1,1,$1+$1,$2,$3*
1,1,$1+$1,$4,$5*
1,1,$1+$1,$6,$7*
1,1,$1+$1,$8,$9*
0 Add four rect primitives between the rounded corners*
20,1,$1+$1,$2,$3,$4,$5,0*
20,1,$1+$1,$4,$5,$6,$7,0*
20,1,$1+$1,$6,$7,$8,$9,0*
20,1,$1+$1,$8,$9,$2,$3,0*%
%AMFreePoly0*
4,1,55,0.520945,2.954423,0.860410,2.873969,1.188239,2.754648,1.500000,2.598076,1.791476,2.406370,2.058725,2.182121,2.298133,1.928363,2.506463,1.648527,2.680898,1.346398,2.819078,1.026060,2.919135,0.691848,2.979715,0.348279,3.000000,0.000000,2.979715,-0.348279,2.919135,-0.691848,2.819078,-1.026060,2.680898,-1.346398,2.506463,-1.648527,2.298133,-1.928363,2.058725,-2.182121,
1.791476,-2.406370,1.500000,-2.598076,1.188239,-2.754648,0.860410,-2.873969,0.520945,-2.954423,0.174434,-2.994924,-0.174434,-2.994924,-0.520945,-2.954423,-0.860410,-2.873969,-1.188239,-2.754648,-1.500000,-2.598076,-1.791476,-2.406370,-2.058725,-2.182121,-2.298133,-1.928363,-2.506463,-1.648527,-2.680898,-1.346398,-2.819078,-1.026060,-2.919135,-0.691848,-2.979715,-0.348279,-3.000000,0.000000,
-2.979715,0.348279,-2.919135,0.691848,-2.819078,1.026060,-2.680898,1.346398,-2.506463,1.648527,-2.298133,1.928363,-2.058725,2.182121,-1.791476,2.406370,-1.500000,2.598076,-1.188239,2.754648,-0.860410,2.873969,-0.520945,2.954423,-0.174434,2.994924,0.174434,2.994924,0.520945,2.954423,0.520945,2.954423,$1*%
G04 Aperture macros list end*
%ADD10C,0.200000*%
%ADD11RoundRect,0.440000X-0.660000X1.060000X-0.660000X-1.060000X0.660000X-1.060000X0.660000X1.060000X0*%
%ADD12O,2.200000X3.000000*%
%ADD13RoundRect,0.650000X1.100000X-0.650000X1.100000X0.650000X-1.100000X0.650000X-1.100000X-0.650000X0*%
%ADD14C,6.400000*%
%ADD15RoundRect,0.440000X0.660000X-1.060000X0.660000X1.060000X-0.660000X1.060000X-0.660000X-1.060000X0*%
%ADD16R,1.700000X1.700000*%
%ADD17O,1.700000X1.700000*%
%ADD18R,1.600000X1.600000*%
%ADD19C,1.600000*%
%ADD20C,0.900000*%
%ADD21FreePoly0,180.000000*%
%ADD22RoundRect,0.180000X-0.420000X0.420000X-0.420000X-0.420000X0.420000X-0.420000X0.420000X0.420000X0*%
%ADD23C,1.200000*%
%ADD24RoundRect,0.680000X-0.170000X0.170000X-0.170000X-0.170000X0.170000X-0.170000X0.170000X0.170000X0*%
%ADD25RoundRect,0.680000X-0.170000X-0.170000X0.170000X-0.170000X0.170000X0.170000X-0.170000X0.170000X0*%
%ADD26RoundRect,0.180000X-0.420000X-0.420000X0.420000X-0.420000X0.420000X0.420000X-0.420000X0.420000X0*%
%ADD27R,1.200000X1.200000*%
%ADD28R,1.500000X1.600000*%
%ADD29R,1.600000X1.500000*%
%ADD30RoundRect,0.135000X0.185000X-0.135000X0.185000X0.135000X-0.185000X0.135000X-0.185000X-0.135000X0*%
%ADD31R,0.150000X0.250000*%
G04 APERTURE END LIST*
D10*
%TO.C,JP91*%
X105095595Y-67003544D02*
X105095595Y-68023544D01*
%TD*%
D11*
%TO.C,J22*%
X145775000Y-80975000D03*
D12*
X143235000Y-80975000D03*
%TD*%
D13*
%TO.C,J6*%
X174500000Y-99250000D03*
X174500000Y-95750000D03*
%TD*%
D14*
%TO.C,H4*%
X114017200Y-131124800D03*
%TD*%
D13*
%TO.C,J10*%
X174500000Y-108874800D03*
X174500000Y-105374800D03*
%TD*%
D11*
%TO.C,J19*%
X177275000Y-80975000D03*
D12*
X174735000Y-80975000D03*
%TD*%
D15*
%TO.C,J28*%
X121250000Y-80975000D03*
D12*
X123790000Y-80975000D03*
%TD*%
D16*
%TO.C,J31*%
X148575000Y-124300000D03*
D17*
X146035000Y-124300000D03*
%TD*%
D11*
%TO.C,J24*%
X156750000Y-66025000D03*
D12*
X154210000Y-66025000D03*
%TD*%
D16*
%TO.C,J7*%
X146017200Y-115599800D03*
D17*
X146017200Y-118139800D03*
X146017200Y-120679800D03*
%TD*%
D16*
%TO.C,J12*%
X160017200Y-99649800D03*
D17*
X160017200Y-97109800D03*
X160017200Y-94569800D03*
%TD*%
D11*
%TO.C,J23*%
X156275000Y-80975000D03*
D12*
X153735000Y-80975000D03*
%TD*%
D18*
%TO.C,C11*%
X167975000Y-108025000D03*
D19*
X165975000Y-108025000D03*
%TD*%
D14*
%TO.C,H1*%
X176017200Y-131124800D03*
%TD*%
D11*
%TO.C,J20*%
X166775000Y-80975000D03*
D12*
X164235000Y-80975000D03*
%TD*%
D19*
%TO.C,C17*%
X154767200Y-111124800D03*
X151267200Y-111124800D03*
%TD*%
D11*
%TO.C,J26*%
X135750000Y-66025000D03*
D12*
X133210000Y-66025000D03*
%TD*%
D16*
%TO.C,TH1*%
X153017200Y-102124800D03*
D17*
X153017200Y-104664800D03*
%TD*%
D13*
%TO.C,J2*%
X174500000Y-124874800D03*
X174500000Y-121374800D03*
%TD*%
D19*
%TO.C,C18*%
X120237200Y-95514800D03*
X120237200Y-99014800D03*
%TD*%
D20*
%TO.C,J5*%
X116737200Y-105314800D03*
X116737200Y-109714800D03*
%TD*%
D11*
%TO.C,J21*%
X135275000Y-80975000D03*
D12*
X132735000Y-80975000D03*
%TD*%
D16*
%TO.C,J13*%
X170017200Y-90124800D03*
D17*
X170017200Y-87584800D03*
%TD*%
D14*
%TO.C,H3*%
X114017200Y-89124800D03*
%TD*%
D11*
%TO.C,J25*%
X125250000Y-66025000D03*
D12*
X122710000Y-66025000D03*
%TD*%
D14*
%TO.C,H2*%
X176017200Y-89124800D03*
%TD*%
D18*
%TO.C,C6*%
X167975000Y-101025000D03*
D19*
X165975000Y-101025000D03*
%TD*%
D21*
%TO.C,U3*%
X121737200Y-116664800D03*
X121737200Y-129664800D03*
%TD*%
D11*
%TO.C,J27*%
X146250000Y-66025000D03*
D12*
X143710000Y-66025000D03*
%TD*%
D16*
%TO.C,J9*%
X160017200Y-108649800D03*
D17*
X160017200Y-106109800D03*
X160017200Y-103569800D03*
%TD*%
D15*
%TO.C,J29*%
X110750000Y-80975000D03*
D12*
X113290000Y-80975000D03*
%TD*%
D15*
%TO.C,J30*%
X100250000Y-80975000D03*
D12*
X102790000Y-80975000D03*
%TD*%
D22*
%TO.C,U72*%
X113980000Y-56286000D03*
D23*
X116520000Y-56286000D03*
X116520000Y-64414000D03*
X113980000Y-64414000D03*
%TD*%
D19*
%TO.C,C91*%
X103850000Y-104800000D03*
X101350000Y-104800000D03*
%TD*%
D16*
%TO.C,J74*%
X103480000Y-56300000D03*
D17*
X106020000Y-56300000D03*
%TD*%
D16*
%TO.C,J94*%
X98300000Y-99520000D03*
D17*
X98300000Y-96980000D03*
%TD*%
D24*
%TO.C,J72*%
X98400000Y-64650000D03*
D17*
X100940000Y-64650000D03*
%TD*%
D25*
%TO.C,J81*%
X98350000Y-127600000D03*
D17*
X98350000Y-125060000D03*
%TD*%
D19*
%TO.C,C71*%
X98200000Y-61850000D03*
X98200000Y-59350000D03*
%TD*%
D26*
%TO.C,U92*%
X98286000Y-89020000D03*
D23*
X98286000Y-86480000D03*
X106414000Y-86480000D03*
X106414000Y-89020000D03*
%TD*%
D16*
%TO.C,J83*%
X106650000Y-114900000D03*
D17*
X106650000Y-117440000D03*
%TD*%
D16*
%TO.C,J73*%
X111100000Y-64650000D03*
D17*
X108560000Y-64650000D03*
%TD*%
D16*
%TO.C,J95*%
X106650000Y-99520000D03*
D17*
X106650000Y-96980000D03*
%TD*%
D27*
%TO.C,R93*%
X103800000Y-91250000D03*
D28*
X100550000Y-92250000D03*
D27*
X103800000Y-93250000D03*
%TD*%
D16*
%TO.C,J85*%
X106650000Y-122520000D03*
D17*
X106650000Y-119980000D03*
%TD*%
D16*
%TO.C,J93*%
X106650000Y-91900000D03*
D17*
X106650000Y-94440000D03*
%TD*%
D25*
%TO.C,J92*%
X106650000Y-104600000D03*
D17*
X106650000Y-102060000D03*
%TD*%
D16*
%TO.C,J75*%
X103480000Y-64650000D03*
D17*
X106020000Y-64650000D03*
%TD*%
D19*
%TO.C,C81*%
X103850000Y-127800000D03*
X101350000Y-127800000D03*
%TD*%
D27*
%TO.C,R73*%
X111750000Y-61800000D03*
D29*
X110750000Y-58550000D03*
D27*
X109750000Y-61800000D03*
%TD*%
D25*
%TO.C,J91*%
X98350000Y-104600000D03*
D17*
X98350000Y-102060000D03*
%TD*%
D27*
%TO.C,R83*%
X103800000Y-114250000D03*
D28*
X100550000Y-115250000D03*
D27*
X103800000Y-116250000D03*
%TD*%
D26*
%TO.C,U82*%
X98286000Y-112020000D03*
D23*
X98286000Y-109480000D03*
X106414000Y-109480000D03*
X106414000Y-112020000D03*
%TD*%
D16*
%TO.C,J84*%
X98300000Y-122520000D03*
D17*
X98300000Y-119980000D03*
%TD*%
D25*
%TO.C,J82*%
X106650000Y-127600000D03*
D17*
X106650000Y-125060000D03*
%TD*%
D24*
%TO.C,J71*%
X98400000Y-56350000D03*
D17*
X100940000Y-56350000D03*
%TD*%
D30*
%TO.C,JP91*%
X105095595Y-68023544D03*
D31*
X105095595Y-67638544D03*
X105095595Y-67388544D03*
D30*
X105095595Y-67003544D03*
%TD*%
M02*
