%TF.GenerationSoftware,KiCad,Pcbnew,8.0.9*%
%TF.CreationDate,2025-04-23T01:05:39+02:00*%
%TF.ProjectId,12v-actuators-pcb,3132762d-6163-4747-9561-746f72732d70,rev?*%
%TF.SameCoordinates,Original*%
%TF.FileFunction,Profile,NP*%
%FSLAX46Y46*%
G04 Gerber Fmt 4.6, Leading zero omitted, Abs format (unit mm)*
G04 Created by KiCad (PCBNEW 8.0.9) date 2025-04-23 01:05:39*
%MOMM*%
%LPD*%
G01*
G04 APERTURE LIST*
%TA.AperFunction,Profile*%
%ADD10C,0.100000*%
%TD*%
G04 APERTURE END LIST*
D10*
X98000000Y-106000010D02*
X99000000Y-106000000D01*
X100000000Y-85000000D02*
X98000000Y-85000000D01*
X97000000Y-109000000D02*
G75*
G02*
X98000000Y-108000000I1000000J0D01*
G01*
X180000000Y-72000000D02*
X180000000Y-81000000D01*
X142000000Y-85000000D02*
X147000000Y-85000000D01*
X130000000Y-73000000D02*
G75*
G02*
X127000000Y-73000000I-1500000J0D01*
G01*
X108000000Y-105000010D02*
G75*
G02*
X107000000Y-106000000I-1000000J10D01*
G01*
X110000000Y-95500000D02*
X110000015Y-89007344D01*
X117500000Y-83000000D02*
X103000000Y-83000000D01*
X108000000Y-122500000D02*
G75*
G02*
X110000000Y-122500000I1000000J0D01*
G01*
X107000000Y-106000010D02*
X102000000Y-106000000D01*
X122000000Y-55000000D02*
X158000000Y-55000000D01*
X126221595Y-85000000D02*
G75*
G02*
X125821591Y-83200729I5J944100D01*
G01*
X107250000Y-66000000D02*
X117000000Y-66000000D01*
X108000000Y-117500000D02*
X108000000Y-109000000D01*
X133750000Y-83000000D02*
G75*
G02*
X133750000Y-85000000I0J-1000000D01*
G01*
X174000000Y-83000000D02*
X178000000Y-83000000D01*
X108000000Y-103500000D02*
G75*
G02*
X110000000Y-103500000I1000000J0D01*
G01*
X100000000Y-83000000D02*
G75*
G02*
X100000000Y-85000000I0J-1000000D01*
G01*
X155500000Y-83000000D02*
X170000000Y-83000000D01*
X122000000Y-68000000D02*
G75*
G02*
X122000000Y-70000000I0J-1000000D01*
G01*
X107000000Y-85000000D02*
G75*
G02*
X108000000Y-86000000I0J-1000000D01*
G01*
X97000000Y-81000000D02*
X97000000Y-72000000D01*
X155500000Y-85000000D02*
X170000000Y-85000000D01*
X142000000Y-83000000D02*
X147000000Y-83000000D01*
X117000000Y-55000000D02*
G75*
G02*
X118000000Y-56000000I0J-1000000D01*
G01*
X147000000Y-83000000D02*
G75*
G02*
X147000000Y-85000000I0J-1000000D01*
G01*
X178000000Y-70000000D02*
G75*
G02*
X180000000Y-72000000I0J-2000000D01*
G01*
X102749999Y-68999999D02*
G75*
G02*
X101749999Y-69999999I-999999J-1D01*
G01*
X118000000Y-65000000D02*
X118000000Y-61000000D01*
X108000000Y-128000010D02*
X108000000Y-122500000D01*
X120000000Y-58000000D02*
X120000000Y-57000000D01*
X130000000Y-72000000D02*
X130000000Y-73000000D01*
X99000000Y-83000000D02*
G75*
G02*
X97000000Y-81000000I0J2000000D01*
G01*
X120000000Y-58000000D02*
G75*
G02*
X118000000Y-58000000I-1000000J0D01*
G01*
X142000000Y-70000000D02*
X154500000Y-70000000D01*
X155500000Y-85000000D02*
G75*
G02*
X155500000Y-83000000I0J1000000D01*
G01*
X101749999Y-69999999D02*
X99000000Y-70000000D01*
X101750000Y-66000000D02*
X97999990Y-66000000D01*
X114000000Y-85000000D02*
X117500000Y-85000000D01*
X170000000Y-83000000D02*
G75*
G02*
X170000000Y-85000000I0J-1000000D01*
G01*
X114007344Y-134999985D02*
G75*
G02*
X109999922Y-131000000I-44J4007385D01*
G01*
X118000000Y-65000000D02*
G75*
G02*
X117000000Y-66000000I-1000000J0D01*
G01*
X108000000Y-95500000D02*
X108000000Y-86000000D01*
X174000000Y-85000000D02*
G75*
G02*
X174000000Y-83000000I0J1000000D01*
G01*
X110000000Y-117500000D02*
X110000000Y-103500000D01*
X107249999Y-69999999D02*
G75*
G02*
X106250001Y-68999999I1J999999D01*
G01*
X180000000Y-81000000D02*
G75*
G02*
X178000000Y-83000000I-2000000J0D01*
G01*
X98000000Y-129000010D02*
X107000000Y-129000010D01*
X103000000Y-85000000D02*
G75*
G02*
X103000000Y-83000000I0J1000000D01*
G01*
X125000000Y-70000000D02*
G75*
G02*
X125000000Y-68000000I0J1000000D01*
G01*
X98000000Y-106000010D02*
G75*
G02*
X96999990Y-105000010I0J1000010D01*
G01*
X101750000Y-66000000D02*
G75*
G02*
X102750000Y-67000000I0J-1000000D01*
G01*
X108000000Y-105000010D02*
X108000000Y-103500000D01*
X179999999Y-131000000D02*
G75*
G02*
X176000014Y-135007392I-4007399J0D01*
G01*
X110000000Y-131000000D02*
X110000000Y-122500000D01*
X107249999Y-69999999D02*
X122000000Y-70000000D01*
X102749999Y-68999999D02*
X102750000Y-67000000D01*
X125000000Y-68000000D02*
X136500000Y-68000000D01*
X108000000Y-128000010D02*
G75*
G02*
X107000000Y-129000000I-1000000J10D01*
G01*
X102000000Y-108000000D02*
G75*
G02*
X102000000Y-106000000I0J1000000D01*
G01*
X106250000Y-67000000D02*
G75*
G02*
X107250000Y-66000000I1000000J0D01*
G01*
X97999990Y-66000000D02*
G75*
G02*
X97000000Y-65000000I10J1000000D01*
G01*
X110000000Y-95500000D02*
G75*
G02*
X108000000Y-95500000I-1000000J0D01*
G01*
X126221595Y-85000000D02*
X133750000Y-85000000D01*
X176000014Y-135007344D02*
X114007344Y-134999985D01*
X97000000Y-72000000D02*
G75*
G02*
X99000000Y-70000000I2000000J0D01*
G01*
X99000000Y-108000000D02*
X98000000Y-108000000D01*
X130000000Y-72000000D02*
G75*
G02*
X132000000Y-70000000I2000000J0D01*
G01*
X132000000Y-83000000D02*
G75*
G02*
X130000000Y-81000000I0J2000000D01*
G01*
X98000000Y-129000010D02*
G75*
G02*
X96999990Y-128000010I0J1000010D01*
G01*
X120000000Y-57000000D02*
G75*
G02*
X122000000Y-55000000I2000000J0D01*
G01*
X107000000Y-108000000D02*
X102000000Y-108000000D01*
X100000000Y-83000000D02*
X99000000Y-83000000D01*
X120000000Y-66000000D02*
X120000000Y-61000000D01*
X154500000Y-68000000D02*
G75*
G02*
X154500000Y-70000000I0J-1000000D01*
G01*
X110000000Y-117500000D02*
G75*
G02*
X108000000Y-117500000I-1000000J0D01*
G01*
X158000000Y-70000000D02*
G75*
G02*
X158000000Y-68000000I0J1000000D01*
G01*
X122000000Y-68000000D02*
G75*
G02*
X120000000Y-66000000I0J2000000D01*
G01*
X96999990Y-56000000D02*
G75*
G02*
X97999990Y-54999990I1000010J0D01*
G01*
X136500000Y-68000000D02*
G75*
G02*
X136500000Y-70000000I0J-1000000D01*
G01*
X106250000Y-67000000D02*
X106249999Y-68999999D01*
X132000000Y-70000000D02*
X136500000Y-70000000D01*
X127000000Y-77000000D02*
G75*
G02*
X130000000Y-77000000I1500000J0D01*
G01*
X110000015Y-89007344D02*
G75*
G02*
X114000000Y-84999992I4007355J4D01*
G01*
X97000000Y-86000000D02*
G75*
G02*
X98000000Y-85000000I1000000J0D01*
G01*
X130000000Y-77000000D02*
X130000000Y-81000000D01*
X118000000Y-61000000D02*
G75*
G02*
X120000000Y-61000000I1000000J0D01*
G01*
X125821595Y-83200737D02*
X126197225Y-83000000D01*
X118000000Y-58000000D02*
X118000000Y-56000000D01*
X99000000Y-106000000D02*
G75*
G02*
X99000000Y-108000000I0J-1000000D01*
G01*
X117000000Y-55000020D02*
X97999990Y-55000000D01*
X97000020Y-109000000D02*
X97000000Y-128000010D01*
X160000000Y-66000000D02*
G75*
G02*
X158000000Y-68000000I-2000000J0D01*
G01*
X142000000Y-70000000D02*
G75*
G02*
X142000000Y-68000000I0J1000000D01*
G01*
X97000020Y-86000000D02*
X97000000Y-105000010D01*
X127000000Y-77000000D02*
X127000000Y-81500000D01*
X127000000Y-81500000D02*
G75*
G02*
X126197231Y-83000009I-1802800J0D01*
G01*
X174000000Y-85000000D02*
X176000000Y-85000000D01*
X107000000Y-108000000D02*
G75*
G02*
X108000000Y-109000000I0J-1000000D01*
G01*
X107000000Y-85000000D02*
X103000000Y-85000000D01*
X127000000Y-72000000D02*
X127000000Y-73000000D01*
X158000000Y-70000000D02*
X178000000Y-70000000D01*
X180007344Y-88999985D02*
X179999999Y-131000000D01*
X96999990Y-56000000D02*
X96999990Y-65000000D01*
X125000000Y-70000000D02*
G75*
G02*
X127000000Y-72000000I0J-2000000D01*
G01*
X160000000Y-57000000D02*
X160000000Y-66000000D01*
X142000000Y-85000000D02*
G75*
G02*
X142000000Y-83000000I0J1000000D01*
G01*
X158000000Y-55000000D02*
G75*
G02*
X160000000Y-57000000I0J-2000000D01*
G01*
X133750000Y-83000000D02*
X132000000Y-83000000D01*
X142000000Y-68000000D02*
X154500000Y-68000000D01*
X176000000Y-85000000D02*
G75*
G02*
X180007393Y-88999985I0J-4007400D01*
G01*
X117500000Y-83000000D02*
G75*
G02*
X117500000Y-85000000I0J-1000000D01*
G01*
M02*
