M48
; DRILL file {KiCad 8.0.9} date 2025-04-16T19:36:46+0200
; FORMAT={-:-/ absolute / inch / decimal}
; #@! TF.CreationDate,2025-04-16T19:36:46+02:00
; #@! TF.GenerationSoftware,Kicad,Pcbnew,8.0.9
; #@! TF.FileFunction,Plated,1,2,PTH
FMAT,2
INCH
; #@! TA.AperFunction,Plated,PTH,ViaDrill
T1C0.0118
; #@! TA.AperFunction,Plated,PTH,ViaDrill
T2C0.0177
; #@! TA.AperFunction,Plated,PTH,ComponentDrill
T3C0.0315
; #@! TA.AperFunction,Plated,PTH,ComponentDrill
T4C0.0394
; #@! TA.AperFunction,Plated,PTH,ComponentDrill
T5C0.0551
; #@! TA.AperFunction,Plated,PTH,ComponentDrill
T6C0.0709
; #@! TA.AperFunction,Plated,PTH,ComponentDrill
T7C0.1024
; #@! TA.AperFunction,Plated,PTH,ComponentDrill
T8C0.1260
%
G90
G05
T1
X3.8583Y-2.8346
X3.8583Y-2.9921
X3.8583Y-3.2087
X3.9193Y-2.8346
X3.9472Y-4.4487
X3.952Y-3.548
X3.9705Y-3.7913
X3.9705Y-4.6969
X3.9843Y-2.3661
X4.0157Y-2.9528
X4.0197Y-3.9134
X4.0197Y-4.0079
X4.0197Y-4.8189
X4.0197Y-4.9134
X4.0266Y-3.689
X4.0266Y-4.5945
X4.0315Y-3.7205
X4.0315Y-4.626
X4.0354Y-3.4252
X4.0354Y-4.3307
X4.062Y-3.5433
X4.062Y-4.4488
X4.0787Y-2.3661
X4.0945Y-3.5551
X4.0945Y-3.8189
X4.0945Y-4.4606
X4.0945Y-4.7244
X4.0984Y-2.9055
X4.1024Y-2.8346
X4.1299Y-3.0079
X4.1339Y-2.9291
X4.1339Y-3.2283
X4.1417Y-4.7874
X4.1575Y-2.7283
X4.1732Y-2.4409
X4.1811Y-3.0512
X4.2008Y-2.3169
X4.2362Y-2.9134
X4.2717Y-2.378
X4.2717Y-3.2283
X4.2739Y-4.6886
X4.2845Y-4.7555
X4.2874Y-2.9173
X4.3032Y-2.373
X4.3819Y-5.0
X4.3858Y-2.9134
X4.3937Y-4.2677
X4.4016Y-4.1024
X4.4016Y-4.5872
X4.437Y-2.4409
X4.437Y-3.7441
X4.4488Y-2.4085
X4.4488Y-3.9528
X4.4488Y-4.7047
X4.449Y-2.2935
X4.4882Y-2.7953
X4.4882Y-3.0315
X4.5079Y-4.315
X4.5276Y-3.1496
X4.5433Y-2.9921
X4.5596Y-3.7249
X4.5669Y-4.0001
X4.5669Y-2.3819
X4.5866Y-2.9724
X4.5886Y-2.8346
X4.5906Y-3.3819
X4.626Y-3.2283
X4.626Y-3.4016
X4.626Y-3.9173
X4.6526Y-4.5118
X4.6654Y-2.9724
X4.6654Y-3.1496
X4.7264Y-2.9685
X4.7441Y-2.7953
X4.7638Y-2.2638
X4.7638Y-2.4213
X4.7638Y-2.5394
X4.7835Y-4.1339
X4.8051Y-2.8346
X4.8071Y-4.2959
X4.8323Y-4.0543
X4.8346Y-3.9843
X4.8425Y-3.0709
X4.8445Y-2.2441
X4.8819Y-4.1142
X4.8858Y-2.9724
X4.9055Y-4.437
X4.9213Y-5.2362
X4.9409Y-2.9449
X4.9567Y-3.0
X4.9606Y-3.878
X4.9646Y-2.9685
X4.9646Y-4.6417
X4.9724Y-4.1969
X4.9752Y-5.0295
X4.9803Y-2.9331
X4.9865Y-4.8285
X5.0197Y-2.2047
X5.0197Y-2.4409
X5.0197Y-4.2165
X5.0276Y-4.248
X5.0276Y-5.1811
X5.0295Y-3.7992
X5.0315Y-2.315
X5.0394Y-2.6378
X5.055Y-4.2657
X5.0591Y-3.9665
X5.061Y-4.0602
X5.0689Y-5.059
X5.0709Y-3.6693
X5.0876Y-3.374
X5.0984Y-3.7992
X5.1004Y-2.2441
X5.1164Y-4.2231
X5.128Y-3.9665
X5.1299Y-4.4724
X5.1378Y-5.0591
X5.1457Y-4.1299
X5.1575Y-2.6378
X5.1575Y-2.9724
X5.1575Y-3.1102
X5.1772Y-2.815
X5.1772Y-3.8091
X5.1811Y-3.6693
X5.1969Y-2.3425
X5.1979Y-4.3346
X5.2087Y-4.0512
X5.2126Y-4.4724
X5.2215Y-4.3592
X5.2392Y-2.8346
X5.2717Y-3.6693
X5.2717Y-4.3543
X5.2736Y-3.1004
X5.2874Y-2.315
X5.2874Y-4.9646
X5.2913Y-4.3828
X5.2953Y-2.2047
X5.2953Y-3.9173
X5.2953Y-5.0787
X5.2953Y-5.2756
X5.315Y-2.4409
X5.3157Y-4.4851
X5.3247Y-4.2127
X5.3248Y-2.9331
X5.3488Y-4.7559
X5.3634Y-4.4874
X5.374Y-2.4606
X5.374Y-2.9528
X5.4016Y-3.2411
X5.4134Y-3.0512
X5.4134Y-4.4874
X5.4134Y-4.5709
X5.4213Y-4.0354
X5.4213Y-4.3423
X5.4331Y-2.3228
X5.4528Y-4.2953
X5.4567Y-2.5551
X5.4626Y-4.0079
X5.4715Y-5.0522
X5.4724Y-3.8189
X5.4823Y-4.7524
X5.4849Y-4.8156
X5.5099Y-3.9843
X5.5118Y-3.7402
X5.5157Y-2.3346
X5.5157Y-4.4882
X5.5463Y-3.9183
X5.5512Y-3.2087
X5.5551Y-5.2795
X5.561Y-2.3406
X5.563Y-4.8858
X5.5669Y-3.0512
X5.5709Y-2.6378
X5.5709Y-2.7953
X5.5709Y-4.7441
X5.5709Y-4.9803
X5.5851Y-4.3379
X5.5868Y-2.3189
X5.5984Y-2.8898
X5.5984Y-3.6535
X5.5984Y-4.2047
X5.6181Y-4.2874
X5.628Y-3.374
X5.6299Y-4.5658
X5.6358Y-4.3996
X5.6393Y-4.6378
X5.6526Y-2.8346
X5.6594Y-3.9494
X5.6713Y-4.4744
X5.689Y-3.0512
X5.689Y-4.8622
X5.7008Y-2.3307
X5.7087Y-2.3858
X5.7244Y-2.4567
X5.7283Y-2.2047
X5.7283Y-3.7205
X5.7904Y-2.9577
X5.8056Y-3.8825
X5.8071Y-3.9488
X5.8071Y-4.2717
X5.8071Y-5.1378
X5.8268Y-3.2283
X5.8274Y-3.8589
X5.8287Y-2.2441
X5.8307Y-2.9055
X5.8425Y-4.122
X5.8465Y-2.6378
X5.8465Y-2.7953
X5.8465Y-4.0551
X5.8591Y-2.9895
X5.8622Y-3.5029
X5.874Y-2.9055
X5.9055Y-2.9764
X5.9134Y-2.937
X5.9281Y-2.8346
X5.9291Y-2.5571
X5.935Y-3.1004
X5.9449Y-3.7205
X5.9449Y-5.2756
X5.9595Y-3.9695
X5.9646Y-2.3622
X5.9843Y-2.6378
X6.0039Y-2.4409
X6.0236Y-2.2047
X6.0236Y-2.3228
X6.0433Y-4.9606
X6.0433Y-5.0591
X6.0827Y-2.7953
X6.0827Y-3.0512
X6.0827Y-4.2717
X6.0846Y-2.2441
X6.0945Y-3.9646
X6.1063Y-3.8071
X6.1102Y-2.9055
X6.1644Y-2.8346
X6.1811Y-5.2756
X6.2008Y-3.8189
X6.2087Y-4.0669
X6.2087Y-4.1417
X6.2205Y-3.6575
X6.2431Y-3.374
X6.2598Y-2.2244
X6.2598Y-2.4213
X6.2598Y-2.5984
X6.3268Y-3.6654
X6.3386Y-2.7953
X6.3425Y-2.9055
X6.3455Y-3.375
X6.3878Y-5.1575
X6.5197Y-2.9213
X6.5669Y-2.9252
X6.6197Y-3.0039
X6.6535Y-3.1181
X6.6693Y-2.9252
X6.6732Y-3.2283
X6.6791Y-3.372
X6.7224Y-2.9272
X6.8228Y-3.0079
X6.9011Y-2.8346
X6.9764Y-3.0945
X6.9823Y-2.9547
X7.0079Y-4.9606
X7.0394Y-4.0118
X7.0472Y-4.4094
X7.0531Y-3.1969
T2
X4.5512Y-4.5472
X4.7047Y-3.4252
X4.8228Y-3.6811
X4.8957Y-4.2776
X5.1378Y-4.6772
X5.2362Y-3.4252
X5.2638Y-4.7648
X5.2756Y-3.5827
X5.5276Y-3.1053
X5.6378Y-4.9291
X5.748Y-3.4252
X5.7559Y-2.3917
X5.7874Y-3.5827
X5.9055Y-4.8425
X6.063Y-4.7835
X6.1516Y-4.5374
X6.1772Y-3.4921
X6.2205Y-5.1575
X6.3307Y-3.0512
X6.3509Y-3.5793
X6.4331Y-3.815
X6.4724Y-2.9134
X6.4764Y-3.6024
X6.4764Y-4.1142
X6.5039Y-3.5292
X6.5412Y-5.2471
X6.7717Y-3.2244
X6.8268Y-2.7913
X7.0236Y-2.9921
T3
X3.8661Y-2.3366
X3.8661Y-2.435
X3.8695Y-3.4047
X3.8695Y-3.5047
X3.8695Y-4.3102
X3.8695Y-4.4102
X3.9902Y-4.126
X3.9902Y-5.0315
X4.0886Y-4.126
X4.0886Y-5.0315
X4.1895Y-3.4047
X4.1895Y-3.5047
X4.1895Y-4.3102
X4.1895Y-4.4102
X4.4874Y-2.216
X4.4874Y-2.536
X4.5874Y-2.216
X4.5874Y-2.536
X4.7337Y-3.7604
X4.7337Y-3.8982
X5.9554Y-4.375
X6.0932Y-4.375
X6.5344Y-3.9774
X6.5344Y-4.253
X6.6132Y-3.9774
X6.6132Y-4.253
T4
X3.8701Y-3.8181
X3.8701Y-3.9181
X3.8701Y-4.7236
X3.8701Y-4.8236
X3.872Y-4.0181
X3.872Y-4.1181
X3.872Y-4.9236
X3.872Y-5.0236
X3.874Y-2.2185
X3.874Y-2.5453
X3.974Y-2.2185
X3.974Y-2.5453
X4.074Y-2.2165
X4.074Y-2.5453
X4.174Y-2.2165
X4.174Y-2.5453
X4.1988Y-3.6181
X4.1988Y-3.7181
X4.1988Y-3.8181
X4.1988Y-3.9181
X4.1988Y-4.0181
X4.1988Y-4.1181
X4.1988Y-4.5236
X4.1988Y-4.6236
X4.1988Y-4.7236
X4.1988Y-4.8236
X4.1988Y-4.9236
X4.1988Y-5.0236
X4.274Y-2.5453
X4.374Y-2.5453
X5.7487Y-4.5512
X5.7487Y-4.6512
X5.7487Y-4.7512
X5.7487Y-4.934
X5.7487Y-5.034
X5.7487Y-5.134
X5.7487Y-5.234
X6.0243Y-4.0207
X6.0243Y-4.1207
X6.2999Y-3.7232
X6.2999Y-3.8232
X6.2999Y-3.9232
X6.2999Y-4.0776
X6.2999Y-4.1776
X6.2999Y-4.2776
X6.6936Y-3.4482
X6.6936Y-3.5482
T5
X6.8701Y-3.7697
X6.8701Y-3.9075
X6.8701Y-4.1486
X6.8701Y-4.2864
X6.8701Y-4.7785
X6.8701Y-4.9163
T6
X3.9469Y-3.188
X4.0469Y-3.188
X4.3602Y-3.188
X4.4602Y-3.188
X4.7736Y-3.188
X4.8311Y-2.5994
X4.8736Y-3.188
X4.9311Y-2.5994
X5.2258Y-3.188
X5.2445Y-2.5994
X5.3258Y-3.188
X5.3445Y-2.5994
X5.6392Y-3.188
X5.6579Y-2.5994
X5.7392Y-3.188
X5.7579Y-2.5994
X6.0526Y-3.188
X6.0713Y-2.5994
X6.1526Y-3.188
X6.1713Y-2.5994
X6.4659Y-3.188
X6.5659Y-3.188
X6.8793Y-3.188
X6.9793Y-3.188
T7
X4.7928Y-4.5931
X4.7928Y-5.1049
T8
X4.4889Y-3.5089
X4.4889Y-5.1624
X6.9298Y-3.5089
X6.9298Y-5.1624
M30
