%TF.GenerationSoftware,KiCad,Pcbnew,8.0.9*%
%TF.CreationDate,2025-05-12T13:50:05+02:00*%
%TF.ProjectId,panel_mini-PAMI (w JST),70616e65-6c5f-46d6-996e-692d50414d49,rev?*%
%TF.SameCoordinates,Original*%
%TF.FileFunction,Legend,Top*%
%TF.FilePolarity,Positive*%
%FSLAX46Y46*%
G04 Gerber Fmt 4.6, Leading zero omitted, Abs format (unit mm)*
G04 Created by KiCad (PCBNEW 8.0.9) date 2025-05-12 13:50:05*
%MOMM*%
%LPD*%
G01*
G04 APERTURE LIST*
G04 Aperture macros list*
%AMRoundRect*
0 Rectangle with rounded corners*
0 $1 Rounding radius*
0 $2 $3 $4 $5 $6 $7 $8 $9 X,Y pos of 4 corners*
0 Add a 4 corners polygon primitive as box body*
4,1,4,$2,$3,$4,$5,$6,$7,$8,$9,$2,$3,0*
0 Add four circle primitives for the rounded corners*
1,1,$1+$1,$2,$3*
1,1,$1+$1,$4,$5*
1,1,$1+$1,$6,$7*
1,1,$1+$1,$8,$9*
0 Add four rect primitives between the rounded corners*
20,1,$1+$1,$2,$3,$4,$5,0*
20,1,$1+$1,$4,$5,$6,$7,0*
20,1,$1+$1,$6,$7,$8,$9,0*
20,1,$1+$1,$8,$9,$2,$3,0*%
G04 Aperture macros list end*
%ADD10C,0.100000*%
%ADD11C,0.150000*%
%ADD12C,0.300000*%
%ADD13C,0.250000*%
%ADD14C,0.200000*%
%ADD15C,0.120000*%
%ADD16RoundRect,0.250000X0.475000X-0.250000X0.475000X0.250000X-0.475000X0.250000X-0.475000X-0.250000X0*%
%ADD17RoundRect,0.225000X-0.250000X0.225000X-0.250000X-0.225000X0.250000X-0.225000X0.250000X0.225000X0*%
%ADD18R,1.600000X1.600000*%
%ADD19C,1.600000*%
%ADD20RoundRect,0.200000X0.200000X0.275000X-0.200000X0.275000X-0.200000X-0.275000X0.200000X-0.275000X0*%
%ADD21RoundRect,0.200000X-0.275000X0.200000X-0.275000X-0.200000X0.275000X-0.200000X0.275000X0.200000X0*%
%ADD22RoundRect,0.250000X-0.300000X-0.300000X0.300000X-0.300000X0.300000X0.300000X-0.300000X0.300000X0*%
%ADD23RoundRect,0.200000X-0.200000X-0.275000X0.200000X-0.275000X0.200000X0.275000X-0.200000X0.275000X0*%
%ADD24O,1.500000X1.500000*%
%ADD25R,1.500000X1.500000*%
%ADD26RoundRect,0.200000X0.275000X-0.200000X0.275000X0.200000X-0.275000X0.200000X-0.275000X-0.200000X0*%
%ADD27RoundRect,0.150000X0.587500X0.150000X-0.587500X0.150000X-0.587500X-0.150000X0.587500X-0.150000X0*%
%ADD28RoundRect,0.150000X-0.512500X-0.150000X0.512500X-0.150000X0.512500X0.150000X-0.512500X0.150000X0*%
%ADD29R,1.700000X1.700000*%
%ADD30O,1.700000X1.700000*%
%ADD31RoundRect,0.180000X-0.420000X0.420000X-0.420000X-0.420000X0.420000X-0.420000X0.420000X0.420000X0*%
%ADD32C,1.200000*%
%ADD33RoundRect,0.680000X-0.170000X0.170000X-0.170000X-0.170000X0.170000X-0.170000X0.170000X0.170000X0*%
G04 APERTURE END LIST*
D10*
X42591178Y-13550000D02*
X42591178Y-15150000D01*
D11*
X14079990Y-7530000D02*
X21279990Y-7530000D01*
X21279990Y-10100000D01*
X14079990Y-10100000D01*
X14079990Y-7530000D01*
G36*
X14079990Y-7530000D02*
G01*
X21279990Y-7530000D01*
X21279990Y-10100000D01*
X14079990Y-10100000D01*
X14079990Y-7530000D01*
G37*
X38871180Y-7530000D02*
X46071180Y-7530000D01*
X46071180Y-10100000D01*
X38871180Y-10100000D01*
X38871180Y-7530000D01*
G36*
X38871180Y-7530000D02*
G01*
X46071180Y-7530000D01*
X46071180Y-10100000D01*
X38871180Y-10100000D01*
X38871180Y-7530000D01*
G37*
D10*
X17799990Y-13550000D02*
X17799990Y-15150000D01*
D11*
X45682343Y1052504D02*
X45682343Y1814408D01*
X46063296Y1433456D02*
X45301391Y1433456D01*
G36*
X46152312Y-6706743D02*
G01*
X45217892Y-6706743D01*
X45217892Y-6224901D01*
X45306781Y-6224901D01*
X45306781Y-6254165D01*
X45317980Y-6281201D01*
X45338672Y-6301893D01*
X45365708Y-6313092D01*
X45380340Y-6314533D01*
X45610102Y-6314533D01*
X45610102Y-6544295D01*
X45611543Y-6558927D01*
X45622742Y-6585963D01*
X45643434Y-6606655D01*
X45670470Y-6617854D01*
X45699734Y-6617854D01*
X45726770Y-6606655D01*
X45747462Y-6585963D01*
X45758661Y-6558927D01*
X45760102Y-6544295D01*
X45760102Y-6314533D01*
X45989864Y-6314533D01*
X46004496Y-6313092D01*
X46031532Y-6301893D01*
X46052224Y-6281201D01*
X46063423Y-6254165D01*
X46063423Y-6224901D01*
X46052224Y-6197865D01*
X46031532Y-6177173D01*
X46004496Y-6165974D01*
X45989864Y-6164533D01*
X45760102Y-6164533D01*
X45760102Y-5934771D01*
X45758661Y-5920139D01*
X45747462Y-5893103D01*
X45726770Y-5872411D01*
X45699734Y-5861212D01*
X45670470Y-5861212D01*
X45643434Y-5872411D01*
X45622742Y-5893103D01*
X45611543Y-5920139D01*
X45610102Y-5934771D01*
X45610102Y-6164533D01*
X45380340Y-6164533D01*
X45365708Y-6165974D01*
X45338672Y-6177173D01*
X45317980Y-6197865D01*
X45306781Y-6224901D01*
X45217892Y-6224901D01*
X45217892Y-5772323D01*
X46152312Y-5772323D01*
X46152312Y-6706743D01*
G37*
G36*
X21361122Y-6706743D02*
G01*
X20426702Y-6706743D01*
X20426702Y-6224901D01*
X20515591Y-6224901D01*
X20515591Y-6254165D01*
X20526790Y-6281201D01*
X20547482Y-6301893D01*
X20574518Y-6313092D01*
X20589150Y-6314533D01*
X20818912Y-6314533D01*
X20818912Y-6544295D01*
X20820353Y-6558927D01*
X20831552Y-6585963D01*
X20852244Y-6606655D01*
X20879280Y-6617854D01*
X20908544Y-6617854D01*
X20935580Y-6606655D01*
X20956272Y-6585963D01*
X20967471Y-6558927D01*
X20968912Y-6544295D01*
X20968912Y-6314533D01*
X21198674Y-6314533D01*
X21213306Y-6313092D01*
X21240342Y-6301893D01*
X21261034Y-6281201D01*
X21272233Y-6254165D01*
X21272233Y-6224901D01*
X21261034Y-6197865D01*
X21240342Y-6177173D01*
X21213306Y-6165974D01*
X21198674Y-6164533D01*
X20968912Y-6164533D01*
X20968912Y-5934771D01*
X20967471Y-5920139D01*
X20956272Y-5893103D01*
X20935580Y-5872411D01*
X20908544Y-5861212D01*
X20879280Y-5861212D01*
X20852244Y-5872411D01*
X20831552Y-5893103D01*
X20820353Y-5920139D01*
X20818912Y-5934771D01*
X20818912Y-6164533D01*
X20589150Y-6164533D01*
X20574518Y-6165974D01*
X20547482Y-6177173D01*
X20526790Y-6197865D01*
X20515591Y-6224901D01*
X20426702Y-6224901D01*
X20426702Y-5772323D01*
X21361122Y-5772323D01*
X21361122Y-6706743D01*
G37*
X-311134Y986780D02*
X-311134Y1748684D01*
X69819Y1367732D02*
X-692086Y1367732D01*
D12*
G36*
X41199949Y-15037542D02*
G01*
X39918295Y-15037542D01*
X39918295Y-13861638D01*
X40068295Y-13861638D01*
X40072443Y-13920019D01*
X40098618Y-13972368D01*
X40142833Y-14010714D01*
X40198355Y-14029222D01*
X40256736Y-14025074D01*
X40284199Y-14014564D01*
X40398485Y-13957421D01*
X40409974Y-13950189D01*
X40409974Y-14587542D01*
X40217117Y-14587542D01*
X40187853Y-14590424D01*
X40133781Y-14612822D01*
X40092397Y-14654206D01*
X40069999Y-14708278D01*
X40069999Y-14766806D01*
X40092397Y-14820878D01*
X40133781Y-14862262D01*
X40187853Y-14884660D01*
X40217117Y-14887542D01*
X40902831Y-14887542D01*
X40932095Y-14884660D01*
X40986167Y-14862262D01*
X41027551Y-14820878D01*
X41049949Y-14766806D01*
X41049949Y-14708278D01*
X41027551Y-14654206D01*
X40986167Y-14612822D01*
X40932095Y-14590424D01*
X40902831Y-14587542D01*
X40709974Y-14587542D01*
X40709974Y-13537542D01*
X40709963Y-13537436D01*
X40709974Y-13537384D01*
X40709943Y-13537230D01*
X40707092Y-13508278D01*
X40701408Y-13494557D01*
X40698496Y-13479995D01*
X40690318Y-13467783D01*
X40684694Y-13454206D01*
X40674192Y-13443704D01*
X40665929Y-13431365D01*
X40653701Y-13423213D01*
X40643310Y-13412822D01*
X40629588Y-13407138D01*
X40617231Y-13398900D01*
X40602816Y-13396048D01*
X40589238Y-13390424D01*
X40574385Y-13390424D01*
X40559816Y-13387542D01*
X40545406Y-13390424D01*
X40530710Y-13390424D01*
X40516989Y-13396107D01*
X40502427Y-13399020D01*
X40490215Y-13407197D01*
X40476638Y-13412822D01*
X40466136Y-13423323D01*
X40453797Y-13431587D01*
X40435360Y-13454099D01*
X40435254Y-13454206D01*
X40435234Y-13454253D01*
X40435166Y-13454337D01*
X40329117Y-13613409D01*
X40242548Y-13699979D01*
X40150035Y-13746236D01*
X40125149Y-13761901D01*
X40086803Y-13806116D01*
X40068295Y-13861638D01*
X39918295Y-13861638D01*
X39918295Y-13237542D01*
X41199949Y-13237542D01*
X41199949Y-15037542D01*
G37*
D11*
X22682343Y1052504D02*
X22682343Y1814408D01*
X23063296Y1433456D02*
X22301391Y1433456D01*
D12*
G36*
X20461643Y-15037542D02*
G01*
X19121668Y-15037542D01*
X19121668Y-14708279D01*
X19271668Y-14708279D01*
X19271668Y-14766805D01*
X19294065Y-14820877D01*
X19335451Y-14862263D01*
X19367125Y-14875382D01*
X19389522Y-14884660D01*
X19418786Y-14887542D01*
X20161643Y-14887542D01*
X20190907Y-14884660D01*
X20244979Y-14862262D01*
X20286363Y-14820878D01*
X20308761Y-14766806D01*
X20308761Y-14708278D01*
X20286363Y-14654206D01*
X20244979Y-14612822D01*
X20190907Y-14590424D01*
X20161643Y-14587542D01*
X19780918Y-14587542D01*
X20210566Y-14157894D01*
X20229221Y-14135163D01*
X20231283Y-14130183D01*
X20234814Y-14126113D01*
X20246802Y-14099262D01*
X20303945Y-13927834D01*
X20307243Y-13913326D01*
X20308761Y-13909664D01*
X20309283Y-13904355D01*
X20310465Y-13899161D01*
X20310184Y-13895211D01*
X20311643Y-13880400D01*
X20311643Y-13766114D01*
X20308761Y-13736850D01*
X20306698Y-13731871D01*
X20306317Y-13726496D01*
X20295807Y-13699032D01*
X20238664Y-13584746D01*
X20230738Y-13572154D01*
X20229222Y-13568494D01*
X20225839Y-13564372D01*
X20222999Y-13559860D01*
X20220005Y-13557264D01*
X20210567Y-13545763D01*
X20153425Y-13488620D01*
X20141923Y-13479180D01*
X20139326Y-13476186D01*
X20134811Y-13473344D01*
X20130694Y-13469965D01*
X20127035Y-13468449D01*
X20114440Y-13460521D01*
X20000154Y-13403378D01*
X19972691Y-13392868D01*
X19967313Y-13392485D01*
X19962336Y-13390424D01*
X19933072Y-13387542D01*
X19647358Y-13387542D01*
X19618094Y-13390424D01*
X19613115Y-13392486D01*
X19607740Y-13392868D01*
X19580276Y-13403378D01*
X19465990Y-13460521D01*
X19453398Y-13468447D01*
X19449736Y-13469964D01*
X19445613Y-13473347D01*
X19441104Y-13476186D01*
X19438508Y-13479178D01*
X19427006Y-13488619D01*
X19369863Y-13545762D01*
X19351208Y-13568493D01*
X19328811Y-13622565D01*
X19328811Y-13681091D01*
X19351208Y-13735163D01*
X19392594Y-13776549D01*
X19446666Y-13798946D01*
X19505192Y-13798946D01*
X19559264Y-13776549D01*
X19581995Y-13757894D01*
X19621926Y-13717963D01*
X19682768Y-13687542D01*
X19897662Y-13687542D01*
X19958503Y-13717962D01*
X19981221Y-13740681D01*
X20011643Y-13801524D01*
X20011643Y-13856059D01*
X19973396Y-13970799D01*
X19312720Y-14631476D01*
X19294065Y-14654207D01*
X19271668Y-14708279D01*
X19121668Y-14708279D01*
X19121668Y-13237542D01*
X20461643Y-13237542D01*
X20461643Y-15037542D01*
G37*
G36*
X45252831Y-15037542D02*
G01*
X43912856Y-15037542D01*
X43912856Y-14708279D01*
X44062856Y-14708279D01*
X44062856Y-14766805D01*
X44085253Y-14820877D01*
X44126639Y-14862263D01*
X44158313Y-14875382D01*
X44180710Y-14884660D01*
X44209974Y-14887542D01*
X44952831Y-14887542D01*
X44982095Y-14884660D01*
X45036167Y-14862262D01*
X45077551Y-14820878D01*
X45099949Y-14766806D01*
X45099949Y-14708278D01*
X45077551Y-14654206D01*
X45036167Y-14612822D01*
X44982095Y-14590424D01*
X44952831Y-14587542D01*
X44572106Y-14587542D01*
X45001754Y-14157894D01*
X45020409Y-14135163D01*
X45022471Y-14130183D01*
X45026002Y-14126113D01*
X45037990Y-14099262D01*
X45095133Y-13927834D01*
X45098431Y-13913326D01*
X45099949Y-13909664D01*
X45100471Y-13904355D01*
X45101653Y-13899161D01*
X45101372Y-13895211D01*
X45102831Y-13880400D01*
X45102831Y-13766114D01*
X45099949Y-13736850D01*
X45097886Y-13731871D01*
X45097505Y-13726496D01*
X45086995Y-13699032D01*
X45029852Y-13584746D01*
X45021926Y-13572154D01*
X45020410Y-13568494D01*
X45017027Y-13564372D01*
X45014187Y-13559860D01*
X45011193Y-13557264D01*
X45001755Y-13545763D01*
X44944613Y-13488620D01*
X44933111Y-13479180D01*
X44930514Y-13476186D01*
X44925999Y-13473344D01*
X44921882Y-13469965D01*
X44918223Y-13468449D01*
X44905628Y-13460521D01*
X44791342Y-13403378D01*
X44763879Y-13392868D01*
X44758501Y-13392485D01*
X44753524Y-13390424D01*
X44724260Y-13387542D01*
X44438546Y-13387542D01*
X44409282Y-13390424D01*
X44404303Y-13392486D01*
X44398928Y-13392868D01*
X44371464Y-13403378D01*
X44257178Y-13460521D01*
X44244586Y-13468447D01*
X44240924Y-13469964D01*
X44236801Y-13473347D01*
X44232292Y-13476186D01*
X44229696Y-13479178D01*
X44218194Y-13488619D01*
X44161051Y-13545762D01*
X44142396Y-13568493D01*
X44119999Y-13622565D01*
X44119999Y-13681091D01*
X44142396Y-13735163D01*
X44183782Y-13776549D01*
X44237854Y-13798946D01*
X44296380Y-13798946D01*
X44350452Y-13776549D01*
X44373183Y-13757894D01*
X44413114Y-13717963D01*
X44473956Y-13687542D01*
X44688850Y-13687542D01*
X44749691Y-13717962D01*
X44772409Y-13740681D01*
X44802831Y-13801524D01*
X44802831Y-13856059D01*
X44764584Y-13970799D01*
X44103908Y-14631476D01*
X44085253Y-14654207D01*
X44062856Y-14708279D01*
X43912856Y-14708279D01*
X43912856Y-13237542D01*
X45252831Y-13237542D01*
X45252831Y-15037542D01*
G37*
D11*
X45542244Y-11706200D02*
X45656530Y-11744295D01*
X45656530Y-11744295D02*
X45847006Y-11744295D01*
X45847006Y-11744295D02*
X45923197Y-11706200D01*
X45923197Y-11706200D02*
X45961292Y-11668104D01*
X45961292Y-11668104D02*
X45999387Y-11591914D01*
X45999387Y-11591914D02*
X45999387Y-11515723D01*
X45999387Y-11515723D02*
X45961292Y-11439533D01*
X45961292Y-11439533D02*
X45923197Y-11401438D01*
X45923197Y-11401438D02*
X45847006Y-11363342D01*
X45847006Y-11363342D02*
X45694625Y-11325247D01*
X45694625Y-11325247D02*
X45618435Y-11287152D01*
X45618435Y-11287152D02*
X45580340Y-11249057D01*
X45580340Y-11249057D02*
X45542244Y-11172866D01*
X45542244Y-11172866D02*
X45542244Y-11096676D01*
X45542244Y-11096676D02*
X45580340Y-11020485D01*
X45580340Y-11020485D02*
X45618435Y-10982390D01*
X45618435Y-10982390D02*
X45694625Y-10944295D01*
X45694625Y-10944295D02*
X45885102Y-10944295D01*
X45885102Y-10944295D02*
X45999387Y-10982390D01*
D12*
G36*
X16408761Y-15037542D02*
G01*
X15127107Y-15037542D01*
X15127107Y-13861638D01*
X15277107Y-13861638D01*
X15281255Y-13920019D01*
X15307430Y-13972368D01*
X15351645Y-14010714D01*
X15407167Y-14029222D01*
X15465548Y-14025074D01*
X15493011Y-14014564D01*
X15607297Y-13957421D01*
X15618786Y-13950189D01*
X15618786Y-14587542D01*
X15425929Y-14587542D01*
X15396665Y-14590424D01*
X15342593Y-14612822D01*
X15301209Y-14654206D01*
X15278811Y-14708278D01*
X15278811Y-14766806D01*
X15301209Y-14820878D01*
X15342593Y-14862262D01*
X15396665Y-14884660D01*
X15425929Y-14887542D01*
X16111643Y-14887542D01*
X16140907Y-14884660D01*
X16194979Y-14862262D01*
X16236363Y-14820878D01*
X16258761Y-14766806D01*
X16258761Y-14708278D01*
X16236363Y-14654206D01*
X16194979Y-14612822D01*
X16140907Y-14590424D01*
X16111643Y-14587542D01*
X15918786Y-14587542D01*
X15918786Y-13537542D01*
X15918775Y-13537436D01*
X15918786Y-13537384D01*
X15918755Y-13537230D01*
X15915904Y-13508278D01*
X15910220Y-13494557D01*
X15907308Y-13479995D01*
X15899130Y-13467783D01*
X15893506Y-13454206D01*
X15883004Y-13443704D01*
X15874741Y-13431365D01*
X15862513Y-13423213D01*
X15852122Y-13412822D01*
X15838400Y-13407138D01*
X15826043Y-13398900D01*
X15811628Y-13396048D01*
X15798050Y-13390424D01*
X15783197Y-13390424D01*
X15768628Y-13387542D01*
X15754218Y-13390424D01*
X15739522Y-13390424D01*
X15725801Y-13396107D01*
X15711239Y-13399020D01*
X15699027Y-13407197D01*
X15685450Y-13412822D01*
X15674948Y-13423323D01*
X15662609Y-13431587D01*
X15644172Y-13454099D01*
X15644066Y-13454206D01*
X15644046Y-13454253D01*
X15643978Y-13454337D01*
X15537929Y-13613409D01*
X15451360Y-13699979D01*
X15358847Y-13746236D01*
X15333961Y-13761901D01*
X15295615Y-13806116D01*
X15277107Y-13861638D01*
X15127107Y-13861638D01*
X15127107Y-13237542D01*
X16408761Y-13237542D01*
X16408761Y-15037542D01*
G37*
D11*
X20751054Y-11706200D02*
X20865340Y-11744295D01*
X20865340Y-11744295D02*
X21055816Y-11744295D01*
X21055816Y-11744295D02*
X21132007Y-11706200D01*
X21132007Y-11706200D02*
X21170102Y-11668104D01*
X21170102Y-11668104D02*
X21208197Y-11591914D01*
X21208197Y-11591914D02*
X21208197Y-11515723D01*
X21208197Y-11515723D02*
X21170102Y-11439533D01*
X21170102Y-11439533D02*
X21132007Y-11401438D01*
X21132007Y-11401438D02*
X21055816Y-11363342D01*
X21055816Y-11363342D02*
X20903435Y-11325247D01*
X20903435Y-11325247D02*
X20827245Y-11287152D01*
X20827245Y-11287152D02*
X20789150Y-11249057D01*
X20789150Y-11249057D02*
X20751054Y-11172866D01*
X20751054Y-11172866D02*
X20751054Y-11096676D01*
X20751054Y-11096676D02*
X20789150Y-11020485D01*
X20789150Y-11020485D02*
X20827245Y-10982390D01*
X20827245Y-10982390D02*
X20903435Y-10944295D01*
X20903435Y-10944295D02*
X21093912Y-10944295D01*
X21093912Y-10944295D02*
X21208197Y-10982390D01*
D13*
G36*
X10258510Y8984276D02*
G01*
X10258510Y7968226D01*
X10057986Y7968226D01*
X9819605Y8688743D01*
X9804233Y8735897D01*
X9788152Y8785952D01*
X9773452Y8832984D01*
X9771489Y8839440D01*
X9755953Y8790508D01*
X9738861Y8738501D01*
X9722474Y8689546D01*
X9718000Y8676286D01*
X9476932Y7968226D01*
X9297658Y7968226D01*
X9297658Y8984276D01*
X9426130Y8984276D01*
X9426130Y8132357D01*
X9718733Y8984276D01*
X9838900Y8984276D01*
X10130282Y8117947D01*
X10130282Y8984276D01*
X10258510Y8984276D01*
G37*
G36*
X9103974Y8108910D02*
G01*
X9103974Y7968226D01*
X8980387Y7968226D01*
X8980387Y8108910D01*
X9103974Y8108910D01*
G37*
G36*
X9103974Y8984276D02*
G01*
X9103974Y8249594D01*
X8980387Y8249594D01*
X8980387Y8984276D01*
X9103974Y8984276D01*
G37*
G36*
X8794029Y8984276D02*
G01*
X8794029Y8249594D01*
X8682899Y8249594D01*
X8682899Y8352664D01*
X8650250Y8312324D01*
X8612568Y8280330D01*
X8562248Y8253553D01*
X8513664Y8239643D01*
X8460049Y8234078D01*
X8450624Y8233962D01*
X8398817Y8237913D01*
X8350557Y8249764D01*
X8329480Y8257898D01*
X8286343Y8281527D01*
X8250210Y8315629D01*
X8246681Y8320424D01*
X8222044Y8365563D01*
X8208091Y8412260D01*
X8202755Y8463533D01*
X8201312Y8517406D01*
X8201252Y8533160D01*
X8201252Y8984276D01*
X8324839Y8984276D01*
X8324839Y8536335D01*
X8326865Y8484609D01*
X8335098Y8435214D01*
X8339249Y8422518D01*
X8366040Y8381207D01*
X8390540Y8362190D01*
X8435852Y8343823D01*
X8476758Y8339475D01*
X8528455Y8345450D01*
X8575073Y8363372D01*
X8613046Y8390034D01*
X8643313Y8430529D01*
X8660970Y8482189D01*
X8668425Y8532333D01*
X8670443Y8582253D01*
X8670443Y8984276D01*
X8794029Y8984276D01*
G37*
G36*
X8014651Y8108910D02*
G01*
X8014651Y7968226D01*
X7891064Y7968226D01*
X7891064Y8108910D01*
X8014651Y8108910D01*
G37*
G36*
X8014651Y8984276D02*
G01*
X8014651Y8249594D01*
X7891064Y8249594D01*
X7891064Y8984276D01*
X8014651Y8984276D01*
G37*
G36*
X7689075Y7968226D02*
G01*
X7309033Y7968226D01*
X7256433Y7968999D01*
X7206735Y7971670D01*
X7155893Y7977996D01*
X7107703Y7989215D01*
X7061650Y8007510D01*
X7031573Y8025379D01*
X6994116Y8058393D01*
X6963109Y8100677D01*
X6950973Y8123320D01*
X6932220Y8172184D01*
X6922633Y8220114D01*
X6920198Y8261562D01*
X6920496Y8265714D01*
X7057707Y8265714D01*
X7062988Y8216387D01*
X7080485Y8170119D01*
X7089703Y8155316D01*
X7123978Y8119084D01*
X7170476Y8095461D01*
X7173722Y8094500D01*
X7225596Y8087448D01*
X7276278Y8085604D01*
X7298042Y8085463D01*
X7555718Y8085463D01*
X7555718Y8452804D01*
X7295355Y8452804D01*
X7242416Y8450455D01*
X7190702Y8442017D01*
X7143726Y8425189D01*
X7111929Y8403711D01*
X7081058Y8365256D01*
X7063002Y8317391D01*
X7057707Y8265714D01*
X6920496Y8265714D01*
X6924114Y8316196D01*
X6935859Y8367042D01*
X6955436Y8414103D01*
X6982843Y8457376D01*
X7002020Y8480404D01*
X7044116Y8515330D01*
X7090226Y8538440D01*
X7145593Y8555247D01*
X7198803Y8564438D01*
X7258441Y8569253D01*
X7297309Y8570041D01*
X7555718Y8570041D01*
X7555718Y8984276D01*
X7689075Y8984276D01*
X7689075Y7968226D01*
G37*
G36*
X6296891Y8671646D02*
G01*
X6717965Y8671646D01*
X6828607Y8984276D01*
X6970024Y8984276D01*
X6583387Y7968226D01*
X6439773Y7968226D01*
X6198889Y8562225D01*
X6338168Y8562225D01*
X6443192Y8283055D01*
X6460368Y8236933D01*
X6478215Y8187162D01*
X6495720Y8135604D01*
X6511728Y8084389D01*
X6514755Y8073983D01*
X6525288Y8122374D01*
X6537836Y8170581D01*
X6552399Y8218606D01*
X6568977Y8266447D01*
X6679619Y8562225D01*
X6338168Y8562225D01*
X6198889Y8562225D01*
X6027735Y8984276D01*
X6179410Y8984276D01*
X6296891Y8671646D01*
G37*
G36*
X5930526Y8984276D02*
G01*
X5930526Y7968226D01*
X5730003Y7968226D01*
X5491622Y8688743D01*
X5476250Y8735897D01*
X5460169Y8785952D01*
X5445469Y8832984D01*
X5443506Y8839440D01*
X5427970Y8790508D01*
X5410878Y8738501D01*
X5394491Y8689546D01*
X5390017Y8676286D01*
X5148949Y7968226D01*
X4969675Y7968226D01*
X4969675Y8984276D01*
X5098147Y8984276D01*
X5098147Y8132357D01*
X5390750Y8984276D01*
X5510917Y8984276D01*
X5802299Y8117947D01*
X5802299Y8984276D01*
X5930526Y8984276D01*
G37*
G36*
X4738377Y8984276D02*
G01*
X4738377Y7968226D01*
X4605020Y7968226D01*
X4605020Y8984276D01*
X4738377Y8984276D01*
G37*
G36*
X3383562Y8867040D02*
G01*
X3383562Y8984276D01*
X4049368Y8984276D01*
X4045409Y8935075D01*
X4034958Y8898303D01*
X4013748Y8851714D01*
X3988255Y8809811D01*
X3956847Y8768337D01*
X3953380Y8764214D01*
X3917978Y8725359D01*
X3879891Y8688097D01*
X3841456Y8653389D01*
X3798253Y8616717D01*
X3791692Y8611318D01*
X3752323Y8578249D01*
X3707791Y8539394D01*
X3668460Y8503293D01*
X3628125Y8463608D01*
X3590532Y8422323D01*
X3569919Y8396140D01*
X3541937Y8352165D01*
X3521587Y8304891D01*
X3512260Y8254818D01*
X3512034Y8245930D01*
X3519453Y8193540D01*
X3541709Y8147745D01*
X3564790Y8120878D01*
X3604644Y8091815D01*
X3652002Y8074816D01*
X3701566Y8069831D01*
X3753954Y8075293D01*
X3803537Y8093919D01*
X3844692Y8125763D01*
X3875232Y8169324D01*
X3892177Y8217791D01*
X3898617Y8268631D01*
X3898914Y8280857D01*
X4025921Y8267424D01*
X4018525Y8215099D01*
X4006045Y8167670D01*
X3985061Y8118521D01*
X3957159Y8076034D01*
X3927735Y8044919D01*
X3887649Y8015035D01*
X3841976Y7992492D01*
X3790717Y7977289D01*
X3742334Y7970099D01*
X3698879Y7968226D01*
X3646687Y7971068D01*
X3591157Y7981569D01*
X3541400Y7999806D01*
X3497417Y8025781D01*
X3469535Y8049071D01*
X3436607Y8086287D01*
X3408878Y8133342D01*
X3391712Y8185220D01*
X3385357Y8234571D01*
X3385027Y8249350D01*
X3389099Y8298441D01*
X3401312Y8346887D01*
X3409696Y8369029D01*
X3432800Y8413885D01*
X3462065Y8456573D01*
X3491761Y8492616D01*
X3530056Y8532986D01*
X3568148Y8569674D01*
X3606585Y8604805D01*
X3650363Y8643336D01*
X3682515Y8670913D01*
X3721398Y8704221D01*
X3759708Y8737675D01*
X3797801Y8772135D01*
X3825397Y8799140D01*
X3857365Y8837214D01*
X3877421Y8867040D01*
X3383562Y8867040D01*
G37*
G36*
X2978974Y8996224D02*
G01*
X3026967Y8985173D01*
X3077403Y8962969D01*
X3121856Y8930737D01*
X3155195Y8895128D01*
X3183903Y8851868D01*
X3207745Y8800856D01*
X3223316Y8754465D01*
X3235772Y8703113D01*
X3245114Y8646800D01*
X3251343Y8585525D01*
X3253970Y8536314D01*
X3254846Y8484311D01*
X3253951Y8430070D01*
X3251268Y8379239D01*
X3245687Y8322745D01*
X3237529Y8271162D01*
X3224757Y8217189D01*
X3218209Y8196105D01*
X3197556Y8144539D01*
X3172475Y8099263D01*
X3142967Y8060275D01*
X3109033Y8027577D01*
X3065273Y7998887D01*
X3015601Y7979586D01*
X2966486Y7970313D01*
X2926584Y7968226D01*
X2873202Y7972094D01*
X2824553Y7983696D01*
X2784434Y8000955D01*
X2741478Y8029588D01*
X2704567Y8066397D01*
X2683318Y8095477D01*
X2657967Y8140995D01*
X2638428Y8187936D01*
X2623698Y8234710D01*
X2620791Y8245686D01*
X2610854Y8293756D01*
X2603756Y8349550D01*
X2599874Y8404707D01*
X2598277Y8456690D01*
X2598079Y8484067D01*
X2725083Y8484067D01*
X2725991Y8424224D01*
X2728716Y8369624D01*
X2733258Y8320268D01*
X2741489Y8265947D01*
X2755113Y8211576D01*
X2776174Y8163055D01*
X2783213Y8152141D01*
X2818152Y8112353D01*
X2862230Y8083416D01*
X2911842Y8070555D01*
X2927805Y8069831D01*
X2977717Y8076915D01*
X3024852Y8101072D01*
X3060639Y8137908D01*
X3063848Y8142371D01*
X3088782Y8190362D01*
X3105280Y8243421D01*
X3115591Y8296047D01*
X3122778Y8356317D01*
X3126277Y8410037D01*
X3127777Y8468650D01*
X3127840Y8484067D01*
X3126931Y8543746D01*
X3124207Y8598220D01*
X3119665Y8647489D01*
X3111434Y8701754D01*
X3097810Y8756136D01*
X3076749Y8804779D01*
X3069710Y8815749D01*
X3034887Y8855655D01*
X2991209Y8884678D01*
X2942284Y8897577D01*
X2926584Y8898303D01*
X2875956Y8890217D01*
X2830623Y8865960D01*
X2794351Y8830302D01*
X2783213Y8815505D01*
X2760563Y8771345D01*
X2745576Y8720861D01*
X2736210Y8669883D01*
X2729681Y8610808D01*
X2726502Y8557718D01*
X2725140Y8499445D01*
X2725083Y8484067D01*
X2598079Y8484067D01*
X2598077Y8484311D01*
X2598965Y8538207D01*
X2601631Y8588763D01*
X2607175Y8645023D01*
X2615278Y8696474D01*
X2627965Y8750424D01*
X2634469Y8771541D01*
X2654924Y8823030D01*
X2679898Y8868322D01*
X2709391Y8907416D01*
X2743401Y8940313D01*
X2787219Y8969121D01*
X2837065Y8988501D01*
X2886432Y8997813D01*
X2926584Y8999908D01*
X2978974Y8996224D01*
G37*
G36*
X1826270Y8867040D02*
G01*
X1826270Y8984276D01*
X2492076Y8984276D01*
X2488117Y8935075D01*
X2477665Y8898303D01*
X2456455Y8851714D01*
X2430962Y8809811D01*
X2399554Y8768337D01*
X2396088Y8764214D01*
X2360685Y8725359D01*
X2322599Y8688097D01*
X2284164Y8653389D01*
X2240960Y8616717D01*
X2234399Y8611318D01*
X2195030Y8578249D01*
X2150499Y8539394D01*
X2111167Y8503293D01*
X2070833Y8463608D01*
X2033240Y8422323D01*
X2012627Y8396140D01*
X1984645Y8352165D01*
X1964295Y8304891D01*
X1954967Y8254818D01*
X1954741Y8245930D01*
X1962160Y8193540D01*
X1984417Y8147745D01*
X2007498Y8120878D01*
X2047352Y8091815D01*
X2094710Y8074816D01*
X2144274Y8069831D01*
X2196662Y8075293D01*
X2246245Y8093919D01*
X2287400Y8125763D01*
X2317940Y8169324D01*
X2334884Y8217791D01*
X2341324Y8268631D01*
X2341622Y8280857D01*
X2468628Y8267424D01*
X2461232Y8215099D01*
X2448753Y8167670D01*
X2427769Y8118521D01*
X2399866Y8076034D01*
X2370443Y8044919D01*
X2330356Y8015035D01*
X2284684Y7992492D01*
X2233424Y7977289D01*
X2185041Y7970099D01*
X2141587Y7968226D01*
X2089394Y7971068D01*
X2033864Y7981569D01*
X1984108Y7999806D01*
X1940125Y8025781D01*
X1912243Y8049071D01*
X1879315Y8086287D01*
X1851585Y8133342D01*
X1834420Y8185220D01*
X1828065Y8234571D01*
X1827735Y8249350D01*
X1831806Y8298441D01*
X1844020Y8346887D01*
X1852403Y8369029D01*
X1875507Y8413885D01*
X1904772Y8456573D01*
X1934469Y8492616D01*
X1972763Y8532986D01*
X2010856Y8569674D01*
X2049293Y8604805D01*
X2093070Y8643336D01*
X2125223Y8670913D01*
X2164106Y8704221D01*
X2202416Y8737675D01*
X2240508Y8772135D01*
X2268105Y8799140D01*
X2300073Y8837214D01*
X2320129Y8867040D01*
X1826270Y8867040D01*
G37*
G36*
X1697554Y8718540D02*
G01*
X1567616Y8707549D01*
X1556497Y8757264D01*
X1537072Y8803756D01*
X1507109Y8844263D01*
X1500694Y8850431D01*
X1458253Y8879603D01*
X1409698Y8895311D01*
X1373932Y8898303D01*
X1320885Y8891577D01*
X1273182Y8871398D01*
X1230821Y8837767D01*
X1222990Y8829427D01*
X1193001Y8787148D01*
X1172826Y8737798D01*
X1163133Y8687996D01*
X1160952Y8646977D01*
X1164677Y8595732D01*
X1177771Y8544905D01*
X1200294Y8501304D01*
X1220547Y8476251D01*
X1261243Y8443279D01*
X1309143Y8422518D01*
X1358411Y8414275D01*
X1376130Y8413725D01*
X1426079Y8419148D01*
X1474718Y8436994D01*
X1483841Y8442057D01*
X1524442Y8472146D01*
X1556026Y8509749D01*
X1559556Y8515330D01*
X1675572Y8500187D01*
X1578119Y7983858D01*
X1077177Y7983858D01*
X1077177Y8101094D01*
X1479200Y8101094D01*
X1533422Y8371715D01*
X1487459Y8345643D01*
X1440427Y8327019D01*
X1392326Y8315845D01*
X1343157Y8312120D01*
X1287430Y8316515D01*
X1235653Y8329698D01*
X1187827Y8351670D01*
X1143950Y8382432D01*
X1120652Y8403955D01*
X1085249Y8446551D01*
X1058542Y8494196D01*
X1040530Y8546889D01*
X1032012Y8596073D01*
X1029794Y8639894D01*
X1032593Y8690055D01*
X1042935Y8745254D01*
X1060896Y8796877D01*
X1086478Y8844924D01*
X1109417Y8877054D01*
X1148260Y8918805D01*
X1192066Y8951918D01*
X1240836Y8976393D01*
X1294568Y8992230D01*
X1343136Y8998828D01*
X1373932Y8999908D01*
X1423720Y8997203D01*
X1477314Y8987211D01*
X1526068Y8969855D01*
X1569985Y8945136D01*
X1598391Y8922972D01*
X1632772Y8886809D01*
X1660047Y8845855D01*
X1680216Y8800109D01*
X1693279Y8749571D01*
X1697554Y8718540D01*
G37*
G36*
X293157Y8984276D02*
G01*
X570617Y8249594D01*
X439947Y8249594D01*
X283387Y8690452D01*
X266415Y8740148D01*
X250423Y8791171D01*
X236737Y8838708D01*
X222495Y8791779D01*
X206301Y8742907D01*
X190819Y8698757D01*
X28642Y8249594D01*
X-98608Y8249594D01*
X177630Y8984276D01*
X293157Y8984276D01*
G37*
G36*
X-819369Y8867040D02*
G01*
X-819369Y8984276D01*
X-153563Y8984276D01*
X-157521Y8935075D01*
X-167973Y8898303D01*
X-189183Y8851714D01*
X-214676Y8809811D01*
X-246084Y8768337D01*
X-249550Y8764214D01*
X-284953Y8725359D01*
X-323040Y8688097D01*
X-361475Y8653389D01*
X-404678Y8616717D01*
X-411239Y8611318D01*
X-450608Y8578249D01*
X-495139Y8539394D01*
X-534471Y8503293D01*
X-574806Y8463608D01*
X-612399Y8422323D01*
X-633012Y8396140D01*
X-660994Y8352165D01*
X-681344Y8304891D01*
X-690671Y8254818D01*
X-690897Y8245930D01*
X-683478Y8193540D01*
X-661222Y8147745D01*
X-638141Y8120878D01*
X-598287Y8091815D01*
X-550929Y8074816D01*
X-501365Y8069831D01*
X-448977Y8075293D01*
X-399394Y8093919D01*
X-358239Y8125763D01*
X-327699Y8169324D01*
X-310754Y8217791D01*
X-304314Y8268631D01*
X-304017Y8280857D01*
X-177010Y8267424D01*
X-184406Y8215099D01*
X-196886Y8167670D01*
X-217869Y8118521D01*
X-245772Y8076034D01*
X-275196Y8044919D01*
X-315282Y8015035D01*
X-360955Y7992492D01*
X-412214Y7977289D01*
X-460597Y7970099D01*
X-504051Y7968226D01*
X-556244Y7971068D01*
X-611774Y7981569D01*
X-661531Y7999806D01*
X-705514Y8025781D01*
X-733396Y8049071D01*
X-766324Y8086287D01*
X-794053Y8133342D01*
X-811219Y8185220D01*
X-817573Y8234571D01*
X-817904Y8249350D01*
X-813832Y8298441D01*
X-801618Y8346887D01*
X-793235Y8369029D01*
X-770131Y8413885D01*
X-740866Y8456573D01*
X-711169Y8492616D01*
X-672875Y8532986D01*
X-634782Y8569674D01*
X-596346Y8604805D01*
X-552568Y8643336D01*
X-520416Y8670913D01*
X-481532Y8704221D01*
X-443223Y8737675D01*
X-405130Y8772135D01*
X-377534Y8799140D01*
X-345566Y8837214D01*
X-325510Y8867040D01*
X-819369Y8867040D01*
G37*
D14*
G36*
X40198819Y7155806D02*
G01*
X40345365Y7155806D01*
X40346281Y6622746D01*
X39876418Y6622746D01*
X39836118Y6676821D01*
X39800434Y6731656D01*
X39769366Y6787250D01*
X39742915Y6843604D01*
X39729873Y6876148D01*
X39708501Y6941769D01*
X39693236Y7008268D01*
X39684077Y7075645D01*
X39681024Y7143899D01*
X39683825Y7212213D01*
X39692230Y7278166D01*
X39706237Y7341757D01*
X39725846Y7402987D01*
X39751059Y7461856D01*
X39760708Y7480954D01*
X39793205Y7535132D01*
X39830704Y7584094D01*
X39880774Y7634623D01*
X39929110Y7672283D01*
X39982447Y7704726D01*
X39991823Y7709627D01*
X40049740Y7735877D01*
X40110147Y7756696D01*
X40173045Y7772084D01*
X40238432Y7782041D01*
X40306310Y7786567D01*
X40329489Y7786868D01*
X40397896Y7784174D01*
X40464586Y7776092D01*
X40529558Y7762622D01*
X40592813Y7743763D01*
X40654351Y7719517D01*
X40674482Y7710237D01*
X40731680Y7679025D01*
X40783060Y7643089D01*
X40828623Y7602432D01*
X40874427Y7549028D01*
X40912313Y7489197D01*
X40938771Y7433509D01*
X40959755Y7374751D01*
X40975264Y7312924D01*
X40985300Y7248027D01*
X40989862Y7180060D01*
X40990166Y7156722D01*
X40987437Y7090127D01*
X40979251Y7026815D01*
X40965608Y6966785D01*
X40946507Y6910036D01*
X40919221Y6851661D01*
X40882501Y6795692D01*
X40839043Y6749086D01*
X40824691Y6736929D01*
X40771221Y6700603D01*
X40715196Y6673008D01*
X40651684Y6650242D01*
X40621054Y6641675D01*
X40579838Y6791884D01*
X40640281Y6813028D01*
X40695193Y6839797D01*
X40728826Y6862409D01*
X40772228Y6905961D01*
X40805100Y6958856D01*
X40815837Y6982393D01*
X40835744Y7043416D01*
X40846463Y7109247D01*
X40848505Y7155806D01*
X40845703Y7217595D01*
X40836020Y7280528D01*
X40817378Y7342798D01*
X40813090Y7353337D01*
X40783394Y7411340D01*
X40744150Y7464002D01*
X40719972Y7487976D01*
X40671422Y7525623D01*
X40614855Y7557713D01*
X40593576Y7567050D01*
X40532935Y7588154D01*
X40469776Y7603228D01*
X40404097Y7612273D01*
X40335900Y7615288D01*
X40273740Y7613248D01*
X40206158Y7605714D01*
X40143893Y7592628D01*
X40079245Y7570876D01*
X40049525Y7557280D01*
X39995678Y7524994D01*
X39943948Y7480827D01*
X39901589Y7428351D01*
X39878555Y7388752D01*
X39854112Y7332481D01*
X39834961Y7267123D01*
X39824649Y7199592D01*
X39822685Y7153363D01*
X39826799Y7086161D01*
X39839143Y7020032D01*
X39857287Y6961433D01*
X39864817Y6942093D01*
X39891686Y6882488D01*
X39922482Y6828216D01*
X39954576Y6785778D01*
X40198819Y6785778D01*
X40198819Y7155806D01*
G37*
G36*
X40221263Y6459647D02*
G01*
X40292385Y6450694D01*
X40357082Y6434853D01*
X40415353Y6412125D01*
X40476798Y6375761D01*
X40528991Y6329479D01*
X40536790Y6320801D01*
X40576404Y6266907D01*
X40606288Y6208076D01*
X40626443Y6144306D01*
X40636868Y6075599D01*
X40638456Y6034121D01*
X40634098Y5966010D01*
X40621025Y5902730D01*
X40599236Y5844280D01*
X40568732Y5790660D01*
X40529513Y5741870D01*
X40514503Y5726680D01*
X40464807Y5686111D01*
X40408458Y5653937D01*
X40345453Y5630155D01*
X40275794Y5614767D01*
X40212661Y5608355D01*
X40172563Y5607306D01*
X40108925Y5609163D01*
X40041382Y5616023D01*
X39981056Y5627938D01*
X39920950Y5647745D01*
X39894431Y5660124D01*
X39840990Y5693649D01*
X39794697Y5734806D01*
X39755553Y5783595D01*
X39736895Y5813997D01*
X39709887Y5872142D01*
X39691718Y5933233D01*
X39682388Y5997271D01*
X39681024Y6034121D01*
X39808030Y6034121D01*
X39815010Y5972444D01*
X39839136Y5911109D01*
X39880495Y5857347D01*
X39896263Y5842695D01*
X39953211Y5805799D01*
X40016118Y5783140D01*
X40080647Y5771140D01*
X40143004Y5766668D01*
X40165236Y5766369D01*
X40226315Y5769074D01*
X40290195Y5779067D01*
X40353469Y5799503D01*
X40412245Y5833989D01*
X40423522Y5843306D01*
X40466026Y5889381D01*
X40496938Y5947544D01*
X40510677Y6013041D01*
X40511450Y6034121D01*
X40504543Y6096240D01*
X40480667Y6157897D01*
X40439737Y6211802D01*
X40424133Y6226462D01*
X40367941Y6263358D01*
X40306113Y6286017D01*
X40242840Y6298017D01*
X40181792Y6302490D01*
X40160045Y6302788D01*
X40096983Y6300104D01*
X40031279Y6290191D01*
X39966565Y6269917D01*
X39912917Y6240102D01*
X39895652Y6226462D01*
X39853296Y6180389D01*
X39822491Y6121833D01*
X39808800Y6055525D01*
X39808030Y6034121D01*
X39681024Y6034121D01*
X39685360Y6103329D01*
X39698369Y6167386D01*
X39720050Y6226290D01*
X39750404Y6280043D01*
X39789431Y6328643D01*
X39804367Y6343698D01*
X39854441Y6383852D01*
X39912158Y6415698D01*
X39977517Y6439236D01*
X40037820Y6452505D01*
X40103431Y6460005D01*
X40159740Y6461851D01*
X40221263Y6459647D01*
G37*
G36*
X39700564Y5434504D02*
G01*
X40970626Y5434504D01*
X40970626Y5279715D01*
X39700564Y5279715D01*
X39700564Y5434504D01*
G37*
G36*
X40225781Y5095522D02*
G01*
X40289570Y5086993D01*
X40350192Y5072777D01*
X40407647Y5052875D01*
X40466371Y5023688D01*
X40516837Y4987305D01*
X40563223Y4938439D01*
X40578922Y4916404D01*
X40610317Y4857425D01*
X40630084Y4794211D01*
X40638223Y4726764D01*
X40638456Y4712767D01*
X40632460Y4648764D01*
X40612591Y4586486D01*
X40602125Y4565916D01*
X40566336Y4514166D01*
X40522016Y4471649D01*
X40507786Y4461197D01*
X40970626Y4461197D01*
X40970626Y4307629D01*
X39700564Y4307629D01*
X39700564Y4450816D01*
X39815663Y4450816D01*
X39763201Y4492770D01*
X39723625Y4542496D01*
X39696934Y4599993D01*
X39683128Y4665263D01*
X39681780Y4691396D01*
X39808030Y4691396D01*
X39817879Y4625318D01*
X39847425Y4566455D01*
X39891378Y4519204D01*
X39945364Y4484965D01*
X40004989Y4463937D01*
X40066145Y4452801D01*
X40135688Y4448443D01*
X40146307Y4448374D01*
X40213530Y4450918D01*
X40283030Y4460316D01*
X40342917Y4476638D01*
X40399589Y4503772D01*
X40423217Y4520731D01*
X40469746Y4569013D01*
X40499042Y4623795D01*
X40511105Y4685076D01*
X40511450Y4698112D01*
X40503161Y4759298D01*
X40474897Y4818958D01*
X40431797Y4866244D01*
X40426575Y4870609D01*
X40371253Y4903963D01*
X40309062Y4924446D01*
X40244595Y4935295D01*
X40181873Y4939338D01*
X40159435Y4939607D01*
X40096291Y4937010D01*
X40030572Y4927414D01*
X39965948Y4907788D01*
X39906611Y4874671D01*
X39895347Y4865724D01*
X39849301Y4816953D01*
X39820309Y4762994D01*
X39808116Y4697647D01*
X39808030Y4691396D01*
X39681780Y4691396D01*
X39681024Y4706050D01*
X39686927Y4772472D01*
X39704637Y4835494D01*
X39734154Y4895118D01*
X39741474Y4906635D01*
X39779245Y4954747D01*
X39824550Y4996387D01*
X39877390Y5031554D01*
X39910002Y5048295D01*
X39973503Y5072499D01*
X40034206Y5087364D01*
X40098916Y5095969D01*
X40158824Y5098365D01*
X40225781Y5095522D01*
G37*
G36*
X40221263Y4124685D02*
G01*
X40292385Y4115732D01*
X40357082Y4099891D01*
X40415353Y4077164D01*
X40476798Y4040799D01*
X40528991Y3994517D01*
X40536790Y3985839D01*
X40576404Y3931945D01*
X40606288Y3873114D01*
X40626443Y3809345D01*
X40636868Y3740637D01*
X40638456Y3699159D01*
X40634098Y3631049D01*
X40621025Y3567769D01*
X40599236Y3509319D01*
X40568732Y3455698D01*
X40529513Y3406908D01*
X40514503Y3391718D01*
X40464807Y3351150D01*
X40408458Y3318975D01*
X40345453Y3295193D01*
X40275794Y3279805D01*
X40212661Y3273394D01*
X40172563Y3272345D01*
X40108925Y3274201D01*
X40041382Y3281062D01*
X39981056Y3292976D01*
X39920950Y3312783D01*
X39894431Y3325162D01*
X39840990Y3358688D01*
X39794697Y3399845D01*
X39755553Y3448633D01*
X39736895Y3479035D01*
X39709887Y3537180D01*
X39691718Y3598272D01*
X39682388Y3662309D01*
X39681024Y3699159D01*
X39808030Y3699159D01*
X39815010Y3637483D01*
X39839136Y3576148D01*
X39880495Y3522386D01*
X39896263Y3507734D01*
X39953211Y3470838D01*
X40016118Y3448179D01*
X40080647Y3436178D01*
X40143004Y3431706D01*
X40165236Y3431408D01*
X40226315Y3434113D01*
X40290195Y3444105D01*
X40353469Y3464542D01*
X40412245Y3499028D01*
X40423522Y3508344D01*
X40466026Y3554420D01*
X40496938Y3612582D01*
X40510677Y3678080D01*
X40511450Y3699159D01*
X40504543Y3761278D01*
X40480667Y3822935D01*
X40439737Y3876840D01*
X40424133Y3891500D01*
X40367941Y3928396D01*
X40306113Y3951055D01*
X40242840Y3963056D01*
X40181792Y3967528D01*
X40160045Y3967826D01*
X40096983Y3965143D01*
X40031279Y3955229D01*
X39966565Y3934955D01*
X39912917Y3905140D01*
X39895652Y3891500D01*
X39853296Y3845427D01*
X39822491Y3786871D01*
X39808800Y3720563D01*
X39808030Y3699159D01*
X39681024Y3699159D01*
X39685360Y3768367D01*
X39698369Y3832424D01*
X39720050Y3891328D01*
X39750404Y3945081D01*
X39789431Y3993681D01*
X39804367Y4008737D01*
X39854441Y4048890D01*
X39912158Y4080736D01*
X39977517Y4104274D01*
X40037820Y4117543D01*
X40103431Y4125043D01*
X40159740Y4126889D01*
X40221263Y4124685D01*
G37*
G36*
X39700564Y3097711D02*
G01*
X40618917Y3097711D01*
X40618917Y2958493D01*
X40478172Y2958493D01*
X40532894Y2926096D01*
X40584509Y2886387D01*
X40607315Y2860490D01*
X40633317Y2803604D01*
X40638456Y2760961D01*
X40630193Y2697055D01*
X40607896Y2637349D01*
X40588386Y2602203D01*
X40443978Y2655326D01*
X40468936Y2712113D01*
X40477256Y2768899D01*
X40463976Y2830947D01*
X40446420Y2859879D01*
X40398955Y2901191D01*
X40361546Y2917277D01*
X40297303Y2933090D01*
X40234567Y2941175D01*
X40180501Y2943227D01*
X39700564Y2943227D01*
X39700564Y3097711D01*
G37*
G36*
X40005731Y2559164D02*
G01*
X40064951Y2537220D01*
X40068454Y2535342D01*
X40118982Y2500156D01*
X40158214Y2455658D01*
X40189567Y2399574D01*
X40209505Y2344222D01*
X40222221Y2282791D01*
X40231597Y2218141D01*
X40233013Y2206835D01*
X40241786Y2140120D01*
X40252780Y2071050D01*
X40266347Y2003668D01*
X40282887Y1942599D01*
X40286746Y1931146D01*
X40327046Y1930535D01*
X40389572Y1936675D01*
X40445872Y1961616D01*
X40459243Y1974194D01*
X40491056Y2026730D01*
X40507320Y2089145D01*
X40511450Y2150354D01*
X40507872Y2212899D01*
X40494133Y2273235D01*
X40474813Y2311249D01*
X40428123Y2354003D01*
X40367690Y2381507D01*
X40345365Y2388185D01*
X40366125Y2539311D01*
X40426480Y2521935D01*
X40482530Y2495903D01*
X40517861Y2471533D01*
X40560558Y2426181D01*
X40592100Y2372064D01*
X40607010Y2335063D01*
X40624913Y2270208D01*
X40634740Y2205426D01*
X40638333Y2142382D01*
X40638456Y2127762D01*
X40636258Y2065613D01*
X40628662Y2004660D01*
X40612383Y1942771D01*
X40610673Y1938168D01*
X40583884Y1881743D01*
X40543970Y1833181D01*
X40541370Y1831006D01*
X40487263Y1798764D01*
X40435429Y1782769D01*
X40370589Y1776597D01*
X40304930Y1775166D01*
X40292242Y1775136D01*
X40084941Y1775136D01*
X40021092Y1774897D01*
X39954746Y1773981D01*
X39891505Y1772045D01*
X39827617Y1767656D01*
X39810778Y1765366D01*
X39751086Y1749233D01*
X39700564Y1725982D01*
X39700564Y1887488D01*
X39761421Y1909115D01*
X39815968Y1918323D01*
X39777838Y1966097D01*
X39743515Y2018047D01*
X39715540Y2073813D01*
X39711554Y2083798D01*
X39692950Y2144963D01*
X39682932Y2209392D01*
X39682599Y2217215D01*
X39803145Y2217215D01*
X39808684Y2152959D01*
X39827184Y2089742D01*
X39842530Y2058458D01*
X39879564Y2007997D01*
X39930154Y1967291D01*
X39950912Y1956181D01*
X40011565Y1938212D01*
X40076122Y1931757D01*
X40107228Y1931146D01*
X40164625Y1931146D01*
X40144428Y1992010D01*
X40129688Y2052508D01*
X40117823Y2114052D01*
X40106923Y2183632D01*
X40095917Y2247259D01*
X40079774Y2307786D01*
X40075476Y2318576D01*
X40038409Y2369306D01*
X40024491Y2379637D01*
X39964879Y2400257D01*
X39949691Y2401008D01*
X39888813Y2387825D01*
X39844972Y2354297D01*
X39814950Y2300760D01*
X39803799Y2239059D01*
X39803145Y2217215D01*
X39682599Y2217215D01*
X39681024Y2254157D01*
X39684574Y2316558D01*
X39697325Y2379751D01*
X39722755Y2440488D01*
X39755213Y2485272D01*
X39805606Y2527776D01*
X39864049Y2554538D01*
X39930542Y2565557D01*
X39944806Y2565872D01*
X40005731Y2559164D01*
G37*
G36*
X39700564Y1539136D02*
G01*
X40970626Y1539136D01*
X40970626Y1384653D01*
X40245225Y1384653D01*
X40618917Y1018899D01*
X40618917Y818925D01*
X40278198Y1167582D01*
X39700564Y783510D01*
X39700564Y974325D01*
X40170120Y1275659D01*
X40064485Y1384653D01*
X39700564Y1384653D01*
X39700564Y1539136D01*
G37*
D13*
G36*
X56251987Y8918552D02*
G01*
X56251987Y7902502D01*
X56051463Y7902502D01*
X55813082Y8623019D01*
X55797710Y8670173D01*
X55781629Y8720228D01*
X55766929Y8767260D01*
X55764966Y8773716D01*
X55749430Y8724784D01*
X55732338Y8672777D01*
X55715951Y8623822D01*
X55711477Y8610562D01*
X55470409Y7902502D01*
X55291135Y7902502D01*
X55291135Y8918552D01*
X55419607Y8918552D01*
X55419607Y8066633D01*
X55712210Y8918552D01*
X55832377Y8918552D01*
X56123759Y8052223D01*
X56123759Y8918552D01*
X56251987Y8918552D01*
G37*
G36*
X55097451Y8043186D02*
G01*
X55097451Y7902502D01*
X54973864Y7902502D01*
X54973864Y8043186D01*
X55097451Y8043186D01*
G37*
G36*
X55097451Y8918552D02*
G01*
X55097451Y8183870D01*
X54973864Y8183870D01*
X54973864Y8918552D01*
X55097451Y8918552D01*
G37*
G36*
X54787506Y8918552D02*
G01*
X54787506Y8183870D01*
X54676376Y8183870D01*
X54676376Y8286940D01*
X54643727Y8246600D01*
X54606045Y8214606D01*
X54555725Y8187829D01*
X54507141Y8173919D01*
X54453526Y8168354D01*
X54444101Y8168238D01*
X54392294Y8172189D01*
X54344034Y8184040D01*
X54322957Y8192174D01*
X54279820Y8215803D01*
X54243687Y8249905D01*
X54240158Y8254700D01*
X54215521Y8299839D01*
X54201568Y8346536D01*
X54196232Y8397809D01*
X54194789Y8451682D01*
X54194729Y8467436D01*
X54194729Y8918552D01*
X54318316Y8918552D01*
X54318316Y8470611D01*
X54320342Y8418885D01*
X54328575Y8369490D01*
X54332726Y8356794D01*
X54359517Y8315483D01*
X54384017Y8296466D01*
X54429329Y8278099D01*
X54470235Y8273751D01*
X54521932Y8279726D01*
X54568550Y8297648D01*
X54606523Y8324310D01*
X54636790Y8364805D01*
X54654447Y8416465D01*
X54661902Y8466609D01*
X54663920Y8516529D01*
X54663920Y8918552D01*
X54787506Y8918552D01*
G37*
G36*
X54008128Y8043186D02*
G01*
X54008128Y7902502D01*
X53884541Y7902502D01*
X53884541Y8043186D01*
X54008128Y8043186D01*
G37*
G36*
X54008128Y8918552D02*
G01*
X54008128Y8183870D01*
X53884541Y8183870D01*
X53884541Y8918552D01*
X54008128Y8918552D01*
G37*
G36*
X53682552Y7902502D02*
G01*
X53302510Y7902502D01*
X53249910Y7903275D01*
X53200212Y7905946D01*
X53149370Y7912272D01*
X53101180Y7923491D01*
X53055127Y7941786D01*
X53025050Y7959655D01*
X52987593Y7992669D01*
X52956586Y8034953D01*
X52944450Y8057596D01*
X52925697Y8106460D01*
X52916110Y8154390D01*
X52913675Y8195838D01*
X52913973Y8199990D01*
X53051184Y8199990D01*
X53056465Y8150663D01*
X53073962Y8104395D01*
X53083180Y8089592D01*
X53117455Y8053360D01*
X53163953Y8029737D01*
X53167199Y8028776D01*
X53219073Y8021724D01*
X53269755Y8019880D01*
X53291519Y8019739D01*
X53549195Y8019739D01*
X53549195Y8387080D01*
X53288832Y8387080D01*
X53235893Y8384731D01*
X53184179Y8376293D01*
X53137203Y8359465D01*
X53105406Y8337987D01*
X53074535Y8299532D01*
X53056479Y8251667D01*
X53051184Y8199990D01*
X52913973Y8199990D01*
X52917591Y8250472D01*
X52929336Y8301318D01*
X52948913Y8348379D01*
X52976320Y8391652D01*
X52995497Y8414680D01*
X53037593Y8449606D01*
X53083703Y8472716D01*
X53139070Y8489523D01*
X53192280Y8498714D01*
X53251918Y8503529D01*
X53290786Y8504317D01*
X53549195Y8504317D01*
X53549195Y8918552D01*
X53682552Y8918552D01*
X53682552Y7902502D01*
G37*
G36*
X52290368Y8605922D02*
G01*
X52711442Y8605922D01*
X52822084Y8918552D01*
X52963501Y8918552D01*
X52576864Y7902502D01*
X52433250Y7902502D01*
X52192366Y8496501D01*
X52331645Y8496501D01*
X52436669Y8217331D01*
X52453845Y8171209D01*
X52471692Y8121438D01*
X52489197Y8069880D01*
X52505205Y8018665D01*
X52508232Y8008259D01*
X52518765Y8056650D01*
X52531313Y8104857D01*
X52545876Y8152882D01*
X52562454Y8200723D01*
X52673096Y8496501D01*
X52331645Y8496501D01*
X52192366Y8496501D01*
X52021212Y8918552D01*
X52172887Y8918552D01*
X52290368Y8605922D01*
G37*
G36*
X51924003Y8918552D02*
G01*
X51924003Y7902502D01*
X51723480Y7902502D01*
X51485099Y8623019D01*
X51469727Y8670173D01*
X51453646Y8720228D01*
X51438946Y8767260D01*
X51436983Y8773716D01*
X51421447Y8724784D01*
X51404355Y8672777D01*
X51387968Y8623822D01*
X51383494Y8610562D01*
X51142426Y7902502D01*
X50963152Y7902502D01*
X50963152Y8918552D01*
X51091624Y8918552D01*
X51091624Y8066633D01*
X51384227Y8918552D01*
X51504394Y8918552D01*
X51795776Y8052223D01*
X51795776Y8918552D01*
X51924003Y8918552D01*
G37*
G36*
X50731854Y8918552D02*
G01*
X50731854Y7902502D01*
X50598497Y7902502D01*
X50598497Y8918552D01*
X50731854Y8918552D01*
G37*
G36*
X49377039Y8801316D02*
G01*
X49377039Y8918552D01*
X50042845Y8918552D01*
X50038886Y8869351D01*
X50028435Y8832579D01*
X50007225Y8785990D01*
X49981732Y8744087D01*
X49950324Y8702613D01*
X49946857Y8698490D01*
X49911455Y8659635D01*
X49873368Y8622373D01*
X49834933Y8587665D01*
X49791730Y8550993D01*
X49785169Y8545594D01*
X49745800Y8512525D01*
X49701268Y8473670D01*
X49661937Y8437569D01*
X49621602Y8397884D01*
X49584009Y8356599D01*
X49563396Y8330416D01*
X49535414Y8286441D01*
X49515064Y8239167D01*
X49505737Y8189094D01*
X49505511Y8180206D01*
X49512930Y8127816D01*
X49535186Y8082021D01*
X49558267Y8055154D01*
X49598121Y8026091D01*
X49645479Y8009092D01*
X49695043Y8004107D01*
X49747431Y8009569D01*
X49797014Y8028195D01*
X49838169Y8060039D01*
X49868709Y8103600D01*
X49885654Y8152067D01*
X49892094Y8202907D01*
X49892391Y8215133D01*
X50019398Y8201700D01*
X50012002Y8149375D01*
X49999522Y8101946D01*
X49978538Y8052797D01*
X49950636Y8010310D01*
X49921212Y7979195D01*
X49881126Y7949311D01*
X49835453Y7926768D01*
X49784194Y7911565D01*
X49735811Y7904375D01*
X49692356Y7902502D01*
X49640164Y7905344D01*
X49584634Y7915845D01*
X49534877Y7934082D01*
X49490894Y7960057D01*
X49463012Y7983347D01*
X49430084Y8020563D01*
X49402355Y8067618D01*
X49385189Y8119496D01*
X49378834Y8168847D01*
X49378504Y8183626D01*
X49382576Y8232717D01*
X49394789Y8281163D01*
X49403173Y8303305D01*
X49426277Y8348161D01*
X49455542Y8390849D01*
X49485238Y8426892D01*
X49523533Y8467262D01*
X49561625Y8503950D01*
X49600062Y8539081D01*
X49643840Y8577612D01*
X49675992Y8605189D01*
X49714875Y8638497D01*
X49753185Y8671951D01*
X49791278Y8706411D01*
X49818874Y8733416D01*
X49850842Y8771490D01*
X49870898Y8801316D01*
X49377039Y8801316D01*
G37*
G36*
X48972451Y8930500D02*
G01*
X49020444Y8919449D01*
X49070880Y8897245D01*
X49115333Y8865013D01*
X49148672Y8829404D01*
X49177380Y8786144D01*
X49201222Y8735132D01*
X49216793Y8688741D01*
X49229249Y8637389D01*
X49238591Y8581076D01*
X49244820Y8519801D01*
X49247447Y8470590D01*
X49248323Y8418587D01*
X49247428Y8364346D01*
X49244745Y8313515D01*
X49239164Y8257021D01*
X49231006Y8205438D01*
X49218234Y8151465D01*
X49211686Y8130381D01*
X49191033Y8078815D01*
X49165952Y8033539D01*
X49136444Y7994551D01*
X49102510Y7961853D01*
X49058750Y7933163D01*
X49009078Y7913862D01*
X48959963Y7904589D01*
X48920061Y7902502D01*
X48866679Y7906370D01*
X48818030Y7917972D01*
X48777911Y7935231D01*
X48734955Y7963864D01*
X48698044Y8000673D01*
X48676795Y8029753D01*
X48651444Y8075271D01*
X48631905Y8122212D01*
X48617175Y8168986D01*
X48614268Y8179962D01*
X48604331Y8228032D01*
X48597233Y8283826D01*
X48593351Y8338983D01*
X48591754Y8390966D01*
X48591556Y8418343D01*
X48718560Y8418343D01*
X48719468Y8358500D01*
X48722193Y8303900D01*
X48726735Y8254544D01*
X48734966Y8200223D01*
X48748590Y8145852D01*
X48769651Y8097331D01*
X48776690Y8086417D01*
X48811629Y8046629D01*
X48855707Y8017692D01*
X48905319Y8004831D01*
X48921282Y8004107D01*
X48971194Y8011191D01*
X49018329Y8035348D01*
X49054116Y8072184D01*
X49057325Y8076647D01*
X49082259Y8124638D01*
X49098757Y8177697D01*
X49109068Y8230323D01*
X49116255Y8290593D01*
X49119754Y8344313D01*
X49121254Y8402926D01*
X49121317Y8418343D01*
X49120408Y8478022D01*
X49117684Y8532496D01*
X49113142Y8581765D01*
X49104911Y8636030D01*
X49091287Y8690412D01*
X49070226Y8739055D01*
X49063187Y8750025D01*
X49028364Y8789931D01*
X48984686Y8818954D01*
X48935761Y8831853D01*
X48920061Y8832579D01*
X48869433Y8824493D01*
X48824100Y8800236D01*
X48787828Y8764578D01*
X48776690Y8749781D01*
X48754040Y8705621D01*
X48739053Y8655137D01*
X48729687Y8604159D01*
X48723158Y8545084D01*
X48719979Y8491994D01*
X48718617Y8433721D01*
X48718560Y8418343D01*
X48591556Y8418343D01*
X48591554Y8418587D01*
X48592442Y8472483D01*
X48595108Y8523039D01*
X48600652Y8579299D01*
X48608755Y8630750D01*
X48621442Y8684700D01*
X48627946Y8705817D01*
X48648401Y8757306D01*
X48673375Y8802598D01*
X48702868Y8841692D01*
X48736878Y8874589D01*
X48780696Y8903397D01*
X48830542Y8922777D01*
X48879909Y8932089D01*
X48920061Y8934184D01*
X48972451Y8930500D01*
G37*
G36*
X47819747Y8801316D02*
G01*
X47819747Y8918552D01*
X48485553Y8918552D01*
X48481594Y8869351D01*
X48471142Y8832579D01*
X48449932Y8785990D01*
X48424439Y8744087D01*
X48393031Y8702613D01*
X48389565Y8698490D01*
X48354162Y8659635D01*
X48316076Y8622373D01*
X48277641Y8587665D01*
X48234437Y8550993D01*
X48227876Y8545594D01*
X48188507Y8512525D01*
X48143976Y8473670D01*
X48104644Y8437569D01*
X48064310Y8397884D01*
X48026717Y8356599D01*
X48006104Y8330416D01*
X47978122Y8286441D01*
X47957772Y8239167D01*
X47948444Y8189094D01*
X47948218Y8180206D01*
X47955637Y8127816D01*
X47977894Y8082021D01*
X48000975Y8055154D01*
X48040829Y8026091D01*
X48088187Y8009092D01*
X48137751Y8004107D01*
X48190139Y8009569D01*
X48239722Y8028195D01*
X48280877Y8060039D01*
X48311417Y8103600D01*
X48328361Y8152067D01*
X48334801Y8202907D01*
X48335099Y8215133D01*
X48462105Y8201700D01*
X48454709Y8149375D01*
X48442230Y8101946D01*
X48421246Y8052797D01*
X48393343Y8010310D01*
X48363920Y7979195D01*
X48323833Y7949311D01*
X48278161Y7926768D01*
X48226901Y7911565D01*
X48178518Y7904375D01*
X48135064Y7902502D01*
X48082871Y7905344D01*
X48027341Y7915845D01*
X47977585Y7934082D01*
X47933602Y7960057D01*
X47905720Y7983347D01*
X47872792Y8020563D01*
X47845062Y8067618D01*
X47827897Y8119496D01*
X47821542Y8168847D01*
X47821212Y8183626D01*
X47825283Y8232717D01*
X47837497Y8281163D01*
X47845880Y8303305D01*
X47868984Y8348161D01*
X47898249Y8390849D01*
X47927946Y8426892D01*
X47966240Y8467262D01*
X48004333Y8503950D01*
X48042770Y8539081D01*
X48086547Y8577612D01*
X48118700Y8605189D01*
X48157583Y8638497D01*
X48195893Y8671951D01*
X48233985Y8706411D01*
X48261582Y8733416D01*
X48293550Y8771490D01*
X48313606Y8801316D01*
X47819747Y8801316D01*
G37*
G36*
X47691031Y8652816D02*
G01*
X47561093Y8641825D01*
X47549974Y8691540D01*
X47530549Y8738032D01*
X47500586Y8778539D01*
X47494171Y8784707D01*
X47451730Y8813879D01*
X47403175Y8829587D01*
X47367409Y8832579D01*
X47314362Y8825853D01*
X47266659Y8805674D01*
X47224298Y8772043D01*
X47216467Y8763703D01*
X47186478Y8721424D01*
X47166303Y8672074D01*
X47156610Y8622272D01*
X47154429Y8581253D01*
X47158154Y8530008D01*
X47171248Y8479181D01*
X47193771Y8435580D01*
X47214024Y8410527D01*
X47254720Y8377555D01*
X47302620Y8356794D01*
X47351888Y8348551D01*
X47369607Y8348001D01*
X47419556Y8353424D01*
X47468195Y8371270D01*
X47477318Y8376333D01*
X47517919Y8406422D01*
X47549503Y8444025D01*
X47553033Y8449606D01*
X47669049Y8434463D01*
X47571596Y7918134D01*
X47070654Y7918134D01*
X47070654Y8035370D01*
X47472677Y8035370D01*
X47526899Y8305991D01*
X47480936Y8279919D01*
X47433904Y8261295D01*
X47385803Y8250121D01*
X47336634Y8246396D01*
X47280907Y8250791D01*
X47229130Y8263974D01*
X47181304Y8285946D01*
X47137427Y8316708D01*
X47114129Y8338231D01*
X47078726Y8380827D01*
X47052019Y8428472D01*
X47034007Y8481165D01*
X47025489Y8530349D01*
X47023271Y8574170D01*
X47026070Y8624331D01*
X47036412Y8679530D01*
X47054373Y8731153D01*
X47079955Y8779200D01*
X47102894Y8811330D01*
X47141737Y8853081D01*
X47185543Y8886194D01*
X47234313Y8910669D01*
X47288045Y8926506D01*
X47336613Y8933104D01*
X47367409Y8934184D01*
X47417197Y8931479D01*
X47470791Y8921487D01*
X47519545Y8904131D01*
X47563462Y8879412D01*
X47591868Y8857248D01*
X47626249Y8821085D01*
X47653524Y8780131D01*
X47673693Y8734385D01*
X47686756Y8683847D01*
X47691031Y8652816D01*
G37*
G36*
X46286634Y8918552D02*
G01*
X46564094Y8183870D01*
X46433424Y8183870D01*
X46276864Y8624728D01*
X46259892Y8674424D01*
X46243900Y8725447D01*
X46230214Y8772984D01*
X46215972Y8726055D01*
X46199778Y8677183D01*
X46184296Y8633033D01*
X46022119Y8183870D01*
X45894869Y8183870D01*
X46171107Y8918552D01*
X46286634Y8918552D01*
G37*
G36*
X45174108Y8801316D02*
G01*
X45174108Y8918552D01*
X45839914Y8918552D01*
X45835956Y8869351D01*
X45825504Y8832579D01*
X45804294Y8785990D01*
X45778801Y8744087D01*
X45747393Y8702613D01*
X45743927Y8698490D01*
X45708524Y8659635D01*
X45670437Y8622373D01*
X45632002Y8587665D01*
X45588799Y8550993D01*
X45582238Y8545594D01*
X45542869Y8512525D01*
X45498338Y8473670D01*
X45459006Y8437569D01*
X45418671Y8397884D01*
X45381078Y8356599D01*
X45360465Y8330416D01*
X45332483Y8286441D01*
X45312133Y8239167D01*
X45302806Y8189094D01*
X45302580Y8180206D01*
X45309999Y8127816D01*
X45332255Y8082021D01*
X45355336Y8055154D01*
X45395190Y8026091D01*
X45442548Y8009092D01*
X45492112Y8004107D01*
X45544500Y8009569D01*
X45594083Y8028195D01*
X45635238Y8060039D01*
X45665778Y8103600D01*
X45682723Y8152067D01*
X45689163Y8202907D01*
X45689460Y8215133D01*
X45816467Y8201700D01*
X45809071Y8149375D01*
X45796591Y8101946D01*
X45775608Y8052797D01*
X45747705Y8010310D01*
X45718281Y7979195D01*
X45678195Y7949311D01*
X45632522Y7926768D01*
X45581263Y7911565D01*
X45532880Y7904375D01*
X45489426Y7902502D01*
X45437233Y7905344D01*
X45381703Y7915845D01*
X45331946Y7934082D01*
X45287963Y7960057D01*
X45260081Y7983347D01*
X45227153Y8020563D01*
X45199424Y8067618D01*
X45182258Y8119496D01*
X45175904Y8168847D01*
X45175573Y8183626D01*
X45179645Y8232717D01*
X45191859Y8281163D01*
X45200242Y8303305D01*
X45223346Y8348161D01*
X45252611Y8390849D01*
X45282308Y8426892D01*
X45320602Y8467262D01*
X45358695Y8503950D01*
X45397131Y8539081D01*
X45440909Y8577612D01*
X45473061Y8605189D01*
X45511945Y8638497D01*
X45550254Y8671951D01*
X45588347Y8706411D01*
X45615943Y8733416D01*
X45647911Y8771490D01*
X45667967Y8801316D01*
X45174108Y8801316D01*
G37*
G36*
X33258510Y8984276D02*
G01*
X33258510Y7968226D01*
X33057986Y7968226D01*
X32819605Y8688743D01*
X32804233Y8735897D01*
X32788152Y8785952D01*
X32773452Y8832984D01*
X32771489Y8839440D01*
X32755953Y8790508D01*
X32738861Y8738501D01*
X32722474Y8689546D01*
X32718000Y8676286D01*
X32476932Y7968226D01*
X32297658Y7968226D01*
X32297658Y8984276D01*
X32426130Y8984276D01*
X32426130Y8132357D01*
X32718733Y8984276D01*
X32838900Y8984276D01*
X33130282Y8117947D01*
X33130282Y8984276D01*
X33258510Y8984276D01*
G37*
G36*
X32103974Y8108910D02*
G01*
X32103974Y7968226D01*
X31980387Y7968226D01*
X31980387Y8108910D01*
X32103974Y8108910D01*
G37*
G36*
X32103974Y8984276D02*
G01*
X32103974Y8249594D01*
X31980387Y8249594D01*
X31980387Y8984276D01*
X32103974Y8984276D01*
G37*
G36*
X31794029Y8984276D02*
G01*
X31794029Y8249594D01*
X31682899Y8249594D01*
X31682899Y8352664D01*
X31650250Y8312324D01*
X31612568Y8280330D01*
X31562248Y8253553D01*
X31513664Y8239643D01*
X31460049Y8234078D01*
X31450624Y8233962D01*
X31398817Y8237913D01*
X31350557Y8249764D01*
X31329480Y8257898D01*
X31286343Y8281527D01*
X31250210Y8315629D01*
X31246681Y8320424D01*
X31222044Y8365563D01*
X31208091Y8412260D01*
X31202755Y8463533D01*
X31201312Y8517406D01*
X31201252Y8533160D01*
X31201252Y8984276D01*
X31324839Y8984276D01*
X31324839Y8536335D01*
X31326865Y8484609D01*
X31335098Y8435214D01*
X31339249Y8422518D01*
X31366040Y8381207D01*
X31390540Y8362190D01*
X31435852Y8343823D01*
X31476758Y8339475D01*
X31528455Y8345450D01*
X31575073Y8363372D01*
X31613046Y8390034D01*
X31643313Y8430529D01*
X31660970Y8482189D01*
X31668425Y8532333D01*
X31670443Y8582253D01*
X31670443Y8984276D01*
X31794029Y8984276D01*
G37*
G36*
X31014651Y8108910D02*
G01*
X31014651Y7968226D01*
X30891064Y7968226D01*
X30891064Y8108910D01*
X31014651Y8108910D01*
G37*
G36*
X31014651Y8984276D02*
G01*
X31014651Y8249594D01*
X30891064Y8249594D01*
X30891064Y8984276D01*
X31014651Y8984276D01*
G37*
G36*
X30689075Y7968226D02*
G01*
X30309033Y7968226D01*
X30256433Y7968999D01*
X30206735Y7971670D01*
X30155893Y7977996D01*
X30107703Y7989215D01*
X30061650Y8007510D01*
X30031573Y8025379D01*
X29994116Y8058393D01*
X29963109Y8100677D01*
X29950973Y8123320D01*
X29932220Y8172184D01*
X29922633Y8220114D01*
X29920198Y8261562D01*
X29920496Y8265714D01*
X30057707Y8265714D01*
X30062988Y8216387D01*
X30080485Y8170119D01*
X30089703Y8155316D01*
X30123978Y8119084D01*
X30170476Y8095461D01*
X30173722Y8094500D01*
X30225596Y8087448D01*
X30276278Y8085604D01*
X30298042Y8085463D01*
X30555718Y8085463D01*
X30555718Y8452804D01*
X30295355Y8452804D01*
X30242416Y8450455D01*
X30190702Y8442017D01*
X30143726Y8425189D01*
X30111929Y8403711D01*
X30081058Y8365256D01*
X30063002Y8317391D01*
X30057707Y8265714D01*
X29920496Y8265714D01*
X29924114Y8316196D01*
X29935859Y8367042D01*
X29955436Y8414103D01*
X29982843Y8457376D01*
X30002020Y8480404D01*
X30044116Y8515330D01*
X30090226Y8538440D01*
X30145593Y8555247D01*
X30198803Y8564438D01*
X30258441Y8569253D01*
X30297309Y8570041D01*
X30555718Y8570041D01*
X30555718Y8984276D01*
X30689075Y8984276D01*
X30689075Y7968226D01*
G37*
G36*
X29296891Y8671646D02*
G01*
X29717965Y8671646D01*
X29828607Y8984276D01*
X29970024Y8984276D01*
X29583387Y7968226D01*
X29439773Y7968226D01*
X29198889Y8562225D01*
X29338168Y8562225D01*
X29443192Y8283055D01*
X29460368Y8236933D01*
X29478215Y8187162D01*
X29495720Y8135604D01*
X29511728Y8084389D01*
X29514755Y8073983D01*
X29525288Y8122374D01*
X29537836Y8170581D01*
X29552399Y8218606D01*
X29568977Y8266447D01*
X29679619Y8562225D01*
X29338168Y8562225D01*
X29198889Y8562225D01*
X29027735Y8984276D01*
X29179410Y8984276D01*
X29296891Y8671646D01*
G37*
G36*
X28930526Y8984276D02*
G01*
X28930526Y7968226D01*
X28730003Y7968226D01*
X28491622Y8688743D01*
X28476250Y8735897D01*
X28460169Y8785952D01*
X28445469Y8832984D01*
X28443506Y8839440D01*
X28427970Y8790508D01*
X28410878Y8738501D01*
X28394491Y8689546D01*
X28390017Y8676286D01*
X28148949Y7968226D01*
X27969675Y7968226D01*
X27969675Y8984276D01*
X28098147Y8984276D01*
X28098147Y8132357D01*
X28390750Y8984276D01*
X28510917Y8984276D01*
X28802299Y8117947D01*
X28802299Y8984276D01*
X28930526Y8984276D01*
G37*
G36*
X27738377Y8984276D02*
G01*
X27738377Y7968226D01*
X27605020Y7968226D01*
X27605020Y8984276D01*
X27738377Y8984276D01*
G37*
G36*
X26383562Y8867040D02*
G01*
X26383562Y8984276D01*
X27049368Y8984276D01*
X27045409Y8935075D01*
X27034958Y8898303D01*
X27013748Y8851714D01*
X26988255Y8809811D01*
X26956847Y8768337D01*
X26953380Y8764214D01*
X26917978Y8725359D01*
X26879891Y8688097D01*
X26841456Y8653389D01*
X26798253Y8616717D01*
X26791692Y8611318D01*
X26752323Y8578249D01*
X26707791Y8539394D01*
X26668460Y8503293D01*
X26628125Y8463608D01*
X26590532Y8422323D01*
X26569919Y8396140D01*
X26541937Y8352165D01*
X26521587Y8304891D01*
X26512260Y8254818D01*
X26512034Y8245930D01*
X26519453Y8193540D01*
X26541709Y8147745D01*
X26564790Y8120878D01*
X26604644Y8091815D01*
X26652002Y8074816D01*
X26701566Y8069831D01*
X26753954Y8075293D01*
X26803537Y8093919D01*
X26844692Y8125763D01*
X26875232Y8169324D01*
X26892177Y8217791D01*
X26898617Y8268631D01*
X26898914Y8280857D01*
X27025921Y8267424D01*
X27018525Y8215099D01*
X27006045Y8167670D01*
X26985061Y8118521D01*
X26957159Y8076034D01*
X26927735Y8044919D01*
X26887649Y8015035D01*
X26841976Y7992492D01*
X26790717Y7977289D01*
X26742334Y7970099D01*
X26698879Y7968226D01*
X26646687Y7971068D01*
X26591157Y7981569D01*
X26541400Y7999806D01*
X26497417Y8025781D01*
X26469535Y8049071D01*
X26436607Y8086287D01*
X26408878Y8133342D01*
X26391712Y8185220D01*
X26385357Y8234571D01*
X26385027Y8249350D01*
X26389099Y8298441D01*
X26401312Y8346887D01*
X26409696Y8369029D01*
X26432800Y8413885D01*
X26462065Y8456573D01*
X26491761Y8492616D01*
X26530056Y8532986D01*
X26568148Y8569674D01*
X26606585Y8604805D01*
X26650363Y8643336D01*
X26682515Y8670913D01*
X26721398Y8704221D01*
X26759708Y8737675D01*
X26797801Y8772135D01*
X26825397Y8799140D01*
X26857365Y8837214D01*
X26877421Y8867040D01*
X26383562Y8867040D01*
G37*
G36*
X25978974Y8996224D02*
G01*
X26026967Y8985173D01*
X26077403Y8962969D01*
X26121856Y8930737D01*
X26155195Y8895128D01*
X26183903Y8851868D01*
X26207745Y8800856D01*
X26223316Y8754465D01*
X26235772Y8703113D01*
X26245114Y8646800D01*
X26251343Y8585525D01*
X26253970Y8536314D01*
X26254846Y8484311D01*
X26253951Y8430070D01*
X26251268Y8379239D01*
X26245687Y8322745D01*
X26237529Y8271162D01*
X26224757Y8217189D01*
X26218209Y8196105D01*
X26197556Y8144539D01*
X26172475Y8099263D01*
X26142967Y8060275D01*
X26109033Y8027577D01*
X26065273Y7998887D01*
X26015601Y7979586D01*
X25966486Y7970313D01*
X25926584Y7968226D01*
X25873202Y7972094D01*
X25824553Y7983696D01*
X25784434Y8000955D01*
X25741478Y8029588D01*
X25704567Y8066397D01*
X25683318Y8095477D01*
X25657967Y8140995D01*
X25638428Y8187936D01*
X25623698Y8234710D01*
X25620791Y8245686D01*
X25610854Y8293756D01*
X25603756Y8349550D01*
X25599874Y8404707D01*
X25598277Y8456690D01*
X25598079Y8484067D01*
X25725083Y8484067D01*
X25725991Y8424224D01*
X25728716Y8369624D01*
X25733258Y8320268D01*
X25741489Y8265947D01*
X25755113Y8211576D01*
X25776174Y8163055D01*
X25783213Y8152141D01*
X25818152Y8112353D01*
X25862230Y8083416D01*
X25911842Y8070555D01*
X25927805Y8069831D01*
X25977717Y8076915D01*
X26024852Y8101072D01*
X26060639Y8137908D01*
X26063848Y8142371D01*
X26088782Y8190362D01*
X26105280Y8243421D01*
X26115591Y8296047D01*
X26122778Y8356317D01*
X26126277Y8410037D01*
X26127777Y8468650D01*
X26127840Y8484067D01*
X26126931Y8543746D01*
X26124207Y8598220D01*
X26119665Y8647489D01*
X26111434Y8701754D01*
X26097810Y8756136D01*
X26076749Y8804779D01*
X26069710Y8815749D01*
X26034887Y8855655D01*
X25991209Y8884678D01*
X25942284Y8897577D01*
X25926584Y8898303D01*
X25875956Y8890217D01*
X25830623Y8865960D01*
X25794351Y8830302D01*
X25783213Y8815505D01*
X25760563Y8771345D01*
X25745576Y8720861D01*
X25736210Y8669883D01*
X25729681Y8610808D01*
X25726502Y8557718D01*
X25725140Y8499445D01*
X25725083Y8484067D01*
X25598079Y8484067D01*
X25598077Y8484311D01*
X25598965Y8538207D01*
X25601631Y8588763D01*
X25607175Y8645023D01*
X25615278Y8696474D01*
X25627965Y8750424D01*
X25634469Y8771541D01*
X25654924Y8823030D01*
X25679898Y8868322D01*
X25709391Y8907416D01*
X25743401Y8940313D01*
X25787219Y8969121D01*
X25837065Y8988501D01*
X25886432Y8997813D01*
X25926584Y8999908D01*
X25978974Y8996224D01*
G37*
G36*
X24826270Y8867040D02*
G01*
X24826270Y8984276D01*
X25492076Y8984276D01*
X25488117Y8935075D01*
X25477665Y8898303D01*
X25456455Y8851714D01*
X25430962Y8809811D01*
X25399554Y8768337D01*
X25396088Y8764214D01*
X25360685Y8725359D01*
X25322599Y8688097D01*
X25284164Y8653389D01*
X25240960Y8616717D01*
X25234399Y8611318D01*
X25195030Y8578249D01*
X25150499Y8539394D01*
X25111167Y8503293D01*
X25070833Y8463608D01*
X25033240Y8422323D01*
X25012627Y8396140D01*
X24984645Y8352165D01*
X24964295Y8304891D01*
X24954967Y8254818D01*
X24954741Y8245930D01*
X24962160Y8193540D01*
X24984417Y8147745D01*
X25007498Y8120878D01*
X25047352Y8091815D01*
X25094710Y8074816D01*
X25144274Y8069831D01*
X25196662Y8075293D01*
X25246245Y8093919D01*
X25287400Y8125763D01*
X25317940Y8169324D01*
X25334884Y8217791D01*
X25341324Y8268631D01*
X25341622Y8280857D01*
X25468628Y8267424D01*
X25461232Y8215099D01*
X25448753Y8167670D01*
X25427769Y8118521D01*
X25399866Y8076034D01*
X25370443Y8044919D01*
X25330356Y8015035D01*
X25284684Y7992492D01*
X25233424Y7977289D01*
X25185041Y7970099D01*
X25141587Y7968226D01*
X25089394Y7971068D01*
X25033864Y7981569D01*
X24984108Y7999806D01*
X24940125Y8025781D01*
X24912243Y8049071D01*
X24879315Y8086287D01*
X24851585Y8133342D01*
X24834420Y8185220D01*
X24828065Y8234571D01*
X24827735Y8249350D01*
X24831806Y8298441D01*
X24844020Y8346887D01*
X24852403Y8369029D01*
X24875507Y8413885D01*
X24904772Y8456573D01*
X24934469Y8492616D01*
X24972763Y8532986D01*
X25010856Y8569674D01*
X25049293Y8604805D01*
X25093070Y8643336D01*
X25125223Y8670913D01*
X25164106Y8704221D01*
X25202416Y8737675D01*
X25240508Y8772135D01*
X25268105Y8799140D01*
X25300073Y8837214D01*
X25320129Y8867040D01*
X24826270Y8867040D01*
G37*
G36*
X24697554Y8718540D02*
G01*
X24567616Y8707549D01*
X24556497Y8757264D01*
X24537072Y8803756D01*
X24507109Y8844263D01*
X24500694Y8850431D01*
X24458253Y8879603D01*
X24409698Y8895311D01*
X24373932Y8898303D01*
X24320885Y8891577D01*
X24273182Y8871398D01*
X24230821Y8837767D01*
X24222990Y8829427D01*
X24193001Y8787148D01*
X24172826Y8737798D01*
X24163133Y8687996D01*
X24160952Y8646977D01*
X24164677Y8595732D01*
X24177771Y8544905D01*
X24200294Y8501304D01*
X24220547Y8476251D01*
X24261243Y8443279D01*
X24309143Y8422518D01*
X24358411Y8414275D01*
X24376130Y8413725D01*
X24426079Y8419148D01*
X24474718Y8436994D01*
X24483841Y8442057D01*
X24524442Y8472146D01*
X24556026Y8509749D01*
X24559556Y8515330D01*
X24675572Y8500187D01*
X24578119Y7983858D01*
X24077177Y7983858D01*
X24077177Y8101094D01*
X24479200Y8101094D01*
X24533422Y8371715D01*
X24487459Y8345643D01*
X24440427Y8327019D01*
X24392326Y8315845D01*
X24343157Y8312120D01*
X24287430Y8316515D01*
X24235653Y8329698D01*
X24187827Y8351670D01*
X24143950Y8382432D01*
X24120652Y8403955D01*
X24085249Y8446551D01*
X24058542Y8494196D01*
X24040530Y8546889D01*
X24032012Y8596073D01*
X24029794Y8639894D01*
X24032593Y8690055D01*
X24042935Y8745254D01*
X24060896Y8796877D01*
X24086478Y8844924D01*
X24109417Y8877054D01*
X24148260Y8918805D01*
X24192066Y8951918D01*
X24240836Y8976393D01*
X24294568Y8992230D01*
X24343136Y8998828D01*
X24373932Y8999908D01*
X24423720Y8997203D01*
X24477314Y8987211D01*
X24526068Y8969855D01*
X24569985Y8945136D01*
X24598391Y8922972D01*
X24632772Y8886809D01*
X24660047Y8845855D01*
X24680216Y8800109D01*
X24693279Y8749571D01*
X24697554Y8718540D01*
G37*
G36*
X23293157Y8984276D02*
G01*
X23570617Y8249594D01*
X23439947Y8249594D01*
X23283387Y8690452D01*
X23266415Y8740148D01*
X23250423Y8791171D01*
X23236737Y8838708D01*
X23222495Y8791779D01*
X23206301Y8742907D01*
X23190819Y8698757D01*
X23028642Y8249594D01*
X22901392Y8249594D01*
X23177630Y8984276D01*
X23293157Y8984276D01*
G37*
G36*
X22180631Y8867040D02*
G01*
X22180631Y8984276D01*
X22846437Y8984276D01*
X22842479Y8935075D01*
X22832027Y8898303D01*
X22810817Y8851714D01*
X22785324Y8809811D01*
X22753916Y8768337D01*
X22750450Y8764214D01*
X22715047Y8725359D01*
X22676960Y8688097D01*
X22638525Y8653389D01*
X22595322Y8616717D01*
X22588761Y8611318D01*
X22549392Y8578249D01*
X22504861Y8539394D01*
X22465529Y8503293D01*
X22425194Y8463608D01*
X22387601Y8422323D01*
X22366988Y8396140D01*
X22339006Y8352165D01*
X22318656Y8304891D01*
X22309329Y8254818D01*
X22309103Y8245930D01*
X22316522Y8193540D01*
X22338778Y8147745D01*
X22361859Y8120878D01*
X22401713Y8091815D01*
X22449071Y8074816D01*
X22498635Y8069831D01*
X22551023Y8075293D01*
X22600606Y8093919D01*
X22641761Y8125763D01*
X22672301Y8169324D01*
X22689246Y8217791D01*
X22695686Y8268631D01*
X22695983Y8280857D01*
X22822990Y8267424D01*
X22815594Y8215099D01*
X22803114Y8167670D01*
X22782131Y8118521D01*
X22754228Y8076034D01*
X22724804Y8044919D01*
X22684718Y8015035D01*
X22639045Y7992492D01*
X22587786Y7977289D01*
X22539403Y7970099D01*
X22495949Y7968226D01*
X22443756Y7971068D01*
X22388226Y7981569D01*
X22338469Y7999806D01*
X22294486Y8025781D01*
X22266604Y8049071D01*
X22233676Y8086287D01*
X22205947Y8133342D01*
X22188781Y8185220D01*
X22182427Y8234571D01*
X22182096Y8249350D01*
X22186168Y8298441D01*
X22198382Y8346887D01*
X22206765Y8369029D01*
X22229869Y8413885D01*
X22259134Y8456573D01*
X22288831Y8492616D01*
X22327125Y8532986D01*
X22365218Y8569674D01*
X22403654Y8604805D01*
X22447432Y8643336D01*
X22479584Y8670913D01*
X22518468Y8704221D01*
X22556777Y8737675D01*
X22594870Y8772135D01*
X22622466Y8799140D01*
X22654434Y8837214D01*
X22674490Y8867040D01*
X22180631Y8867040D01*
G37*
D14*
G36*
X63192296Y7090082D02*
G01*
X63338842Y7090082D01*
X63339758Y6557022D01*
X62869895Y6557022D01*
X62829595Y6611097D01*
X62793911Y6665932D01*
X62762843Y6721526D01*
X62736392Y6777880D01*
X62723350Y6810424D01*
X62701978Y6876045D01*
X62686713Y6942544D01*
X62677554Y7009921D01*
X62674501Y7078175D01*
X62677302Y7146489D01*
X62685707Y7212442D01*
X62699714Y7276033D01*
X62719323Y7337263D01*
X62744536Y7396132D01*
X62754185Y7415230D01*
X62786682Y7469408D01*
X62824181Y7518370D01*
X62874251Y7568899D01*
X62922587Y7606559D01*
X62975924Y7639002D01*
X62985300Y7643903D01*
X63043217Y7670153D01*
X63103624Y7690972D01*
X63166522Y7706360D01*
X63231909Y7716317D01*
X63299787Y7720843D01*
X63322966Y7721144D01*
X63391373Y7718450D01*
X63458063Y7710368D01*
X63523035Y7696898D01*
X63586290Y7678039D01*
X63647828Y7653793D01*
X63667959Y7644513D01*
X63725157Y7613301D01*
X63776537Y7577365D01*
X63822100Y7536708D01*
X63867904Y7483304D01*
X63905790Y7423473D01*
X63932248Y7367785D01*
X63953232Y7309027D01*
X63968741Y7247200D01*
X63978777Y7182303D01*
X63983339Y7114336D01*
X63983643Y7090998D01*
X63980914Y7024403D01*
X63972728Y6961091D01*
X63959085Y6901061D01*
X63939984Y6844312D01*
X63912698Y6785937D01*
X63875978Y6729968D01*
X63832520Y6683362D01*
X63818168Y6671205D01*
X63764698Y6634879D01*
X63708673Y6607284D01*
X63645161Y6584518D01*
X63614531Y6575951D01*
X63573315Y6726160D01*
X63633758Y6747304D01*
X63688670Y6774073D01*
X63722303Y6796685D01*
X63765705Y6840237D01*
X63798577Y6893132D01*
X63809314Y6916669D01*
X63829221Y6977692D01*
X63839940Y7043523D01*
X63841982Y7090082D01*
X63839180Y7151871D01*
X63829497Y7214804D01*
X63810855Y7277074D01*
X63806567Y7287613D01*
X63776871Y7345616D01*
X63737627Y7398278D01*
X63713449Y7422252D01*
X63664899Y7459899D01*
X63608332Y7491989D01*
X63587053Y7501326D01*
X63526412Y7522430D01*
X63463253Y7537504D01*
X63397574Y7546549D01*
X63329377Y7549564D01*
X63267217Y7547524D01*
X63199635Y7539990D01*
X63137370Y7526904D01*
X63072722Y7505152D01*
X63043002Y7491556D01*
X62989155Y7459270D01*
X62937425Y7415103D01*
X62895066Y7362627D01*
X62872032Y7323028D01*
X62847589Y7266757D01*
X62828438Y7201399D01*
X62818126Y7133868D01*
X62816162Y7087639D01*
X62820276Y7020437D01*
X62832620Y6954308D01*
X62850764Y6895709D01*
X62858294Y6876369D01*
X62885163Y6816764D01*
X62915959Y6762492D01*
X62948053Y6720054D01*
X63192296Y6720054D01*
X63192296Y7090082D01*
G37*
G36*
X63214740Y6393923D02*
G01*
X63285862Y6384970D01*
X63350559Y6369129D01*
X63408830Y6346401D01*
X63470275Y6310037D01*
X63522468Y6263755D01*
X63530267Y6255077D01*
X63569881Y6201183D01*
X63599765Y6142352D01*
X63619920Y6078582D01*
X63630345Y6009875D01*
X63631933Y5968397D01*
X63627575Y5900286D01*
X63614502Y5837006D01*
X63592713Y5778556D01*
X63562209Y5724936D01*
X63522990Y5676146D01*
X63507980Y5660956D01*
X63458284Y5620387D01*
X63401935Y5588213D01*
X63338930Y5564431D01*
X63269271Y5549043D01*
X63206138Y5542631D01*
X63166040Y5541582D01*
X63102402Y5543439D01*
X63034859Y5550299D01*
X62974533Y5562214D01*
X62914427Y5582021D01*
X62887908Y5594400D01*
X62834467Y5627925D01*
X62788174Y5669082D01*
X62749030Y5717871D01*
X62730372Y5748273D01*
X62703364Y5806418D01*
X62685195Y5867509D01*
X62675865Y5931547D01*
X62674501Y5968397D01*
X62801507Y5968397D01*
X62808487Y5906720D01*
X62832613Y5845385D01*
X62873972Y5791623D01*
X62889740Y5776971D01*
X62946688Y5740075D01*
X63009595Y5717416D01*
X63074124Y5705416D01*
X63136481Y5700944D01*
X63158713Y5700645D01*
X63219792Y5703350D01*
X63283672Y5713343D01*
X63346946Y5733779D01*
X63405722Y5768265D01*
X63416999Y5777582D01*
X63459503Y5823657D01*
X63490415Y5881820D01*
X63504154Y5947317D01*
X63504927Y5968397D01*
X63498020Y6030516D01*
X63474144Y6092173D01*
X63433214Y6146078D01*
X63417610Y6160738D01*
X63361418Y6197634D01*
X63299590Y6220293D01*
X63236317Y6232293D01*
X63175269Y6236766D01*
X63153522Y6237064D01*
X63090460Y6234380D01*
X63024756Y6224467D01*
X62960042Y6204193D01*
X62906394Y6174378D01*
X62889129Y6160738D01*
X62846773Y6114665D01*
X62815968Y6056109D01*
X62802277Y5989801D01*
X62801507Y5968397D01*
X62674501Y5968397D01*
X62678837Y6037605D01*
X62691846Y6101662D01*
X62713527Y6160566D01*
X62743881Y6214319D01*
X62782908Y6262919D01*
X62797844Y6277974D01*
X62847918Y6318128D01*
X62905635Y6349974D01*
X62970994Y6373512D01*
X63031297Y6386781D01*
X63096908Y6394281D01*
X63153217Y6396127D01*
X63214740Y6393923D01*
G37*
G36*
X62694041Y5368780D02*
G01*
X63964103Y5368780D01*
X63964103Y5213991D01*
X62694041Y5213991D01*
X62694041Y5368780D01*
G37*
G36*
X63219258Y5029798D02*
G01*
X63283047Y5021269D01*
X63343669Y5007053D01*
X63401124Y4987151D01*
X63459848Y4957964D01*
X63510314Y4921581D01*
X63556700Y4872715D01*
X63572399Y4850680D01*
X63603794Y4791701D01*
X63623561Y4728487D01*
X63631700Y4661040D01*
X63631933Y4647043D01*
X63625937Y4583040D01*
X63606068Y4520762D01*
X63595602Y4500192D01*
X63559813Y4448442D01*
X63515493Y4405925D01*
X63501263Y4395473D01*
X63964103Y4395473D01*
X63964103Y4241905D01*
X62694041Y4241905D01*
X62694041Y4385092D01*
X62809140Y4385092D01*
X62756678Y4427046D01*
X62717102Y4476772D01*
X62690411Y4534269D01*
X62676605Y4599539D01*
X62675257Y4625672D01*
X62801507Y4625672D01*
X62811356Y4559594D01*
X62840902Y4500731D01*
X62884855Y4453480D01*
X62938841Y4419241D01*
X62998466Y4398213D01*
X63059622Y4387077D01*
X63129165Y4382719D01*
X63139784Y4382650D01*
X63207007Y4385194D01*
X63276507Y4394592D01*
X63336394Y4410914D01*
X63393066Y4438048D01*
X63416694Y4455007D01*
X63463223Y4503289D01*
X63492519Y4558071D01*
X63504582Y4619352D01*
X63504927Y4632388D01*
X63496638Y4693574D01*
X63468374Y4753234D01*
X63425274Y4800520D01*
X63420052Y4804885D01*
X63364730Y4838239D01*
X63302539Y4858722D01*
X63238072Y4869571D01*
X63175350Y4873614D01*
X63152912Y4873883D01*
X63089768Y4871286D01*
X63024049Y4861690D01*
X62959425Y4842064D01*
X62900088Y4808947D01*
X62888824Y4800000D01*
X62842778Y4751229D01*
X62813786Y4697270D01*
X62801593Y4631923D01*
X62801507Y4625672D01*
X62675257Y4625672D01*
X62674501Y4640326D01*
X62680404Y4706748D01*
X62698114Y4769770D01*
X62727631Y4829394D01*
X62734951Y4840911D01*
X62772722Y4889023D01*
X62818027Y4930663D01*
X62870867Y4965830D01*
X62903479Y4982571D01*
X62966980Y5006775D01*
X63027683Y5021640D01*
X63092393Y5030245D01*
X63152301Y5032641D01*
X63219258Y5029798D01*
G37*
G36*
X63214740Y4058961D02*
G01*
X63285862Y4050008D01*
X63350559Y4034167D01*
X63408830Y4011440D01*
X63470275Y3975075D01*
X63522468Y3928793D01*
X63530267Y3920115D01*
X63569881Y3866221D01*
X63599765Y3807390D01*
X63619920Y3743621D01*
X63630345Y3674913D01*
X63631933Y3633435D01*
X63627575Y3565325D01*
X63614502Y3502045D01*
X63592713Y3443595D01*
X63562209Y3389974D01*
X63522990Y3341184D01*
X63507980Y3325994D01*
X63458284Y3285426D01*
X63401935Y3253251D01*
X63338930Y3229469D01*
X63269271Y3214081D01*
X63206138Y3207670D01*
X63166040Y3206621D01*
X63102402Y3208477D01*
X63034859Y3215338D01*
X62974533Y3227252D01*
X62914427Y3247059D01*
X62887908Y3259438D01*
X62834467Y3292964D01*
X62788174Y3334121D01*
X62749030Y3382909D01*
X62730372Y3413311D01*
X62703364Y3471456D01*
X62685195Y3532548D01*
X62675865Y3596585D01*
X62674501Y3633435D01*
X62801507Y3633435D01*
X62808487Y3571759D01*
X62832613Y3510424D01*
X62873972Y3456662D01*
X62889740Y3442010D01*
X62946688Y3405114D01*
X63009595Y3382455D01*
X63074124Y3370454D01*
X63136481Y3365982D01*
X63158713Y3365684D01*
X63219792Y3368389D01*
X63283672Y3378381D01*
X63346946Y3398818D01*
X63405722Y3433304D01*
X63416999Y3442620D01*
X63459503Y3488696D01*
X63490415Y3546858D01*
X63504154Y3612356D01*
X63504927Y3633435D01*
X63498020Y3695554D01*
X63474144Y3757211D01*
X63433214Y3811116D01*
X63417610Y3825776D01*
X63361418Y3862672D01*
X63299590Y3885331D01*
X63236317Y3897332D01*
X63175269Y3901804D01*
X63153522Y3902102D01*
X63090460Y3899419D01*
X63024756Y3889505D01*
X62960042Y3869231D01*
X62906394Y3839416D01*
X62889129Y3825776D01*
X62846773Y3779703D01*
X62815968Y3721147D01*
X62802277Y3654839D01*
X62801507Y3633435D01*
X62674501Y3633435D01*
X62678837Y3702643D01*
X62691846Y3766700D01*
X62713527Y3825604D01*
X62743881Y3879357D01*
X62782908Y3927957D01*
X62797844Y3943013D01*
X62847918Y3983166D01*
X62905635Y4015012D01*
X62970994Y4038550D01*
X63031297Y4051819D01*
X63096908Y4059319D01*
X63153217Y4061165D01*
X63214740Y4058961D01*
G37*
G36*
X62694041Y3031987D02*
G01*
X63612394Y3031987D01*
X63612394Y2892769D01*
X63471649Y2892769D01*
X63526371Y2860372D01*
X63577986Y2820663D01*
X63600792Y2794766D01*
X63626794Y2737880D01*
X63631933Y2695237D01*
X63623670Y2631331D01*
X63601373Y2571625D01*
X63581863Y2536479D01*
X63437455Y2589602D01*
X63462413Y2646389D01*
X63470733Y2703175D01*
X63457453Y2765223D01*
X63439897Y2794155D01*
X63392432Y2835467D01*
X63355023Y2851553D01*
X63290780Y2867366D01*
X63228044Y2875451D01*
X63173978Y2877503D01*
X62694041Y2877503D01*
X62694041Y3031987D01*
G37*
G36*
X62999208Y2493440D02*
G01*
X63058428Y2471496D01*
X63061931Y2469618D01*
X63112459Y2434432D01*
X63151691Y2389934D01*
X63183044Y2333850D01*
X63202982Y2278498D01*
X63215698Y2217067D01*
X63225074Y2152417D01*
X63226490Y2141111D01*
X63235263Y2074396D01*
X63246257Y2005326D01*
X63259824Y1937944D01*
X63276364Y1876875D01*
X63280223Y1865422D01*
X63320523Y1864811D01*
X63383049Y1870951D01*
X63439349Y1895892D01*
X63452720Y1908470D01*
X63484533Y1961006D01*
X63500797Y2023421D01*
X63504927Y2084630D01*
X63501349Y2147175D01*
X63487610Y2207511D01*
X63468290Y2245525D01*
X63421600Y2288279D01*
X63361167Y2315783D01*
X63338842Y2322461D01*
X63359602Y2473587D01*
X63419957Y2456211D01*
X63476007Y2430179D01*
X63511338Y2405809D01*
X63554035Y2360457D01*
X63585577Y2306340D01*
X63600487Y2269339D01*
X63618390Y2204484D01*
X63628217Y2139702D01*
X63631810Y2076658D01*
X63631933Y2062038D01*
X63629735Y1999889D01*
X63622139Y1938936D01*
X63605860Y1877047D01*
X63604150Y1872444D01*
X63577361Y1816019D01*
X63537447Y1767457D01*
X63534847Y1765282D01*
X63480740Y1733040D01*
X63428906Y1717045D01*
X63364066Y1710873D01*
X63298407Y1709442D01*
X63285719Y1709412D01*
X63078418Y1709412D01*
X63014569Y1709173D01*
X62948223Y1708257D01*
X62884982Y1706321D01*
X62821094Y1701932D01*
X62804255Y1699642D01*
X62744563Y1683509D01*
X62694041Y1660258D01*
X62694041Y1821764D01*
X62754898Y1843391D01*
X62809445Y1852599D01*
X62771315Y1900373D01*
X62736992Y1952323D01*
X62709017Y2008089D01*
X62705031Y2018074D01*
X62686427Y2079239D01*
X62676409Y2143668D01*
X62676076Y2151491D01*
X62796622Y2151491D01*
X62802161Y2087235D01*
X62820661Y2024018D01*
X62836007Y1992734D01*
X62873041Y1942273D01*
X62923631Y1901567D01*
X62944389Y1890457D01*
X63005042Y1872488D01*
X63069599Y1866033D01*
X63100705Y1865422D01*
X63158102Y1865422D01*
X63137905Y1926286D01*
X63123165Y1986784D01*
X63111300Y2048328D01*
X63100400Y2117908D01*
X63089394Y2181535D01*
X63073251Y2242062D01*
X63068953Y2252852D01*
X63031886Y2303582D01*
X63017968Y2313913D01*
X62958356Y2334533D01*
X62943168Y2335284D01*
X62882290Y2322101D01*
X62838449Y2288573D01*
X62808427Y2235036D01*
X62797276Y2173335D01*
X62796622Y2151491D01*
X62676076Y2151491D01*
X62674501Y2188433D01*
X62678051Y2250834D01*
X62690802Y2314027D01*
X62716232Y2374764D01*
X62748690Y2419548D01*
X62799083Y2462052D01*
X62857526Y2488814D01*
X62924019Y2499833D01*
X62938283Y2500148D01*
X62999208Y2493440D01*
G37*
G36*
X62694041Y1473412D02*
G01*
X63964103Y1473412D01*
X63964103Y1318929D01*
X63238702Y1318929D01*
X63612394Y953175D01*
X63612394Y753201D01*
X63271675Y1101858D01*
X62694041Y717786D01*
X62694041Y908601D01*
X63163597Y1209935D01*
X63057962Y1318929D01*
X62694041Y1318929D01*
X62694041Y1473412D01*
G37*
G36*
X17198819Y7155806D02*
G01*
X17345365Y7155806D01*
X17346281Y6622746D01*
X16876418Y6622746D01*
X16836118Y6676821D01*
X16800434Y6731656D01*
X16769366Y6787250D01*
X16742915Y6843604D01*
X16729873Y6876148D01*
X16708501Y6941769D01*
X16693236Y7008268D01*
X16684077Y7075645D01*
X16681024Y7143899D01*
X16683825Y7212213D01*
X16692230Y7278166D01*
X16706237Y7341757D01*
X16725846Y7402987D01*
X16751059Y7461856D01*
X16760708Y7480954D01*
X16793205Y7535132D01*
X16830704Y7584094D01*
X16880774Y7634623D01*
X16929110Y7672283D01*
X16982447Y7704726D01*
X16991823Y7709627D01*
X17049740Y7735877D01*
X17110147Y7756696D01*
X17173045Y7772084D01*
X17238432Y7782041D01*
X17306310Y7786567D01*
X17329489Y7786868D01*
X17397896Y7784174D01*
X17464586Y7776092D01*
X17529558Y7762622D01*
X17592813Y7743763D01*
X17654351Y7719517D01*
X17674482Y7710237D01*
X17731680Y7679025D01*
X17783060Y7643089D01*
X17828623Y7602432D01*
X17874427Y7549028D01*
X17912313Y7489197D01*
X17938771Y7433509D01*
X17959755Y7374751D01*
X17975264Y7312924D01*
X17985300Y7248027D01*
X17989862Y7180060D01*
X17990166Y7156722D01*
X17987437Y7090127D01*
X17979251Y7026815D01*
X17965608Y6966785D01*
X17946507Y6910036D01*
X17919221Y6851661D01*
X17882501Y6795692D01*
X17839043Y6749086D01*
X17824691Y6736929D01*
X17771221Y6700603D01*
X17715196Y6673008D01*
X17651684Y6650242D01*
X17621054Y6641675D01*
X17579838Y6791884D01*
X17640281Y6813028D01*
X17695193Y6839797D01*
X17728826Y6862409D01*
X17772228Y6905961D01*
X17805100Y6958856D01*
X17815837Y6982393D01*
X17835744Y7043416D01*
X17846463Y7109247D01*
X17848505Y7155806D01*
X17845703Y7217595D01*
X17836020Y7280528D01*
X17817378Y7342798D01*
X17813090Y7353337D01*
X17783394Y7411340D01*
X17744150Y7464002D01*
X17719972Y7487976D01*
X17671422Y7525623D01*
X17614855Y7557713D01*
X17593576Y7567050D01*
X17532935Y7588154D01*
X17469776Y7603228D01*
X17404097Y7612273D01*
X17335900Y7615288D01*
X17273740Y7613248D01*
X17206158Y7605714D01*
X17143893Y7592628D01*
X17079245Y7570876D01*
X17049525Y7557280D01*
X16995678Y7524994D01*
X16943948Y7480827D01*
X16901589Y7428351D01*
X16878555Y7388752D01*
X16854112Y7332481D01*
X16834961Y7267123D01*
X16824649Y7199592D01*
X16822685Y7153363D01*
X16826799Y7086161D01*
X16839143Y7020032D01*
X16857287Y6961433D01*
X16864817Y6942093D01*
X16891686Y6882488D01*
X16922482Y6828216D01*
X16954576Y6785778D01*
X17198819Y6785778D01*
X17198819Y7155806D01*
G37*
G36*
X17221263Y6459647D02*
G01*
X17292385Y6450694D01*
X17357082Y6434853D01*
X17415353Y6412125D01*
X17476798Y6375761D01*
X17528991Y6329479D01*
X17536790Y6320801D01*
X17576404Y6266907D01*
X17606288Y6208076D01*
X17626443Y6144306D01*
X17636868Y6075599D01*
X17638456Y6034121D01*
X17634098Y5966010D01*
X17621025Y5902730D01*
X17599236Y5844280D01*
X17568732Y5790660D01*
X17529513Y5741870D01*
X17514503Y5726680D01*
X17464807Y5686111D01*
X17408458Y5653937D01*
X17345453Y5630155D01*
X17275794Y5614767D01*
X17212661Y5608355D01*
X17172563Y5607306D01*
X17108925Y5609163D01*
X17041382Y5616023D01*
X16981056Y5627938D01*
X16920950Y5647745D01*
X16894431Y5660124D01*
X16840990Y5693649D01*
X16794697Y5734806D01*
X16755553Y5783595D01*
X16736895Y5813997D01*
X16709887Y5872142D01*
X16691718Y5933233D01*
X16682388Y5997271D01*
X16681024Y6034121D01*
X16808030Y6034121D01*
X16815010Y5972444D01*
X16839136Y5911109D01*
X16880495Y5857347D01*
X16896263Y5842695D01*
X16953211Y5805799D01*
X17016118Y5783140D01*
X17080647Y5771140D01*
X17143004Y5766668D01*
X17165236Y5766369D01*
X17226315Y5769074D01*
X17290195Y5779067D01*
X17353469Y5799503D01*
X17412245Y5833989D01*
X17423522Y5843306D01*
X17466026Y5889381D01*
X17496938Y5947544D01*
X17510677Y6013041D01*
X17511450Y6034121D01*
X17504543Y6096240D01*
X17480667Y6157897D01*
X17439737Y6211802D01*
X17424133Y6226462D01*
X17367941Y6263358D01*
X17306113Y6286017D01*
X17242840Y6298017D01*
X17181792Y6302490D01*
X17160045Y6302788D01*
X17096983Y6300104D01*
X17031279Y6290191D01*
X16966565Y6269917D01*
X16912917Y6240102D01*
X16895652Y6226462D01*
X16853296Y6180389D01*
X16822491Y6121833D01*
X16808800Y6055525D01*
X16808030Y6034121D01*
X16681024Y6034121D01*
X16685360Y6103329D01*
X16698369Y6167386D01*
X16720050Y6226290D01*
X16750404Y6280043D01*
X16789431Y6328643D01*
X16804367Y6343698D01*
X16854441Y6383852D01*
X16912158Y6415698D01*
X16977517Y6439236D01*
X17037820Y6452505D01*
X17103431Y6460005D01*
X17159740Y6461851D01*
X17221263Y6459647D01*
G37*
G36*
X16700564Y5434504D02*
G01*
X17970626Y5434504D01*
X17970626Y5279715D01*
X16700564Y5279715D01*
X16700564Y5434504D01*
G37*
G36*
X17225781Y5095522D02*
G01*
X17289570Y5086993D01*
X17350192Y5072777D01*
X17407647Y5052875D01*
X17466371Y5023688D01*
X17516837Y4987305D01*
X17563223Y4938439D01*
X17578922Y4916404D01*
X17610317Y4857425D01*
X17630084Y4794211D01*
X17638223Y4726764D01*
X17638456Y4712767D01*
X17632460Y4648764D01*
X17612591Y4586486D01*
X17602125Y4565916D01*
X17566336Y4514166D01*
X17522016Y4471649D01*
X17507786Y4461197D01*
X17970626Y4461197D01*
X17970626Y4307629D01*
X16700564Y4307629D01*
X16700564Y4450816D01*
X16815663Y4450816D01*
X16763201Y4492770D01*
X16723625Y4542496D01*
X16696934Y4599993D01*
X16683128Y4665263D01*
X16681780Y4691396D01*
X16808030Y4691396D01*
X16817879Y4625318D01*
X16847425Y4566455D01*
X16891378Y4519204D01*
X16945364Y4484965D01*
X17004989Y4463937D01*
X17066145Y4452801D01*
X17135688Y4448443D01*
X17146307Y4448374D01*
X17213530Y4450918D01*
X17283030Y4460316D01*
X17342917Y4476638D01*
X17399589Y4503772D01*
X17423217Y4520731D01*
X17469746Y4569013D01*
X17499042Y4623795D01*
X17511105Y4685076D01*
X17511450Y4698112D01*
X17503161Y4759298D01*
X17474897Y4818958D01*
X17431797Y4866244D01*
X17426575Y4870609D01*
X17371253Y4903963D01*
X17309062Y4924446D01*
X17244595Y4935295D01*
X17181873Y4939338D01*
X17159435Y4939607D01*
X17096291Y4937010D01*
X17030572Y4927414D01*
X16965948Y4907788D01*
X16906611Y4874671D01*
X16895347Y4865724D01*
X16849301Y4816953D01*
X16820309Y4762994D01*
X16808116Y4697647D01*
X16808030Y4691396D01*
X16681780Y4691396D01*
X16681024Y4706050D01*
X16686927Y4772472D01*
X16704637Y4835494D01*
X16734154Y4895118D01*
X16741474Y4906635D01*
X16779245Y4954747D01*
X16824550Y4996387D01*
X16877390Y5031554D01*
X16910002Y5048295D01*
X16973503Y5072499D01*
X17034206Y5087364D01*
X17098916Y5095969D01*
X17158824Y5098365D01*
X17225781Y5095522D01*
G37*
G36*
X17221263Y4124685D02*
G01*
X17292385Y4115732D01*
X17357082Y4099891D01*
X17415353Y4077164D01*
X17476798Y4040799D01*
X17528991Y3994517D01*
X17536790Y3985839D01*
X17576404Y3931945D01*
X17606288Y3873114D01*
X17626443Y3809345D01*
X17636868Y3740637D01*
X17638456Y3699159D01*
X17634098Y3631049D01*
X17621025Y3567769D01*
X17599236Y3509319D01*
X17568732Y3455698D01*
X17529513Y3406908D01*
X17514503Y3391718D01*
X17464807Y3351150D01*
X17408458Y3318975D01*
X17345453Y3295193D01*
X17275794Y3279805D01*
X17212661Y3273394D01*
X17172563Y3272345D01*
X17108925Y3274201D01*
X17041382Y3281062D01*
X16981056Y3292976D01*
X16920950Y3312783D01*
X16894431Y3325162D01*
X16840990Y3358688D01*
X16794697Y3399845D01*
X16755553Y3448633D01*
X16736895Y3479035D01*
X16709887Y3537180D01*
X16691718Y3598272D01*
X16682388Y3662309D01*
X16681024Y3699159D01*
X16808030Y3699159D01*
X16815010Y3637483D01*
X16839136Y3576148D01*
X16880495Y3522386D01*
X16896263Y3507734D01*
X16953211Y3470838D01*
X17016118Y3448179D01*
X17080647Y3436178D01*
X17143004Y3431706D01*
X17165236Y3431408D01*
X17226315Y3434113D01*
X17290195Y3444105D01*
X17353469Y3464542D01*
X17412245Y3499028D01*
X17423522Y3508344D01*
X17466026Y3554420D01*
X17496938Y3612582D01*
X17510677Y3678080D01*
X17511450Y3699159D01*
X17504543Y3761278D01*
X17480667Y3822935D01*
X17439737Y3876840D01*
X17424133Y3891500D01*
X17367941Y3928396D01*
X17306113Y3951055D01*
X17242840Y3963056D01*
X17181792Y3967528D01*
X17160045Y3967826D01*
X17096983Y3965143D01*
X17031279Y3955229D01*
X16966565Y3934955D01*
X16912917Y3905140D01*
X16895652Y3891500D01*
X16853296Y3845427D01*
X16822491Y3786871D01*
X16808800Y3720563D01*
X16808030Y3699159D01*
X16681024Y3699159D01*
X16685360Y3768367D01*
X16698369Y3832424D01*
X16720050Y3891328D01*
X16750404Y3945081D01*
X16789431Y3993681D01*
X16804367Y4008737D01*
X16854441Y4048890D01*
X16912158Y4080736D01*
X16977517Y4104274D01*
X17037820Y4117543D01*
X17103431Y4125043D01*
X17159740Y4126889D01*
X17221263Y4124685D01*
G37*
G36*
X16700564Y3097711D02*
G01*
X17618917Y3097711D01*
X17618917Y2958493D01*
X17478172Y2958493D01*
X17532894Y2926096D01*
X17584509Y2886387D01*
X17607315Y2860490D01*
X17633317Y2803604D01*
X17638456Y2760961D01*
X17630193Y2697055D01*
X17607896Y2637349D01*
X17588386Y2602203D01*
X17443978Y2655326D01*
X17468936Y2712113D01*
X17477256Y2768899D01*
X17463976Y2830947D01*
X17446420Y2859879D01*
X17398955Y2901191D01*
X17361546Y2917277D01*
X17297303Y2933090D01*
X17234567Y2941175D01*
X17180501Y2943227D01*
X16700564Y2943227D01*
X16700564Y3097711D01*
G37*
G36*
X17005731Y2559164D02*
G01*
X17064951Y2537220D01*
X17068454Y2535342D01*
X17118982Y2500156D01*
X17158214Y2455658D01*
X17189567Y2399574D01*
X17209505Y2344222D01*
X17222221Y2282791D01*
X17231597Y2218141D01*
X17233013Y2206835D01*
X17241786Y2140120D01*
X17252780Y2071050D01*
X17266347Y2003668D01*
X17282887Y1942599D01*
X17286746Y1931146D01*
X17327046Y1930535D01*
X17389572Y1936675D01*
X17445872Y1961616D01*
X17459243Y1974194D01*
X17491056Y2026730D01*
X17507320Y2089145D01*
X17511450Y2150354D01*
X17507872Y2212899D01*
X17494133Y2273235D01*
X17474813Y2311249D01*
X17428123Y2354003D01*
X17367690Y2381507D01*
X17345365Y2388185D01*
X17366125Y2539311D01*
X17426480Y2521935D01*
X17482530Y2495903D01*
X17517861Y2471533D01*
X17560558Y2426181D01*
X17592100Y2372064D01*
X17607010Y2335063D01*
X17624913Y2270208D01*
X17634740Y2205426D01*
X17638333Y2142382D01*
X17638456Y2127762D01*
X17636258Y2065613D01*
X17628662Y2004660D01*
X17612383Y1942771D01*
X17610673Y1938168D01*
X17583884Y1881743D01*
X17543970Y1833181D01*
X17541370Y1831006D01*
X17487263Y1798764D01*
X17435429Y1782769D01*
X17370589Y1776597D01*
X17304930Y1775166D01*
X17292242Y1775136D01*
X17084941Y1775136D01*
X17021092Y1774897D01*
X16954746Y1773981D01*
X16891505Y1772045D01*
X16827617Y1767656D01*
X16810778Y1765366D01*
X16751086Y1749233D01*
X16700564Y1725982D01*
X16700564Y1887488D01*
X16761421Y1909115D01*
X16815968Y1918323D01*
X16777838Y1966097D01*
X16743515Y2018047D01*
X16715540Y2073813D01*
X16711554Y2083798D01*
X16692950Y2144963D01*
X16682932Y2209392D01*
X16682599Y2217215D01*
X16803145Y2217215D01*
X16808684Y2152959D01*
X16827184Y2089742D01*
X16842530Y2058458D01*
X16879564Y2007997D01*
X16930154Y1967291D01*
X16950912Y1956181D01*
X17011565Y1938212D01*
X17076122Y1931757D01*
X17107228Y1931146D01*
X17164625Y1931146D01*
X17144428Y1992010D01*
X17129688Y2052508D01*
X17117823Y2114052D01*
X17106923Y2183632D01*
X17095917Y2247259D01*
X17079774Y2307786D01*
X17075476Y2318576D01*
X17038409Y2369306D01*
X17024491Y2379637D01*
X16964879Y2400257D01*
X16949691Y2401008D01*
X16888813Y2387825D01*
X16844972Y2354297D01*
X16814950Y2300760D01*
X16803799Y2239059D01*
X16803145Y2217215D01*
X16682599Y2217215D01*
X16681024Y2254157D01*
X16684574Y2316558D01*
X16697325Y2379751D01*
X16722755Y2440488D01*
X16755213Y2485272D01*
X16805606Y2527776D01*
X16864049Y2554538D01*
X16930542Y2565557D01*
X16944806Y2565872D01*
X17005731Y2559164D01*
G37*
G36*
X16700564Y1539136D02*
G01*
X17970626Y1539136D01*
X17970626Y1384653D01*
X17245225Y1384653D01*
X17618917Y1018899D01*
X17618917Y818925D01*
X17278198Y1167582D01*
X16700564Y783510D01*
X16700564Y974325D01*
X17170120Y1275659D01*
X17064485Y1384653D01*
X16700564Y1384653D01*
X16700564Y1539136D01*
G37*
D11*
X11112285Y-12383332D02*
X10731332Y-12649999D01*
X11112285Y-12840475D02*
X10312285Y-12840475D01*
X10312285Y-12840475D02*
X10312285Y-12535713D01*
X10312285Y-12535713D02*
X10350380Y-12459523D01*
X10350380Y-12459523D02*
X10388475Y-12421428D01*
X10388475Y-12421428D02*
X10464666Y-12383332D01*
X10464666Y-12383332D02*
X10578951Y-12383332D01*
X10578951Y-12383332D02*
X10655142Y-12421428D01*
X10655142Y-12421428D02*
X10693237Y-12459523D01*
X10693237Y-12459523D02*
X10731332Y-12535713D01*
X10731332Y-12535713D02*
X10731332Y-12840475D01*
X10388475Y-12078571D02*
X10350380Y-12040475D01*
X10350380Y-12040475D02*
X10312285Y-11964285D01*
X10312285Y-11964285D02*
X10312285Y-11773809D01*
X10312285Y-11773809D02*
X10350380Y-11697618D01*
X10350380Y-11697618D02*
X10388475Y-11659523D01*
X10388475Y-11659523D02*
X10464666Y-11621428D01*
X10464666Y-11621428D02*
X10540856Y-11621428D01*
X10540856Y-11621428D02*
X10655142Y-11659523D01*
X10655142Y-11659523D02*
X11112285Y-12116666D01*
X11112285Y-12116666D02*
X11112285Y-11621428D01*
X11112285Y-14433332D02*
X10731332Y-14699999D01*
X11112285Y-14890475D02*
X10312285Y-14890475D01*
X10312285Y-14890475D02*
X10312285Y-14585713D01*
X10312285Y-14585713D02*
X10350380Y-14509523D01*
X10350380Y-14509523D02*
X10388475Y-14471428D01*
X10388475Y-14471428D02*
X10464666Y-14433332D01*
X10464666Y-14433332D02*
X10578951Y-14433332D01*
X10578951Y-14433332D02*
X10655142Y-14471428D01*
X10655142Y-14471428D02*
X10693237Y-14509523D01*
X10693237Y-14509523D02*
X10731332Y-14585713D01*
X10731332Y-14585713D02*
X10731332Y-14890475D01*
X11112285Y-13671428D02*
X11112285Y-14128571D01*
X11112285Y-13899999D02*
X10312285Y-13899999D01*
X10312285Y-13899999D02*
X10426570Y-13976190D01*
X10426570Y-13976190D02*
X10502761Y-14052380D01*
X10502761Y-14052380D02*
X10540856Y-14128571D01*
D10*
X-372317Y-9472419D02*
X-943745Y-9472419D01*
X-658031Y-9472419D02*
X-658031Y-8472419D01*
X-658031Y-8472419D02*
X-753269Y-8615276D01*
X-753269Y-8615276D02*
X-848507Y-8710514D01*
X-848507Y-8710514D02*
X-943745Y-8758133D01*
X-943745Y-10567657D02*
X-896126Y-10520038D01*
X-896126Y-10520038D02*
X-800888Y-10472419D01*
X-800888Y-10472419D02*
X-562793Y-10472419D01*
X-562793Y-10472419D02*
X-467555Y-10520038D01*
X-467555Y-10520038D02*
X-419936Y-10567657D01*
X-419936Y-10567657D02*
X-372317Y-10662895D01*
X-372317Y-10662895D02*
X-372317Y-10758133D01*
X-372317Y-10758133D02*
X-419936Y-10900990D01*
X-419936Y-10900990D02*
X-991364Y-11472419D01*
X-991364Y-11472419D02*
X-372317Y-11472419D01*
D14*
G36*
X-109242Y-7576409D02*
G01*
X-1289527Y-7576409D01*
X-1289527Y-6966757D01*
X-1178416Y-6966757D01*
X-1178416Y-7005775D01*
X-1163484Y-7041823D01*
X-1135894Y-7069413D01*
X-1099846Y-7084345D01*
X-1080337Y-7086266D01*
X-799385Y-7086266D01*
X-799385Y-7367219D01*
X-797464Y-7386728D01*
X-782532Y-7422776D01*
X-754942Y-7450366D01*
X-718894Y-7465298D01*
X-679876Y-7465298D01*
X-643828Y-7450366D01*
X-616238Y-7422776D01*
X-601306Y-7386728D01*
X-599385Y-7367219D01*
X-599385Y-7086266D01*
X-318432Y-7086266D01*
X-298923Y-7084345D01*
X-262875Y-7069413D01*
X-235285Y-7041823D01*
X-220353Y-7005775D01*
X-220353Y-6966757D01*
X-235285Y-6930709D01*
X-262875Y-6903119D01*
X-298923Y-6888187D01*
X-318432Y-6886266D01*
X-599385Y-6886266D01*
X-599385Y-6605314D01*
X-601306Y-6585805D01*
X-616238Y-6549757D01*
X-643828Y-6522167D01*
X-679876Y-6507235D01*
X-718894Y-6507235D01*
X-754942Y-6522167D01*
X-782532Y-6549757D01*
X-797464Y-6585805D01*
X-799385Y-6605314D01*
X-799385Y-6886266D01*
X-1080337Y-6886266D01*
X-1099846Y-6888187D01*
X-1135894Y-6903119D01*
X-1163484Y-6930709D01*
X-1178416Y-6966757D01*
X-1289527Y-6966757D01*
X-1289527Y-6396124D01*
X-109242Y-6396124D01*
X-109242Y-7576409D01*
G37*
D11*
X34227284Y-13383332D02*
X34265380Y-13421428D01*
X34265380Y-13421428D02*
X34303475Y-13535713D01*
X34303475Y-13535713D02*
X34303475Y-13611904D01*
X34303475Y-13611904D02*
X34265380Y-13726190D01*
X34265380Y-13726190D02*
X34189189Y-13802380D01*
X34189189Y-13802380D02*
X34112999Y-13840475D01*
X34112999Y-13840475D02*
X33960618Y-13878571D01*
X33960618Y-13878571D02*
X33846332Y-13878571D01*
X33846332Y-13878571D02*
X33693951Y-13840475D01*
X33693951Y-13840475D02*
X33617760Y-13802380D01*
X33617760Y-13802380D02*
X33541570Y-13726190D01*
X33541570Y-13726190D02*
X33503475Y-13611904D01*
X33503475Y-13611904D02*
X33503475Y-13535713D01*
X33503475Y-13535713D02*
X33541570Y-13421428D01*
X33541570Y-13421428D02*
X33579665Y-13383332D01*
X33503475Y-13116666D02*
X33503475Y-12621428D01*
X33503475Y-12621428D02*
X33808237Y-12888094D01*
X33808237Y-12888094D02*
X33808237Y-12773809D01*
X33808237Y-12773809D02*
X33846332Y-12697618D01*
X33846332Y-12697618D02*
X33884427Y-12659523D01*
X33884427Y-12659523D02*
X33960618Y-12621428D01*
X33960618Y-12621428D02*
X34151094Y-12621428D01*
X34151094Y-12621428D02*
X34227284Y-12659523D01*
X34227284Y-12659523D02*
X34265380Y-12697618D01*
X34265380Y-12697618D02*
X34303475Y-12773809D01*
X34303475Y-12773809D02*
X34303475Y-13002380D01*
X34303475Y-13002380D02*
X34265380Y-13078571D01*
X34265380Y-13078571D02*
X34227284Y-13116666D01*
X31677284Y-14533332D02*
X31715380Y-14571428D01*
X31715380Y-14571428D02*
X31753475Y-14685713D01*
X31753475Y-14685713D02*
X31753475Y-14761904D01*
X31753475Y-14761904D02*
X31715380Y-14876190D01*
X31715380Y-14876190D02*
X31639189Y-14952380D01*
X31639189Y-14952380D02*
X31562999Y-14990475D01*
X31562999Y-14990475D02*
X31410618Y-15028571D01*
X31410618Y-15028571D02*
X31296332Y-15028571D01*
X31296332Y-15028571D02*
X31143951Y-14990475D01*
X31143951Y-14990475D02*
X31067760Y-14952380D01*
X31067760Y-14952380D02*
X30991570Y-14876190D01*
X30991570Y-14876190D02*
X30953475Y-14761904D01*
X30953475Y-14761904D02*
X30953475Y-14685713D01*
X30953475Y-14685713D02*
X30991570Y-14571428D01*
X30991570Y-14571428D02*
X31029665Y-14533332D01*
X31029665Y-14228571D02*
X30991570Y-14190475D01*
X30991570Y-14190475D02*
X30953475Y-14114285D01*
X30953475Y-14114285D02*
X30953475Y-13923809D01*
X30953475Y-13923809D02*
X30991570Y-13847618D01*
X30991570Y-13847618D02*
X31029665Y-13809523D01*
X31029665Y-13809523D02*
X31105856Y-13771428D01*
X31105856Y-13771428D02*
X31182046Y-13771428D01*
X31182046Y-13771428D02*
X31296332Y-13809523D01*
X31296332Y-13809523D02*
X31753475Y-14266666D01*
X31753475Y-14266666D02*
X31753475Y-13771428D01*
X35903475Y-12383332D02*
X35522522Y-12649999D01*
X35903475Y-12840475D02*
X35103475Y-12840475D01*
X35103475Y-12840475D02*
X35103475Y-12535713D01*
X35103475Y-12535713D02*
X35141570Y-12459523D01*
X35141570Y-12459523D02*
X35179665Y-12421428D01*
X35179665Y-12421428D02*
X35255856Y-12383332D01*
X35255856Y-12383332D02*
X35370141Y-12383332D01*
X35370141Y-12383332D02*
X35446332Y-12421428D01*
X35446332Y-12421428D02*
X35484427Y-12459523D01*
X35484427Y-12459523D02*
X35522522Y-12535713D01*
X35522522Y-12535713D02*
X35522522Y-12840475D01*
X35370141Y-11697618D02*
X35903475Y-11697618D01*
X35065380Y-11888094D02*
X35636808Y-12078571D01*
X35636808Y-12078571D02*
X35636808Y-11583332D01*
X9436094Y-13383332D02*
X9474190Y-13421428D01*
X9474190Y-13421428D02*
X9512285Y-13535713D01*
X9512285Y-13535713D02*
X9512285Y-13611904D01*
X9512285Y-13611904D02*
X9474190Y-13726190D01*
X9474190Y-13726190D02*
X9397999Y-13802380D01*
X9397999Y-13802380D02*
X9321809Y-13840475D01*
X9321809Y-13840475D02*
X9169428Y-13878571D01*
X9169428Y-13878571D02*
X9055142Y-13878571D01*
X9055142Y-13878571D02*
X8902761Y-13840475D01*
X8902761Y-13840475D02*
X8826570Y-13802380D01*
X8826570Y-13802380D02*
X8750380Y-13726190D01*
X8750380Y-13726190D02*
X8712285Y-13611904D01*
X8712285Y-13611904D02*
X8712285Y-13535713D01*
X8712285Y-13535713D02*
X8750380Y-13421428D01*
X8750380Y-13421428D02*
X8788475Y-13383332D01*
X9512285Y-12621428D02*
X9512285Y-13078571D01*
X9512285Y-12849999D02*
X8712285Y-12849999D01*
X8712285Y-12849999D02*
X8826570Y-12926190D01*
X8826570Y-12926190D02*
X8902761Y-13002380D01*
X8902761Y-13002380D02*
X8940856Y-13078571D01*
D10*
X24418873Y-9472419D02*
X23847445Y-9472419D01*
X24133159Y-9472419D02*
X24133159Y-8472419D01*
X24133159Y-8472419D02*
X24037921Y-8615276D01*
X24037921Y-8615276D02*
X23942683Y-8710514D01*
X23942683Y-8710514D02*
X23847445Y-8758133D01*
D14*
G36*
X24681948Y-7576409D02*
G01*
X23501663Y-7576409D01*
X23501663Y-6966757D01*
X23612774Y-6966757D01*
X23612774Y-7005775D01*
X23627706Y-7041823D01*
X23655296Y-7069413D01*
X23691344Y-7084345D01*
X23710853Y-7086266D01*
X23991805Y-7086266D01*
X23991805Y-7367219D01*
X23993726Y-7386728D01*
X24008658Y-7422776D01*
X24036248Y-7450366D01*
X24072296Y-7465298D01*
X24111314Y-7465298D01*
X24147362Y-7450366D01*
X24174952Y-7422776D01*
X24189884Y-7386728D01*
X24191805Y-7367219D01*
X24191805Y-7086266D01*
X24472758Y-7086266D01*
X24492267Y-7084345D01*
X24528315Y-7069413D01*
X24555905Y-7041823D01*
X24570837Y-7005775D01*
X24570837Y-6966757D01*
X24555905Y-6930709D01*
X24528315Y-6903119D01*
X24492267Y-6888187D01*
X24472758Y-6886266D01*
X24191805Y-6886266D01*
X24191805Y-6605314D01*
X24189884Y-6585805D01*
X24174952Y-6549757D01*
X24147362Y-6522167D01*
X24111314Y-6507235D01*
X24072296Y-6507235D01*
X24036248Y-6522167D01*
X24008658Y-6549757D01*
X23993726Y-6585805D01*
X23991805Y-6605314D01*
X23991805Y-6886266D01*
X23710853Y-6886266D01*
X23691344Y-6888187D01*
X23655296Y-6903119D01*
X23627706Y-6930709D01*
X23612774Y-6966757D01*
X23501663Y-6966757D01*
X23501663Y-6396124D01*
X24681948Y-6396124D01*
X24681948Y-7576409D01*
G37*
D10*
X23847445Y-10567657D02*
X23895064Y-10520038D01*
X23895064Y-10520038D02*
X23990302Y-10472419D01*
X23990302Y-10472419D02*
X24228397Y-10472419D01*
X24228397Y-10472419D02*
X24323635Y-10520038D01*
X24323635Y-10520038D02*
X24371254Y-10567657D01*
X24371254Y-10567657D02*
X24418873Y-10662895D01*
X24418873Y-10662895D02*
X24418873Y-10758133D01*
X24418873Y-10758133D02*
X24371254Y-10900990D01*
X24371254Y-10900990D02*
X23799826Y-11472419D01*
X23799826Y-11472419D02*
X24418873Y-11472419D01*
D11*
X6886094Y-14533332D02*
X6924190Y-14571428D01*
X6924190Y-14571428D02*
X6962285Y-14685713D01*
X6962285Y-14685713D02*
X6962285Y-14761904D01*
X6962285Y-14761904D02*
X6924190Y-14876190D01*
X6924190Y-14876190D02*
X6847999Y-14952380D01*
X6847999Y-14952380D02*
X6771809Y-14990475D01*
X6771809Y-14990475D02*
X6619428Y-15028571D01*
X6619428Y-15028571D02*
X6505142Y-15028571D01*
X6505142Y-15028571D02*
X6352761Y-14990475D01*
X6352761Y-14990475D02*
X6276570Y-14952380D01*
X6276570Y-14952380D02*
X6200380Y-14876190D01*
X6200380Y-14876190D02*
X6162285Y-14761904D01*
X6162285Y-14761904D02*
X6162285Y-14685713D01*
X6162285Y-14685713D02*
X6200380Y-14571428D01*
X6200380Y-14571428D02*
X6238475Y-14533332D01*
X6428951Y-13847618D02*
X6962285Y-13847618D01*
X6124190Y-14038094D02*
X6695618Y-14228571D01*
X6695618Y-14228571D02*
X6695618Y-13733332D01*
X35903475Y-14433332D02*
X35522522Y-14699999D01*
X35903475Y-14890475D02*
X35103475Y-14890475D01*
X35103475Y-14890475D02*
X35103475Y-14585713D01*
X35103475Y-14585713D02*
X35141570Y-14509523D01*
X35141570Y-14509523D02*
X35179665Y-14471428D01*
X35179665Y-14471428D02*
X35255856Y-14433332D01*
X35255856Y-14433332D02*
X35370141Y-14433332D01*
X35370141Y-14433332D02*
X35446332Y-14471428D01*
X35446332Y-14471428D02*
X35484427Y-14509523D01*
X35484427Y-14509523D02*
X35522522Y-14585713D01*
X35522522Y-14585713D02*
X35522522Y-14890475D01*
X35103475Y-14166666D02*
X35103475Y-13671428D01*
X35103475Y-13671428D02*
X35408237Y-13938094D01*
X35408237Y-13938094D02*
X35408237Y-13823809D01*
X35408237Y-13823809D02*
X35446332Y-13747618D01*
X35446332Y-13747618D02*
X35484427Y-13709523D01*
X35484427Y-13709523D02*
X35560618Y-13671428D01*
X35560618Y-13671428D02*
X35751094Y-13671428D01*
X35751094Y-13671428D02*
X35827284Y-13709523D01*
X35827284Y-13709523D02*
X35865380Y-13747618D01*
X35865380Y-13747618D02*
X35903475Y-13823809D01*
X35903475Y-13823809D02*
X35903475Y-14052380D01*
X35903475Y-14052380D02*
X35865380Y-14128571D01*
X35865380Y-14128571D02*
X35827284Y-14166666D01*
D15*
%TO.C,C82*%
X23858477Y2704472D02*
X23858477Y3226976D01*
X25328477Y2704472D02*
X25328477Y3226976D01*
%TO.C,C73*%
X57083477Y6106304D02*
X57083477Y5825144D01*
X58103477Y6106304D02*
X58103477Y5825144D01*
%TO.C,C7*%
X37756180Y-6411252D02*
X37756180Y-5888747D01*
X39226180Y-6411253D02*
X39226180Y-5888748D01*
%TO.C,C6*%
X33101180Y-8507621D02*
X30919180Y-8507621D01*
X33101180Y-8547621D02*
X30923180Y-8547621D01*
X33101180Y-8587621D02*
X30926180Y-8587621D01*
X33101180Y-8627621D02*
X30930180Y-8627621D01*
X33101180Y-8667621D02*
X30935180Y-8667621D01*
X33101180Y-8707621D02*
X30940180Y-8707621D01*
X33101180Y-8747621D02*
X30946180Y-8747621D01*
X33101180Y-8787621D02*
X30952180Y-8787621D01*
X33101180Y-8827621D02*
X30959180Y-8827621D01*
X33101180Y-8867621D02*
X30966180Y-8867621D01*
X33101180Y-8907621D02*
X30974180Y-8907621D01*
X33101180Y-8947621D02*
X30982180Y-8947621D01*
X33101180Y-8988621D02*
X30991180Y-8988621D01*
X33101180Y-9028621D02*
X31000180Y-9028621D01*
X33101180Y-9068621D02*
X31010180Y-9068621D01*
X33101180Y-9108621D02*
X31020180Y-9108621D01*
X33101180Y-9148621D02*
X31031180Y-9148621D01*
X33101180Y-9188621D02*
X31043180Y-9188621D01*
X33101180Y-9228621D02*
X31055180Y-9228621D01*
X33101180Y-9268621D02*
X31067180Y-9268621D01*
X33101180Y-9308621D02*
X31080180Y-9308621D01*
X33101180Y-9348621D02*
X31094180Y-9348621D01*
X33101180Y-9388621D02*
X31108180Y-9388621D01*
X33101180Y-9428621D02*
X31123180Y-9428621D01*
X33101180Y-9468621D02*
X31139180Y-9468621D01*
X33101180Y-9508621D02*
X31155180Y-9508621D01*
X33101180Y-9548621D02*
X31171180Y-9548621D01*
X33101180Y-9588621D02*
X31189180Y-9588621D01*
X33101180Y-9628621D02*
X31207180Y-9628621D01*
X33101180Y-9668621D02*
X31225180Y-9668621D01*
X33101180Y-9708621D02*
X31245180Y-9708621D01*
X33101180Y-9748621D02*
X31265180Y-9748621D01*
X33101180Y-9788621D02*
X31285180Y-9788621D01*
X33101180Y-9828621D02*
X31307180Y-9828621D01*
X33101180Y-9868621D02*
X31329180Y-9868621D01*
X33101180Y-9908621D02*
X31351180Y-9908621D01*
X33101180Y-9948621D02*
X31375180Y-9948621D01*
X33101180Y-9988621D02*
X31399180Y-9988621D01*
X33101180Y-10028621D02*
X31425180Y-10028621D01*
X33101180Y-10068621D02*
X31451180Y-10068621D01*
X33101180Y-10108621D02*
X31477180Y-10108621D01*
X33101180Y-10148621D02*
X31505180Y-10148621D01*
X33101180Y-10188621D02*
X31534180Y-10188621D01*
X33101180Y-10228621D02*
X31563180Y-10228621D01*
X33101180Y-10268621D02*
X31593180Y-10268621D01*
X33101180Y-10308621D02*
X31625180Y-10308621D01*
X33101180Y-10348621D02*
X31657180Y-10348621D01*
X33101180Y-10388621D02*
X31691180Y-10388621D01*
X33101180Y-10428621D02*
X31725180Y-10428621D01*
X33101180Y-10468621D02*
X31761180Y-10468621D01*
X33101180Y-10508621D02*
X31798180Y-10508621D01*
X33101180Y-10548621D02*
X31836180Y-10548621D01*
X34543180Y-11508621D02*
X33739180Y-11508621D01*
X34774180Y-11468621D02*
X33508180Y-11468621D01*
X34943180Y-11428621D02*
X33339180Y-11428621D01*
X35081180Y-11388621D02*
X33201180Y-11388621D01*
X35200180Y-11348621D02*
X33082180Y-11348621D01*
X35306180Y-11308621D02*
X32976180Y-11308621D01*
X35403180Y-11268621D02*
X32879180Y-11268621D01*
X35491180Y-11228621D02*
X32791180Y-11228621D01*
X35573180Y-11188621D02*
X32709180Y-11188621D01*
X35650180Y-11148621D02*
X32632180Y-11148621D01*
X35722180Y-11108621D02*
X32560180Y-11108621D01*
X35791180Y-11068621D02*
X32491180Y-11068621D01*
X35855180Y-11028621D02*
X32427180Y-11028621D01*
X35917180Y-10988621D02*
X32365180Y-10988621D01*
X35975180Y-10948621D02*
X32307180Y-10948621D01*
X35980180Y-4767380D02*
X35980180Y-5397380D01*
X36031180Y-10908621D02*
X32251180Y-10908621D01*
X36085180Y-10868621D02*
X32197180Y-10868621D01*
X36136180Y-10828621D02*
X32146180Y-10828621D01*
X36185180Y-10788621D02*
X32097180Y-10788621D01*
X36233180Y-10748621D02*
X32049180Y-10748621D01*
X36278180Y-10708621D02*
X32004180Y-10708621D01*
X36295180Y-5082380D02*
X35665180Y-5082380D01*
X36323180Y-10668621D02*
X31959180Y-10668621D01*
X36365180Y-10628621D02*
X31917180Y-10628621D01*
X36406180Y-10588621D02*
X31876180Y-10588621D01*
X36446180Y-10548621D02*
X35181180Y-10548621D01*
X36484180Y-10508621D02*
X35181180Y-10508621D01*
X36521180Y-10468621D02*
X35181180Y-10468621D01*
X36557180Y-10428621D02*
X35181180Y-10428621D01*
X36591180Y-10388621D02*
X35181180Y-10388621D01*
X36625180Y-10348621D02*
X35181180Y-10348621D01*
X36657180Y-10308621D02*
X35181180Y-10308621D01*
X36689180Y-10268621D02*
X35181180Y-10268621D01*
X36719180Y-10228621D02*
X35181180Y-10228621D01*
X36748180Y-10188621D02*
X35181180Y-10188621D01*
X36777180Y-10148621D02*
X35181180Y-10148621D01*
X36805180Y-10108621D02*
X35181180Y-10108621D01*
X36831180Y-10068621D02*
X35181180Y-10068621D01*
X36857180Y-10028621D02*
X35181180Y-10028621D01*
X36883180Y-9988621D02*
X35181180Y-9988621D01*
X36907180Y-9948621D02*
X35181180Y-9948621D01*
X36931180Y-9908621D02*
X35181180Y-9908621D01*
X36953180Y-9868621D02*
X35181180Y-9868621D01*
X36975180Y-9828621D02*
X35181180Y-9828621D01*
X36997180Y-9788621D02*
X35181180Y-9788621D01*
X37017180Y-9748621D02*
X35181180Y-9748621D01*
X37037180Y-9708621D02*
X35181180Y-9708621D01*
X37057180Y-9668621D02*
X35181180Y-9668621D01*
X37075180Y-9628621D02*
X35181180Y-9628621D01*
X37093180Y-9588621D02*
X35181180Y-9588621D01*
X37111180Y-9548621D02*
X35181180Y-9548621D01*
X37127180Y-9508621D02*
X35181180Y-9508621D01*
X37143180Y-9468621D02*
X35181180Y-9468621D01*
X37159180Y-9428621D02*
X35181180Y-9428621D01*
X37174180Y-9388621D02*
X35181180Y-9388621D01*
X37188180Y-9348621D02*
X35181180Y-9348621D01*
X37202180Y-9308621D02*
X35181180Y-9308621D01*
X37215180Y-9268621D02*
X35181180Y-9268621D01*
X37227180Y-9228621D02*
X35181180Y-9228621D01*
X37239180Y-9188621D02*
X35181180Y-9188621D01*
X37251180Y-9148621D02*
X35181180Y-9148621D01*
X37262180Y-9108621D02*
X35181180Y-9108621D01*
X37272180Y-9068621D02*
X35181180Y-9068621D01*
X37282180Y-9028621D02*
X35181180Y-9028621D01*
X37291180Y-8988621D02*
X35181180Y-8988621D01*
X37300180Y-8947621D02*
X35181180Y-8947621D01*
X37308180Y-8907621D02*
X35181180Y-8907621D01*
X37316180Y-8867621D02*
X35181180Y-8867621D01*
X37323180Y-8827621D02*
X35181180Y-8827621D01*
X37330180Y-8787621D02*
X35181180Y-8787621D01*
X37336180Y-8747621D02*
X35181180Y-8747621D01*
X37342180Y-8707621D02*
X35181180Y-8707621D01*
X37347180Y-8667621D02*
X35181180Y-8667621D01*
X37352180Y-8627621D02*
X35181180Y-8627621D01*
X37356180Y-8587621D02*
X35181180Y-8587621D01*
X37359180Y-8547621D02*
X35181180Y-8547621D01*
X37363180Y-8507621D02*
X35181180Y-8507621D01*
X37365180Y-8467621D02*
X30917180Y-8467621D01*
X37368180Y-8427621D02*
X30914180Y-8427621D01*
X37369180Y-8387621D02*
X30913180Y-8387621D01*
X37371180Y-8267621D02*
X30911180Y-8267621D01*
X37371180Y-8307621D02*
X30911180Y-8307621D01*
X37371180Y-8347621D02*
X30911180Y-8347621D01*
X37411180Y-8267621D02*
G75*
G02*
X30871180Y-8267621I-3270000J0D01*
G01*
X30871180Y-8267621D02*
G75*
G02*
X37411180Y-8267621I3270000J0D01*
G01*
%TO.C,C72*%
X46858477Y2704472D02*
X46858477Y3226976D01*
X48328477Y2704472D02*
X48328477Y3226976D01*
%TO.C,R2*%
X12987247Y-11277500D02*
X12512733Y-11277500D01*
X12987247Y-12322500D02*
X12512733Y-12322500D01*
%TO.C,R71*%
X59070977Y2952982D02*
X59070977Y2478466D01*
X60115977Y2952982D02*
X60115977Y2478466D01*
%TO.C,D71*%
X46833477Y6965724D02*
X46833477Y4965724D01*
X46833477Y6965724D02*
X50693477Y6965724D01*
X46833477Y4965724D02*
X50693477Y4965724D01*
%TO.C,C83*%
X34083477Y6106304D02*
X34083477Y5825144D01*
X35103477Y6106304D02*
X35103477Y5825144D01*
%TO.C,R1*%
X12512733Y-13377500D02*
X12987247Y-13377500D01*
X12512733Y-14422500D02*
X12987247Y-14422500D01*
%TO.C,J11*%
X219990Y-5000000D02*
X649990Y-5000000D01*
X219990Y-5500000D02*
X219990Y-5000000D01*
X249990Y-8000000D02*
X249990Y-15000000D01*
X249990Y-8000000D02*
X5649990Y-8000000D01*
X249990Y-15000000D02*
X5649990Y-15000000D01*
X5579990Y-5000000D02*
X5149990Y-5000000D01*
X5579990Y-5500000D02*
X5579990Y-5000000D01*
X5649990Y-8000000D02*
X5649990Y-15000000D01*
D10*
X-1200010Y-12000000D02*
X3749990Y-12000000D01*
X3749990Y-14000000D01*
X-1200010Y-14000000D01*
X-1200010Y-12000000D01*
G36*
X-1200010Y-12000000D02*
G01*
X3749990Y-12000000D01*
X3749990Y-14000000D01*
X-1200010Y-14000000D01*
X-1200010Y-12000000D01*
G37*
D15*
%TO.C,R78*%
X3077500Y2412742D02*
X3077500Y2887258D01*
X4122500Y2412742D02*
X4122500Y2887258D01*
%TO.C,Q71*%
X53343477Y7575724D02*
X52693477Y7575724D01*
X53343477Y7575724D02*
X53993477Y7575724D01*
X53343477Y4455724D02*
X52693477Y4455724D01*
X53343477Y4455724D02*
X53993477Y4455724D01*
X54745977Y4175724D02*
X54265977Y4175724D01*
X54505977Y4505724D01*
X54745977Y4175724D01*
G36*
X54745977Y4175724D02*
G01*
X54265977Y4175724D01*
X54505977Y4505724D01*
X54745977Y4175724D01*
G37*
%TO.C,R94*%
X57606219Y8988224D02*
X58080735Y8988224D01*
X57606219Y7943224D02*
X58080735Y7943224D01*
%TO.C,U91*%
X14600000Y7460000D02*
X13800000Y7460000D01*
X14600000Y7460000D02*
X15400000Y7460000D01*
X14600000Y4340000D02*
X13800000Y4340000D01*
X14600000Y4340000D02*
X15400000Y4340000D01*
X13300000Y7410000D02*
X13060000Y7740000D01*
X13540000Y7740000D01*
X13300000Y7410000D01*
G36*
X13300000Y7410000D02*
G01*
X13060000Y7740000D01*
X13540000Y7740000D01*
X13300000Y7410000D01*
G37*
%TO.C,Q72*%
X6350000Y4110000D02*
X5700000Y4110000D01*
X6350000Y4110000D02*
X7000000Y4110000D01*
X6350000Y990000D02*
X5700000Y990000D01*
X6350000Y990000D02*
X7000000Y990000D01*
X7752500Y710000D02*
X7272500Y710000D01*
X7512500Y1040000D01*
X7752500Y710000D01*
G36*
X7752500Y710000D02*
G01*
X7272500Y710000D01*
X7512500Y1040000D01*
X7752500Y710000D01*
G37*
%TO.C,R96*%
X56070977Y2478466D02*
X56070977Y2952982D01*
X57115977Y2478466D02*
X57115977Y2952982D01*
%TO.C,R88*%
X26070977Y2478466D02*
X26070977Y2952982D01*
X27115977Y2478466D02*
X27115977Y2952982D01*
%TO.C,C93*%
X11090000Y6040580D02*
X11090000Y5759420D01*
X12110000Y6040580D02*
X12110000Y5759420D01*
%TO.C,C3*%
X32231180Y-13059420D02*
X32231180Y-13340580D01*
X33251180Y-13059420D02*
X33251180Y-13340580D01*
%TO.C,C2*%
X30831180Y-12259420D02*
X30831180Y-12540580D01*
X31851180Y-12259420D02*
X31851180Y-12540580D01*
%TO.C,Q92*%
X29343477Y4175724D02*
X28693477Y4175724D01*
X29343477Y4175724D02*
X29993477Y4175724D01*
X29343477Y1055724D02*
X28693477Y1055724D01*
X29343477Y1055724D02*
X29993477Y1055724D01*
X30745977Y775724D02*
X30265977Y775724D01*
X30505977Y1105724D01*
X30745977Y775724D01*
G36*
X30745977Y775724D02*
G01*
X30265977Y775724D01*
X30505977Y1105724D01*
X30745977Y775724D01*
G37*
%TO.C,D81*%
X840000Y6900000D02*
X840000Y4900000D01*
X840000Y6900000D02*
X4700000Y6900000D01*
X840000Y4900000D02*
X4700000Y4900000D01*
%TO.C,R97*%
X8577500Y2887258D02*
X8577500Y2412742D01*
X9622500Y2887258D02*
X9622500Y2412742D01*
%TO.C,R91*%
X13077500Y2887258D02*
X13077500Y2412742D01*
X14122500Y2887258D02*
X14122500Y2412742D01*
%TO.C,Q91*%
X7350000Y7510000D02*
X6700000Y7510000D01*
X7350000Y7510000D02*
X8000000Y7510000D01*
X7350000Y4390000D02*
X6700000Y4390000D01*
X7350000Y4390000D02*
X8000000Y4390000D01*
X8752500Y4110000D02*
X8272500Y4110000D01*
X8512500Y4440000D01*
X8752500Y4110000D01*
G36*
X8752500Y4110000D02*
G01*
X8272500Y4110000D01*
X8512500Y4440000D01*
X8752500Y4110000D01*
G37*
%TO.C,R75*%
X32570977Y5728466D02*
X32570977Y6202982D01*
X33615977Y5728466D02*
X33615977Y6202982D01*
%TO.C,D91*%
X23833477Y6965724D02*
X23833477Y4965724D01*
X23833477Y6965724D02*
X27693477Y6965724D01*
X23833477Y4965724D02*
X27693477Y4965724D01*
%TO.C,R86*%
X10077500Y2412742D02*
X10077500Y2887258D01*
X11122500Y2412742D02*
X11122500Y2887258D01*
%TO.C,J1*%
X39961180Y-4920000D02*
X41291180Y-4920000D01*
X39961180Y-6250000D02*
X39961180Y-4920000D01*
X39961180Y-7520000D02*
X39961180Y-12660000D01*
X39961180Y-7520000D02*
X42621180Y-7520000D01*
X39961180Y-12660000D02*
X42621180Y-12660000D01*
X42621180Y-7520000D02*
X42621180Y-12660000D01*
%TO.C,R95*%
X9577500Y5662742D02*
X9577500Y6137258D01*
X10622500Y5662742D02*
X10622500Y6137258D01*
%TO.C,R92*%
X57570977Y2478466D02*
X57570977Y2952982D01*
X58615977Y2478466D02*
X58615977Y2952982D01*
%TO.C,R76*%
X33070977Y2478466D02*
X33070977Y2952982D01*
X34115977Y2478466D02*
X34115977Y2952982D01*
%TO.C,R85*%
X55570977Y5728466D02*
X55570977Y6202982D01*
X56615977Y5728466D02*
X56615977Y6202982D01*
%TO.C,R4*%
X37778437Y-11277500D02*
X37303923Y-11277500D01*
X37778437Y-12322500D02*
X37303923Y-12322500D01*
%TO.C,J2*%
X42511180Y-4930000D02*
X43841180Y-4930000D01*
X42511180Y-6260000D02*
X42511180Y-4930000D01*
X42511180Y-7530000D02*
X42511180Y-12670000D01*
X42511180Y-7530000D02*
X45171180Y-7530000D01*
X42511180Y-12670000D02*
X45171180Y-12670000D01*
X45171180Y-7530000D02*
X45171180Y-12670000D01*
%TO.C,Q82*%
X52343477Y4175724D02*
X51693477Y4175724D01*
X52343477Y4175724D02*
X52993477Y4175724D01*
X52343477Y1055724D02*
X51693477Y1055724D01*
X52343477Y1055724D02*
X52993477Y1055724D01*
X53745977Y775724D02*
X53265977Y775724D01*
X53505977Y1105724D01*
X53745977Y775724D01*
G36*
X53745977Y775724D02*
G01*
X53265977Y775724D01*
X53505977Y1105724D01*
X53745977Y775724D01*
G37*
%TO.C,U81*%
X60593477Y7525724D02*
X59793477Y7525724D01*
X60593477Y7525724D02*
X61393477Y7525724D01*
X60593477Y4405724D02*
X59793477Y4405724D01*
X60593477Y4405724D02*
X61393477Y4405724D01*
X59293477Y7475724D02*
X59053477Y7805724D01*
X59533477Y7805724D01*
X59293477Y7475724D01*
G36*
X59293477Y7475724D02*
G01*
X59053477Y7805724D01*
X59533477Y7805724D01*
X59293477Y7475724D01*
G37*
%TO.C,R82*%
X34570977Y2478466D02*
X34570977Y2952982D01*
X35615977Y2478466D02*
X35615977Y2952982D01*
%TO.C,J2*%
X17719990Y-4930000D02*
X19049990Y-4930000D01*
X17719990Y-6260000D02*
X17719990Y-4930000D01*
X17719990Y-7530000D02*
X17719990Y-12670000D01*
X17719990Y-7530000D02*
X20379990Y-7530000D01*
X17719990Y-12670000D02*
X20379990Y-12670000D01*
X20379990Y-7530000D02*
X20379990Y-12670000D01*
%TO.C,Q81*%
X30343477Y7575724D02*
X29693477Y7575724D01*
X30343477Y7575724D02*
X30993477Y7575724D01*
X30343477Y4455724D02*
X29693477Y4455724D01*
X30343477Y4455724D02*
X30993477Y4455724D01*
X31745977Y4175724D02*
X31265977Y4175724D01*
X31505977Y4505724D01*
X31745977Y4175724D01*
G36*
X31745977Y4175724D02*
G01*
X31265977Y4175724D01*
X31505977Y4505724D01*
X31745977Y4175724D01*
G37*
%TO.C,R77*%
X54570977Y2952982D02*
X54570977Y2478466D01*
X55615977Y2952982D02*
X55615977Y2478466D01*
%TO.C,R74*%
X11612742Y8922500D02*
X12087258Y8922500D01*
X11612742Y7877500D02*
X12087258Y7877500D01*
%TO.C,R81*%
X36070977Y2952982D02*
X36070977Y2478466D01*
X37115977Y2952982D02*
X37115977Y2478466D01*
%TO.C,C92*%
X865000Y2638748D02*
X865000Y3161252D01*
X2335000Y2638748D02*
X2335000Y3161252D01*
%TO.C,C1*%
X7439990Y-13059420D02*
X7439990Y-13340580D01*
X8459990Y-13059420D02*
X8459990Y-13340580D01*
%TO.C,J10*%
X25011180Y-5000000D02*
X25441180Y-5000000D01*
X25011180Y-5500000D02*
X25011180Y-5000000D01*
X25041180Y-8000000D02*
X25041180Y-15000000D01*
X25041180Y-8000000D02*
X30441180Y-8000000D01*
X25041180Y-15000000D02*
X30441180Y-15000000D01*
X30371180Y-5000000D02*
X29941180Y-5000000D01*
X30371180Y-5500000D02*
X30371180Y-5000000D01*
X30441180Y-8000000D02*
X30441180Y-15000000D01*
D10*
X23591180Y-12000000D02*
X28541180Y-12000000D01*
X28541180Y-14000000D01*
X23591180Y-14000000D01*
X23591180Y-12000000D01*
G36*
X23591180Y-12000000D02*
G01*
X28541180Y-12000000D01*
X28541180Y-14000000D01*
X23591180Y-14000000D01*
X23591180Y-12000000D01*
G37*
D15*
%TO.C,U71*%
X37593477Y7525724D02*
X36793477Y7525724D01*
X37593477Y7525724D02*
X38393477Y7525724D01*
X37593477Y4405724D02*
X36793477Y4405724D01*
X37593477Y4405724D02*
X38393477Y4405724D01*
X36293477Y7475724D02*
X36053477Y7805724D01*
X36533477Y7805724D01*
X36293477Y7475724D01*
G36*
X36293477Y7475724D02*
G01*
X36053477Y7805724D01*
X36533477Y7805724D01*
X36293477Y7475724D01*
G37*
%TO.C,C4*%
X6039990Y-12259420D02*
X6039990Y-12540580D01*
X7059990Y-12259420D02*
X7059990Y-12540580D01*
%TO.C,C5*%
X12964990Y-6411252D02*
X12964990Y-5888747D01*
X14434990Y-6411253D02*
X14434990Y-5888748D01*
%TO.C,R3*%
X37303923Y-13377500D02*
X37778437Y-13377500D01*
X37303923Y-14422500D02*
X37778437Y-14422500D01*
%TO.C,R84*%
X34606219Y8988224D02*
X35080735Y8988224D01*
X34606219Y7943224D02*
X35080735Y7943224D01*
%TO.C,J1*%
X15169990Y-4920000D02*
X16499990Y-4920000D01*
X15169990Y-6250000D02*
X15169990Y-4920000D01*
X15169990Y-7520000D02*
X15169990Y-12660000D01*
X15169990Y-7520000D02*
X17829990Y-7520000D01*
X15169990Y-12660000D02*
X17829990Y-12660000D01*
X17829990Y-7520000D02*
X17829990Y-12660000D01*
%TO.C,R87*%
X31570977Y2952982D02*
X31570977Y2478466D01*
X32615977Y2952982D02*
X32615977Y2478466D01*
%TO.C,R72*%
X11577500Y2412742D02*
X11577500Y2887258D01*
X12622500Y2412742D02*
X12622500Y2887258D01*
%TO.C,C8*%
X8309990Y-8507621D02*
X6127990Y-8507621D01*
X8309990Y-8547621D02*
X6131990Y-8547621D01*
X8309990Y-8587621D02*
X6134990Y-8587621D01*
X8309990Y-8627621D02*
X6138990Y-8627621D01*
X8309990Y-8667621D02*
X6143990Y-8667621D01*
X8309990Y-8707621D02*
X6148990Y-8707621D01*
X8309990Y-8747621D02*
X6154990Y-8747621D01*
X8309990Y-8787621D02*
X6160990Y-8787621D01*
X8309990Y-8827621D02*
X6167990Y-8827621D01*
X8309990Y-8867621D02*
X6174990Y-8867621D01*
X8309990Y-8907621D02*
X6182990Y-8907621D01*
X8309990Y-8947621D02*
X6190990Y-8947621D01*
X8309990Y-8988621D02*
X6199990Y-8988621D01*
X8309990Y-9028621D02*
X6208990Y-9028621D01*
X8309990Y-9068621D02*
X6218990Y-9068621D01*
X8309990Y-9108621D02*
X6228990Y-9108621D01*
X8309990Y-9148621D02*
X6239990Y-9148621D01*
X8309990Y-9188621D02*
X6251990Y-9188621D01*
X8309990Y-9228621D02*
X6263990Y-9228621D01*
X8309990Y-9268621D02*
X6275990Y-9268621D01*
X8309990Y-9308621D02*
X6288990Y-9308621D01*
X8309990Y-9348621D02*
X6302990Y-9348621D01*
X8309990Y-9388621D02*
X6316990Y-9388621D01*
X8309990Y-9428621D02*
X6331990Y-9428621D01*
X8309990Y-9468621D02*
X6347990Y-9468621D01*
X8309990Y-9508621D02*
X6363990Y-9508621D01*
X8309990Y-9548621D02*
X6379990Y-9548621D01*
X8309990Y-9588621D02*
X6397990Y-9588621D01*
X8309990Y-9628621D02*
X6415990Y-9628621D01*
X8309990Y-9668621D02*
X6433990Y-9668621D01*
X8309990Y-9708621D02*
X6453990Y-9708621D01*
X8309990Y-9748621D02*
X6473990Y-9748621D01*
X8309990Y-9788621D02*
X6493990Y-9788621D01*
X8309990Y-9828621D02*
X6515990Y-9828621D01*
X8309990Y-9868621D02*
X6537990Y-9868621D01*
X8309990Y-9908621D02*
X6559990Y-9908621D01*
X8309990Y-9948621D02*
X6583990Y-9948621D01*
X8309990Y-9988621D02*
X6607990Y-9988621D01*
X8309990Y-10028621D02*
X6633990Y-10028621D01*
X8309990Y-10068621D02*
X6659990Y-10068621D01*
X8309990Y-10108621D02*
X6685990Y-10108621D01*
X8309990Y-10148621D02*
X6713990Y-10148621D01*
X8309990Y-10188621D02*
X6742990Y-10188621D01*
X8309990Y-10228621D02*
X6771990Y-10228621D01*
X8309990Y-10268621D02*
X6801990Y-10268621D01*
X8309990Y-10308621D02*
X6833990Y-10308621D01*
X8309990Y-10348621D02*
X6865990Y-10348621D01*
X8309990Y-10388621D02*
X6899990Y-10388621D01*
X8309990Y-10428621D02*
X6933990Y-10428621D01*
X8309990Y-10468621D02*
X6969990Y-10468621D01*
X8309990Y-10508621D02*
X7006990Y-10508621D01*
X8309990Y-10548621D02*
X7044990Y-10548621D01*
X9751990Y-11508621D02*
X8947990Y-11508621D01*
X9982990Y-11468621D02*
X8716990Y-11468621D01*
X10151990Y-11428621D02*
X8547990Y-11428621D01*
X10289990Y-11388621D02*
X8409990Y-11388621D01*
X10408990Y-11348621D02*
X8290990Y-11348621D01*
X10514990Y-11308621D02*
X8184990Y-11308621D01*
X10611990Y-11268621D02*
X8087990Y-11268621D01*
X10699990Y-11228621D02*
X7999990Y-11228621D01*
X10781990Y-11188621D02*
X7917990Y-11188621D01*
X10858990Y-11148621D02*
X7840990Y-11148621D01*
X10930990Y-11108621D02*
X7768990Y-11108621D01*
X10999990Y-11068621D02*
X7699990Y-11068621D01*
X11063990Y-11028621D02*
X7635990Y-11028621D01*
X11125990Y-10988621D02*
X7573990Y-10988621D01*
X11183990Y-10948621D02*
X7515990Y-10948621D01*
X11188990Y-4767380D02*
X11188990Y-5397380D01*
X11239990Y-10908621D02*
X7459990Y-10908621D01*
X11293990Y-10868621D02*
X7405990Y-10868621D01*
X11344990Y-10828621D02*
X7354990Y-10828621D01*
X11393990Y-10788621D02*
X7305990Y-10788621D01*
X11441990Y-10748621D02*
X7257990Y-10748621D01*
X11486990Y-10708621D02*
X7212990Y-10708621D01*
X11503990Y-5082380D02*
X10873990Y-5082380D01*
X11531990Y-10668621D02*
X7167990Y-10668621D01*
X11573990Y-10628621D02*
X7125990Y-10628621D01*
X11614990Y-10588621D02*
X7084990Y-10588621D01*
X11654990Y-10548621D02*
X10389990Y-10548621D01*
X11692990Y-10508621D02*
X10389990Y-10508621D01*
X11729990Y-10468621D02*
X10389990Y-10468621D01*
X11765990Y-10428621D02*
X10389990Y-10428621D01*
X11799990Y-10388621D02*
X10389990Y-10388621D01*
X11833990Y-10348621D02*
X10389990Y-10348621D01*
X11865990Y-10308621D02*
X10389990Y-10308621D01*
X11897990Y-10268621D02*
X10389990Y-10268621D01*
X11927990Y-10228621D02*
X10389990Y-10228621D01*
X11956990Y-10188621D02*
X10389990Y-10188621D01*
X11985990Y-10148621D02*
X10389990Y-10148621D01*
X12013990Y-10108621D02*
X10389990Y-10108621D01*
X12039990Y-10068621D02*
X10389990Y-10068621D01*
X12065990Y-10028621D02*
X10389990Y-10028621D01*
X12091990Y-9988621D02*
X10389990Y-9988621D01*
X12115990Y-9948621D02*
X10389990Y-9948621D01*
X12139990Y-9908621D02*
X10389990Y-9908621D01*
X12161990Y-9868621D02*
X10389990Y-9868621D01*
X12183990Y-9828621D02*
X10389990Y-9828621D01*
X12205990Y-9788621D02*
X10389990Y-9788621D01*
X12225990Y-9748621D02*
X10389990Y-9748621D01*
X12245990Y-9708621D02*
X10389990Y-9708621D01*
X12265990Y-9668621D02*
X10389990Y-9668621D01*
X12283990Y-9628621D02*
X10389990Y-9628621D01*
X12301990Y-9588621D02*
X10389990Y-9588621D01*
X12319990Y-9548621D02*
X10389990Y-9548621D01*
X12335990Y-9508621D02*
X10389990Y-9508621D01*
X12351990Y-9468621D02*
X10389990Y-9468621D01*
X12367990Y-9428621D02*
X10389990Y-9428621D01*
X12382990Y-9388621D02*
X10389990Y-9388621D01*
X12396990Y-9348621D02*
X10389990Y-9348621D01*
X12410990Y-9308621D02*
X10389990Y-9308621D01*
X12423990Y-9268621D02*
X10389990Y-9268621D01*
X12435990Y-9228621D02*
X10389990Y-9228621D01*
X12447990Y-9188621D02*
X10389990Y-9188621D01*
X12459990Y-9148621D02*
X10389990Y-9148621D01*
X12470990Y-9108621D02*
X10389990Y-9108621D01*
X12480990Y-9068621D02*
X10389990Y-9068621D01*
X12490990Y-9028621D02*
X10389990Y-9028621D01*
X12499990Y-8988621D02*
X10389990Y-8988621D01*
X12508990Y-8947621D02*
X10389990Y-8947621D01*
X12516990Y-8907621D02*
X10389990Y-8907621D01*
X12524990Y-8867621D02*
X10389990Y-8867621D01*
X12531990Y-8827621D02*
X10389990Y-8827621D01*
X12538990Y-8787621D02*
X10389990Y-8787621D01*
X12544990Y-8747621D02*
X10389990Y-8747621D01*
X12550990Y-8707621D02*
X10389990Y-8707621D01*
X12555990Y-8667621D02*
X10389990Y-8667621D01*
X12560990Y-8627621D02*
X10389990Y-8627621D01*
X12564990Y-8587621D02*
X10389990Y-8587621D01*
X12567990Y-8547621D02*
X10389990Y-8547621D01*
X12571990Y-8507621D02*
X10389990Y-8507621D01*
X12573990Y-8467621D02*
X6125990Y-8467621D01*
X12576990Y-8427621D02*
X6122990Y-8427621D01*
X12577990Y-8387621D02*
X6121990Y-8387621D01*
X12579990Y-8267621D02*
X6119990Y-8267621D01*
X12579990Y-8307621D02*
X6119990Y-8307621D01*
X12579990Y-8347621D02*
X6119990Y-8347621D01*
X12619990Y-8267621D02*
G75*
G02*
X6079990Y-8267621I-3270000J0D01*
G01*
X6079990Y-8267621D02*
G75*
G02*
X12619990Y-8267621I3270000J0D01*
G01*
%TO.C,R98*%
X49070977Y2478466D02*
X49070977Y2952982D01*
X50115977Y2478466D02*
X50115977Y2952982D01*
%TD*%
%LPC*%
D16*
%TO.C,C82*%
X24593477Y2015724D03*
X24593477Y3915724D03*
%TD*%
D17*
%TO.C,C73*%
X57593477Y6740724D03*
X57593477Y5190724D03*
%TD*%
D16*
%TO.C,C7*%
X38491181Y-7100000D03*
X38491179Y-5200000D03*
%TD*%
D18*
%TO.C,C6*%
X34141180Y-7017621D03*
D19*
X34141180Y-9517621D03*
%TD*%
D16*
%TO.C,C72*%
X47593477Y2015724D03*
X47593477Y3915724D03*
%TD*%
D20*
%TO.C,R2*%
X13574990Y-11800000D03*
X11924990Y-11800000D03*
%TD*%
D21*
%TO.C,R71*%
X59593477Y3540724D03*
X59593477Y1890724D03*
%TD*%
D22*
%TO.C,D71*%
X47643477Y5965724D03*
X50443477Y5965724D03*
%TD*%
D17*
%TO.C,C83*%
X34593477Y6740724D03*
X34593477Y5190724D03*
%TD*%
D23*
%TO.C,R1*%
X11924990Y-13900000D03*
X13574990Y-13900000D03*
%TD*%
D24*
%TO.C,J11*%
X2649990Y-7000000D03*
X2649990Y-9000000D03*
X2649990Y-11000000D03*
D25*
X2649990Y-13000000D03*
%TD*%
D26*
%TO.C,R78*%
X3600000Y1825000D03*
X3600000Y3475000D03*
%TD*%
D27*
%TO.C,Q71*%
X54280977Y5065724D03*
X54280977Y6965724D03*
X52405977Y6015724D03*
%TD*%
D23*
%TO.C,R94*%
X57018477Y8465724D03*
X58668477Y8465724D03*
%TD*%
D28*
%TO.C,U91*%
X13462500Y6850000D03*
X13462500Y5900000D03*
X13462500Y4950000D03*
X15737500Y4950000D03*
X15737500Y5900000D03*
X15737500Y6850000D03*
%TD*%
D27*
%TO.C,Q72*%
X7287500Y1600000D03*
X7287500Y3500000D03*
X5412500Y2550000D03*
%TD*%
D26*
%TO.C,R96*%
X56593477Y1890724D03*
X56593477Y3540724D03*
%TD*%
%TO.C,R88*%
X26593477Y1890724D03*
X26593477Y3540724D03*
%TD*%
D17*
%TO.C,C93*%
X11600000Y6675000D03*
X11600000Y5125000D03*
%TD*%
%TO.C,C3*%
X32741180Y-12425000D03*
X32741180Y-13975000D03*
%TD*%
%TO.C,C2*%
X31341180Y-11625000D03*
X31341180Y-13175000D03*
%TD*%
D27*
%TO.C,Q92*%
X30280977Y1665724D03*
X30280977Y3565724D03*
X28405977Y2615724D03*
%TD*%
D22*
%TO.C,D81*%
X1650000Y5900000D03*
X4450000Y5900000D03*
%TD*%
D21*
%TO.C,R97*%
X9100000Y3475000D03*
X9100000Y1825000D03*
%TD*%
%TO.C,R91*%
X13600000Y3475000D03*
X13600000Y1825000D03*
%TD*%
D27*
%TO.C,Q91*%
X8287500Y5000000D03*
X8287500Y6900000D03*
X6412500Y5950000D03*
%TD*%
D26*
%TO.C,R75*%
X33093477Y5140724D03*
X33093477Y6790724D03*
%TD*%
D22*
%TO.C,D91*%
X24643477Y5965724D03*
X27443477Y5965724D03*
%TD*%
D26*
%TO.C,R86*%
X10600000Y1825000D03*
X10600000Y3475000D03*
%TD*%
D29*
%TO.C,J1*%
X41291180Y-6250000D03*
D30*
X41291180Y-8790000D03*
X41291180Y-11330000D03*
%TD*%
D26*
%TO.C,R95*%
X10100000Y5075000D03*
X10100000Y6725000D03*
%TD*%
%TO.C,R92*%
X58093477Y1890724D03*
X58093477Y3540724D03*
%TD*%
%TO.C,R76*%
X33593477Y1890724D03*
X33593477Y3540724D03*
%TD*%
%TO.C,R85*%
X56093477Y5140724D03*
X56093477Y6790724D03*
%TD*%
D20*
%TO.C,R4*%
X38366180Y-11800000D03*
X36716180Y-11800000D03*
%TD*%
D29*
%TO.C,J2*%
X43841180Y-6260000D03*
D30*
X43841180Y-8800000D03*
X43841180Y-11340000D03*
%TD*%
D27*
%TO.C,Q82*%
X53280977Y1665724D03*
X53280977Y3565724D03*
X51405977Y2615724D03*
%TD*%
D28*
%TO.C,U81*%
X59455977Y6915724D03*
X59455977Y5965724D03*
X59455977Y5015724D03*
X61730977Y5015724D03*
X61730977Y5965724D03*
X61730977Y6915724D03*
%TD*%
D26*
%TO.C,R82*%
X35093477Y1890724D03*
X35093477Y3540724D03*
%TD*%
D29*
%TO.C,J2*%
X19049990Y-6260000D03*
D30*
X19049990Y-8800000D03*
X19049990Y-11340000D03*
%TD*%
D27*
%TO.C,Q81*%
X31280977Y5065724D03*
X31280977Y6965724D03*
X29405977Y6015724D03*
%TD*%
D21*
%TO.C,R77*%
X55093477Y3540724D03*
X55093477Y1890724D03*
%TD*%
D23*
%TO.C,R74*%
X11025000Y8400000D03*
X12675000Y8400000D03*
%TD*%
D21*
%TO.C,R81*%
X36593477Y3540724D03*
X36593477Y1890724D03*
%TD*%
D16*
%TO.C,C92*%
X1600000Y1950000D03*
X1600000Y3850000D03*
%TD*%
D17*
%TO.C,C1*%
X7949990Y-12425000D03*
X7949990Y-13975000D03*
%TD*%
D24*
%TO.C,J10*%
X27441180Y-7000000D03*
X27441180Y-9000000D03*
X27441180Y-11000000D03*
D25*
X27441180Y-13000000D03*
%TD*%
D28*
%TO.C,U71*%
X36455977Y6915724D03*
X36455977Y5965724D03*
X36455977Y5015724D03*
X38730977Y5015724D03*
X38730977Y5965724D03*
X38730977Y6915724D03*
%TD*%
D17*
%TO.C,C4*%
X6549990Y-11625000D03*
X6549990Y-13175000D03*
%TD*%
D16*
%TO.C,C5*%
X13699991Y-7100000D03*
X13699989Y-5200000D03*
%TD*%
D23*
%TO.C,R3*%
X36716180Y-13900000D03*
X38366180Y-13900000D03*
%TD*%
%TO.C,R84*%
X34018477Y8465724D03*
X35668477Y8465724D03*
%TD*%
D29*
%TO.C,J1*%
X16499990Y-6250000D03*
D30*
X16499990Y-8790000D03*
X16499990Y-11330000D03*
%TD*%
D21*
%TO.C,R87*%
X32093477Y3540724D03*
X32093477Y1890724D03*
%TD*%
D26*
%TO.C,R72*%
X12100000Y1825000D03*
X12100000Y3475000D03*
%TD*%
D18*
%TO.C,C8*%
X9349990Y-7017621D03*
D19*
X9349990Y-9517621D03*
%TD*%
D26*
%TO.C,R98*%
X49593477Y1890724D03*
X49593477Y3540724D03*
%TD*%
D31*
%TO.C,U92*%
X15580000Y8364000D03*
D32*
X18120000Y8364000D03*
X18120000Y236000D03*
X15580000Y236000D03*
%TD*%
D29*
%TO.C,J75*%
X28073477Y65724D03*
D30*
X30613477Y65724D03*
%TD*%
D29*
%TO.C,J73*%
X58693477Y65724D03*
D30*
X56153477Y65724D03*
%TD*%
D31*
%TO.C,U72*%
X61573477Y8429724D03*
D32*
X64113477Y8429724D03*
X64113477Y301724D03*
X61573477Y301724D03*
%TD*%
D33*
%TO.C,J72*%
X0Y0D03*
D30*
X2540000Y0D03*
%TD*%
D19*
%TO.C,C81*%
X-400000Y2400000D03*
X-400000Y4400000D03*
%TD*%
D29*
%TO.C,J75*%
X51073477Y65724D03*
D30*
X53613477Y65724D03*
%TD*%
D29*
%TO.C,J73*%
X12700000Y0D03*
D30*
X10160000Y0D03*
%TD*%
D19*
%TO.C,C71*%
X45593477Y2465724D03*
X45593477Y4465724D03*
%TD*%
D33*
%TO.C,J72*%
X45993477Y65724D03*
D30*
X48533477Y65724D03*
%TD*%
D29*
%TO.C,J73*%
X35693477Y65724D03*
D30*
X33153477Y65724D03*
%TD*%
D33*
%TO.C,J72*%
X22993477Y65724D03*
D30*
X25533477Y65724D03*
%TD*%
D29*
%TO.C,J75*%
X5080000Y0D03*
D30*
X7620000Y0D03*
%TD*%
D31*
%TO.C,U82*%
X38573477Y8429724D03*
D32*
X41113477Y8429724D03*
X41113477Y301724D03*
X38573477Y301724D03*
%TD*%
D19*
%TO.C,C91*%
X22593477Y2465724D03*
X22593477Y4465724D03*
%TD*%
%LPD*%
M02*
