M48
; DRILL file {KiCad 8.0.9} date 2025-05-12T13:50:05+0200
; FORMAT={-:-/ absolute / inch / decimal}
; #@! TF.CreationDate,2025-05-12T13:50:05+02:00
; #@! TF.GenerationSoftware,Kicad,Pcbnew,8.0.9
; #@! TF.FileFunction,Plated,1,2,PTH
FMAT,2
INCH
; #@! TA.AperFunction,Plated,PTH,ViaDrill
T1C0.0118
; #@! TA.AperFunction,Plated,PTH,ComponentDrill
T2C0.0276
; #@! TA.AperFunction,Plated,PTH,ComponentDrill
T3C0.0315
; #@! TA.AperFunction,Plated,PTH,ComponentDrill
T4C0.0394
%
G90
G05
T1
X0.1063Y0.2323
X0.1102Y0.1791
X0.2047Y0.1791
X0.2165Y0.2559
X0.2362Y-0.2323
X0.268Y0.2717
X0.2839Y0.1733
X0.2992Y0.1043
X0.3622Y0.1673
X0.368Y0.2657
X0.3976Y0.1673
X0.4291Y0.1722
X0.5736Y0.1047
X0.5748Y0.1368
X0.575Y0.2517
X0.6929Y0.1634
X1.0118Y0.2205
X1.0155Y0.1817
X1.0157Y-0.3386
X1.11Y0.1817
X1.1181Y0.2638
X1.1733Y0.2742
X1.1892Y0.1759
X1.2045Y0.1069
X1.2126Y-0.2205
X1.2675Y0.1699
X1.2733Y0.2683
X1.3029Y0.1699
X1.3344Y0.1748
X1.4789Y0.1073
X1.4801Y0.1394
X1.4803Y0.2543
X1.5982Y0.166
X1.921Y0.1817
X1.9252Y0.2329
X2.0155Y0.1817
X2.0236Y0.2638
X2.0788Y0.2742
X2.0947Y0.1759
X2.11Y0.1069
X2.173Y0.1699
X2.1788Y0.2683
X2.2084Y0.1699
X2.2399Y0.1748
X2.3844Y0.1073
X2.3856Y0.1394
X2.3858Y0.2543
X2.5037Y0.166
T2
X0.1043Y-0.2756
X0.1043Y-0.3543
X0.1043Y-0.4331
X0.1043Y-0.5118
X1.0804Y-0.2756
X1.0804Y-0.3543
X1.0804Y-0.4331
X1.0804Y-0.5118
T3
X-0.0157Y0.1732
X-0.0157Y0.0945
X0.3681Y-0.2763
X0.3681Y-0.3747
X0.6134Y0.3293
X0.6134Y0.0093
X0.7134Y0.3293
X0.7134Y0.0093
X0.8895Y0.1758
X0.8895Y0.0971
X1.3441Y-0.2763
X1.3441Y-0.3747
X1.5186Y0.3319
X1.5186Y0.0119
X1.6186Y0.3319
X1.6186Y0.0119
X1.795Y0.1758
X1.795Y0.0971
X2.4242Y0.3319
X2.4242Y0.0119
X2.5242Y0.3319
X2.5242Y0.0119
T4
X0.0Y0.0
X0.1Y0.0
X0.2Y0.0
X0.3Y0.0
X0.4Y0.0
X0.5Y0.0
X0.6496Y-0.2461
X0.6496Y-0.3461
X0.6496Y-0.4461
X0.75Y-0.2465
X0.75Y-0.3465
X0.75Y-0.4465
X0.9053Y0.0026
X1.0053Y0.0026
X1.1053Y0.0026
X1.2053Y0.0026
X1.3053Y0.0026
X1.4053Y0.0026
X1.6256Y-0.2461
X1.6256Y-0.3461
X1.6256Y-0.4461
X1.726Y-0.2465
X1.726Y-0.3465
X1.726Y-0.4465
X1.8108Y0.0026
X1.9108Y0.0026
X2.0108Y0.0026
X2.1108Y0.0026
X2.2108Y0.0026
X2.3108Y0.0026
M30
