%TF.GenerationSoftware,KiCad,Pcbnew,8.0.9*%
%TF.CreationDate,2025-05-12T13:50:05+02:00*%
%TF.ProjectId,panel_mini-PAMI (w JST),70616e65-6c5f-46d6-996e-692d50414d49,rev?*%
%TF.SameCoordinates,Original*%
%TF.FileFunction,Soldermask,Top*%
%TF.FilePolarity,Negative*%
%FSLAX46Y46*%
G04 Gerber Fmt 4.6, Leading zero omitted, Abs format (unit mm)*
G04 Created by KiCad (PCBNEW 8.0.9) date 2025-05-12 13:50:05*
%MOMM*%
%LPD*%
G01*
G04 APERTURE LIST*
G04 Aperture macros list*
%AMRoundRect*
0 Rectangle with rounded corners*
0 $1 Rounding radius*
0 $2 $3 $4 $5 $6 $7 $8 $9 X,Y pos of 4 corners*
0 Add a 4 corners polygon primitive as box body*
4,1,4,$2,$3,$4,$5,$6,$7,$8,$9,$2,$3,0*
0 Add four circle primitives for the rounded corners*
1,1,$1+$1,$2,$3*
1,1,$1+$1,$4,$5*
1,1,$1+$1,$6,$7*
1,1,$1+$1,$8,$9*
0 Add four rect primitives between the rounded corners*
20,1,$1+$1,$2,$3,$4,$5,0*
20,1,$1+$1,$4,$5,$6,$7,0*
20,1,$1+$1,$6,$7,$8,$9,0*
20,1,$1+$1,$8,$9,$2,$3,0*%
G04 Aperture macros list end*
%ADD10RoundRect,0.250000X0.475000X-0.250000X0.475000X0.250000X-0.475000X0.250000X-0.475000X-0.250000X0*%
%ADD11RoundRect,0.225000X-0.250000X0.225000X-0.250000X-0.225000X0.250000X-0.225000X0.250000X0.225000X0*%
%ADD12R,1.600000X1.600000*%
%ADD13C,1.600000*%
%ADD14RoundRect,0.200000X0.200000X0.275000X-0.200000X0.275000X-0.200000X-0.275000X0.200000X-0.275000X0*%
%ADD15RoundRect,0.200000X-0.275000X0.200000X-0.275000X-0.200000X0.275000X-0.200000X0.275000X0.200000X0*%
%ADD16RoundRect,0.250000X-0.300000X-0.300000X0.300000X-0.300000X0.300000X0.300000X-0.300000X0.300000X0*%
%ADD17RoundRect,0.200000X-0.200000X-0.275000X0.200000X-0.275000X0.200000X0.275000X-0.200000X0.275000X0*%
%ADD18O,1.500000X1.500000*%
%ADD19R,1.500000X1.500000*%
%ADD20RoundRect,0.200000X0.275000X-0.200000X0.275000X0.200000X-0.275000X0.200000X-0.275000X-0.200000X0*%
%ADD21RoundRect,0.150000X0.587500X0.150000X-0.587500X0.150000X-0.587500X-0.150000X0.587500X-0.150000X0*%
%ADD22RoundRect,0.150000X-0.512500X-0.150000X0.512500X-0.150000X0.512500X0.150000X-0.512500X0.150000X0*%
%ADD23R,1.700000X1.700000*%
%ADD24O,1.700000X1.700000*%
%ADD25RoundRect,0.180000X-0.420000X0.420000X-0.420000X-0.420000X0.420000X-0.420000X0.420000X0.420000X0*%
%ADD26C,1.200000*%
%ADD27RoundRect,0.680000X-0.170000X0.170000X-0.170000X-0.170000X0.170000X-0.170000X0.170000X0.170000X0*%
G04 APERTURE END LIST*
D10*
%TO.C,C82*%
X24593477Y2015724D03*
X24593477Y3915724D03*
%TD*%
D11*
%TO.C,C73*%
X57593477Y6740724D03*
X57593477Y5190724D03*
%TD*%
D10*
%TO.C,C7*%
X38491181Y-7100000D03*
X38491179Y-5200000D03*
%TD*%
D12*
%TO.C,C6*%
X34141180Y-7017621D03*
D13*
X34141180Y-9517621D03*
%TD*%
D10*
%TO.C,C72*%
X47593477Y2015724D03*
X47593477Y3915724D03*
%TD*%
D14*
%TO.C,R2*%
X13574990Y-11800000D03*
X11924990Y-11800000D03*
%TD*%
D15*
%TO.C,R71*%
X59593477Y3540724D03*
X59593477Y1890724D03*
%TD*%
D16*
%TO.C,D71*%
X47643477Y5965724D03*
X50443477Y5965724D03*
%TD*%
D11*
%TO.C,C83*%
X34593477Y6740724D03*
X34593477Y5190724D03*
%TD*%
D17*
%TO.C,R1*%
X11924990Y-13900000D03*
X13574990Y-13900000D03*
%TD*%
D18*
%TO.C,J11*%
X2649990Y-7000000D03*
X2649990Y-9000000D03*
X2649990Y-11000000D03*
D19*
X2649990Y-13000000D03*
%TD*%
D20*
%TO.C,R78*%
X3600000Y1825000D03*
X3600000Y3475000D03*
%TD*%
D21*
%TO.C,Q71*%
X54280977Y5065724D03*
X54280977Y6965724D03*
X52405977Y6015724D03*
%TD*%
D17*
%TO.C,R94*%
X57018477Y8465724D03*
X58668477Y8465724D03*
%TD*%
D22*
%TO.C,U91*%
X13462500Y6850000D03*
X13462500Y5900000D03*
X13462500Y4950000D03*
X15737500Y4950000D03*
X15737500Y5900000D03*
X15737500Y6850000D03*
%TD*%
D21*
%TO.C,Q72*%
X7287500Y1600000D03*
X7287500Y3500000D03*
X5412500Y2550000D03*
%TD*%
D20*
%TO.C,R96*%
X56593477Y1890724D03*
X56593477Y3540724D03*
%TD*%
%TO.C,R88*%
X26593477Y1890724D03*
X26593477Y3540724D03*
%TD*%
D11*
%TO.C,C93*%
X11600000Y6675000D03*
X11600000Y5125000D03*
%TD*%
%TO.C,C3*%
X32741180Y-12425000D03*
X32741180Y-13975000D03*
%TD*%
%TO.C,C2*%
X31341180Y-11625000D03*
X31341180Y-13175000D03*
%TD*%
D21*
%TO.C,Q92*%
X30280977Y1665724D03*
X30280977Y3565724D03*
X28405977Y2615724D03*
%TD*%
D16*
%TO.C,D81*%
X1650000Y5900000D03*
X4450000Y5900000D03*
%TD*%
D15*
%TO.C,R97*%
X9100000Y3475000D03*
X9100000Y1825000D03*
%TD*%
%TO.C,R91*%
X13600000Y3475000D03*
X13600000Y1825000D03*
%TD*%
D21*
%TO.C,Q91*%
X8287500Y5000000D03*
X8287500Y6900000D03*
X6412500Y5950000D03*
%TD*%
D20*
%TO.C,R75*%
X33093477Y5140724D03*
X33093477Y6790724D03*
%TD*%
D16*
%TO.C,D91*%
X24643477Y5965724D03*
X27443477Y5965724D03*
%TD*%
D20*
%TO.C,R86*%
X10600000Y1825000D03*
X10600000Y3475000D03*
%TD*%
D23*
%TO.C,J1*%
X41291180Y-6250000D03*
D24*
X41291180Y-8790000D03*
X41291180Y-11330000D03*
%TD*%
D20*
%TO.C,R95*%
X10100000Y5075000D03*
X10100000Y6725000D03*
%TD*%
%TO.C,R92*%
X58093477Y1890724D03*
X58093477Y3540724D03*
%TD*%
%TO.C,R76*%
X33593477Y1890724D03*
X33593477Y3540724D03*
%TD*%
%TO.C,R85*%
X56093477Y5140724D03*
X56093477Y6790724D03*
%TD*%
D14*
%TO.C,R4*%
X38366180Y-11800000D03*
X36716180Y-11800000D03*
%TD*%
D23*
%TO.C,J2*%
X43841180Y-6260000D03*
D24*
X43841180Y-8800000D03*
X43841180Y-11340000D03*
%TD*%
D21*
%TO.C,Q82*%
X53280977Y1665724D03*
X53280977Y3565724D03*
X51405977Y2615724D03*
%TD*%
D22*
%TO.C,U81*%
X59455977Y6915724D03*
X59455977Y5965724D03*
X59455977Y5015724D03*
X61730977Y5015724D03*
X61730977Y5965724D03*
X61730977Y6915724D03*
%TD*%
D20*
%TO.C,R82*%
X35093477Y1890724D03*
X35093477Y3540724D03*
%TD*%
D23*
%TO.C,J2*%
X19049990Y-6260000D03*
D24*
X19049990Y-8800000D03*
X19049990Y-11340000D03*
%TD*%
D21*
%TO.C,Q81*%
X31280977Y5065724D03*
X31280977Y6965724D03*
X29405977Y6015724D03*
%TD*%
D15*
%TO.C,R77*%
X55093477Y3540724D03*
X55093477Y1890724D03*
%TD*%
D17*
%TO.C,R74*%
X11025000Y8400000D03*
X12675000Y8400000D03*
%TD*%
D15*
%TO.C,R81*%
X36593477Y3540724D03*
X36593477Y1890724D03*
%TD*%
D10*
%TO.C,C92*%
X1600000Y1950000D03*
X1600000Y3850000D03*
%TD*%
D11*
%TO.C,C1*%
X7949990Y-12425000D03*
X7949990Y-13975000D03*
%TD*%
D18*
%TO.C,J10*%
X27441180Y-7000000D03*
X27441180Y-9000000D03*
X27441180Y-11000000D03*
D19*
X27441180Y-13000000D03*
%TD*%
D22*
%TO.C,U71*%
X36455977Y6915724D03*
X36455977Y5965724D03*
X36455977Y5015724D03*
X38730977Y5015724D03*
X38730977Y5965724D03*
X38730977Y6915724D03*
%TD*%
D11*
%TO.C,C4*%
X6549990Y-11625000D03*
X6549990Y-13175000D03*
%TD*%
D10*
%TO.C,C5*%
X13699991Y-7100000D03*
X13699989Y-5200000D03*
%TD*%
D17*
%TO.C,R3*%
X36716180Y-13900000D03*
X38366180Y-13900000D03*
%TD*%
%TO.C,R84*%
X34018477Y8465724D03*
X35668477Y8465724D03*
%TD*%
D23*
%TO.C,J1*%
X16499990Y-6250000D03*
D24*
X16499990Y-8790000D03*
X16499990Y-11330000D03*
%TD*%
D15*
%TO.C,R87*%
X32093477Y3540724D03*
X32093477Y1890724D03*
%TD*%
D20*
%TO.C,R72*%
X12100000Y1825000D03*
X12100000Y3475000D03*
%TD*%
D12*
%TO.C,C8*%
X9349990Y-7017621D03*
D13*
X9349990Y-9517621D03*
%TD*%
D20*
%TO.C,R98*%
X49593477Y1890724D03*
X49593477Y3540724D03*
%TD*%
D25*
%TO.C,U92*%
X15580000Y8364000D03*
D26*
X18120000Y8364000D03*
X18120000Y236000D03*
X15580000Y236000D03*
%TD*%
D23*
%TO.C,J75*%
X28073477Y65724D03*
D24*
X30613477Y65724D03*
%TD*%
D23*
%TO.C,J73*%
X58693477Y65724D03*
D24*
X56153477Y65724D03*
%TD*%
D25*
%TO.C,U72*%
X61573477Y8429724D03*
D26*
X64113477Y8429724D03*
X64113477Y301724D03*
X61573477Y301724D03*
%TD*%
D27*
%TO.C,J72*%
X0Y0D03*
D24*
X2540000Y0D03*
%TD*%
D13*
%TO.C,C81*%
X-400000Y2400000D03*
X-400000Y4400000D03*
%TD*%
D23*
%TO.C,J75*%
X51073477Y65724D03*
D24*
X53613477Y65724D03*
%TD*%
D23*
%TO.C,J73*%
X12700000Y0D03*
D24*
X10160000Y0D03*
%TD*%
D13*
%TO.C,C71*%
X45593477Y2465724D03*
X45593477Y4465724D03*
%TD*%
D27*
%TO.C,J72*%
X45993477Y65724D03*
D24*
X48533477Y65724D03*
%TD*%
D23*
%TO.C,J73*%
X35693477Y65724D03*
D24*
X33153477Y65724D03*
%TD*%
D27*
%TO.C,J72*%
X22993477Y65724D03*
D24*
X25533477Y65724D03*
%TD*%
D23*
%TO.C,J75*%
X5080000Y0D03*
D24*
X7620000Y0D03*
%TD*%
D25*
%TO.C,U82*%
X38573477Y8429724D03*
D26*
X41113477Y8429724D03*
X41113477Y301724D03*
X38573477Y301724D03*
%TD*%
D13*
%TO.C,C91*%
X22593477Y2465724D03*
X22593477Y4465724D03*
%TD*%
M02*
