%TF.GenerationSoftware,KiCad,Pcbnew,8.0.9*%
%TF.CreationDate,2025-05-12T13:50:05+02:00*%
%TF.ProjectId,panel_mini-PAMI (w JST),70616e65-6c5f-46d6-996e-692d50414d49,rev?*%
%TF.SameCoordinates,Original*%
%TF.FileFunction,Soldermask,Bot*%
%TF.FilePolarity,Negative*%
%FSLAX46Y46*%
G04 Gerber Fmt 4.6, Leading zero omitted, Abs format (unit mm)*
G04 Created by KiCad (PCBNEW 8.0.9) date 2025-05-12 13:50:05*
%MOMM*%
%LPD*%
G01*
G04 APERTURE LIST*
G04 Aperture macros list*
%AMRoundRect*
0 Rectangle with rounded corners*
0 $1 Rounding radius*
0 $2 $3 $4 $5 $6 $7 $8 $9 X,Y pos of 4 corners*
0 Add a 4 corners polygon primitive as box body*
4,1,4,$2,$3,$4,$5,$6,$7,$8,$9,$2,$3,0*
0 Add four circle primitives for the rounded corners*
1,1,$1+$1,$2,$3*
1,1,$1+$1,$4,$5*
1,1,$1+$1,$6,$7*
1,1,$1+$1,$8,$9*
0 Add four rect primitives between the rounded corners*
20,1,$1+$1,$2,$3,$4,$5,0*
20,1,$1+$1,$4,$5,$6,$7,0*
20,1,$1+$1,$6,$7,$8,$9,0*
20,1,$1+$1,$8,$9,$2,$3,0*%
G04 Aperture macros list end*
%ADD10R,1.600000X1.600000*%
%ADD11C,1.600000*%
%ADD12O,1.500000X1.500000*%
%ADD13R,1.500000X1.500000*%
%ADD14R,1.700000X1.700000*%
%ADD15O,1.700000X1.700000*%
%ADD16RoundRect,0.150000X0.150000X0.625000X-0.150000X0.625000X-0.150000X-0.625000X0.150000X-0.625000X0*%
%ADD17RoundRect,0.250000X0.350000X0.650000X-0.350000X0.650000X-0.350000X-0.650000X0.350000X-0.650000X0*%
%ADD18RoundRect,0.180000X-0.420000X0.420000X-0.420000X-0.420000X0.420000X-0.420000X0.420000X0.420000X0*%
%ADD19C,1.200000*%
%ADD20RoundRect,0.680000X-0.170000X0.170000X-0.170000X-0.170000X0.170000X-0.170000X0.170000X0.170000X0*%
%ADD21R,1.200000X1.200000*%
%ADD22R,1.600000X1.500000*%
G04 APERTURE END LIST*
D10*
%TO.C,C6*%
X34141180Y-7017621D03*
D11*
X34141180Y-9517621D03*
%TD*%
D12*
%TO.C,J11*%
X2649990Y-7000000D03*
X2649990Y-9000000D03*
X2649990Y-11000000D03*
D13*
X2649990Y-13000000D03*
%TD*%
D14*
%TO.C,J1*%
X41291180Y-6250000D03*
D15*
X41291180Y-8790000D03*
X41291180Y-11330000D03*
%TD*%
D14*
%TO.C,J2*%
X43841180Y-6260000D03*
D15*
X43841180Y-8800000D03*
X43841180Y-11340000D03*
%TD*%
D14*
%TO.C,J2*%
X19049990Y-6260000D03*
D15*
X19049990Y-8800000D03*
X19049990Y-11340000D03*
%TD*%
D12*
%TO.C,J10*%
X27441180Y-7000000D03*
X27441180Y-9000000D03*
X27441180Y-11000000D03*
D13*
X27441180Y-13000000D03*
%TD*%
D14*
%TO.C,J1*%
X16499990Y-6250000D03*
D15*
X16499990Y-8790000D03*
X16499990Y-11330000D03*
%TD*%
D10*
%TO.C,C8*%
X9349990Y-7017621D03*
D11*
X9349990Y-9517621D03*
%TD*%
D16*
%TO.C,J74*%
X53793477Y5690724D03*
X52793477Y5690724D03*
D17*
X55093477Y8215724D03*
X51493477Y8215724D03*
%TD*%
D18*
%TO.C,U92*%
X15580000Y8364000D03*
D19*
X18120000Y8364000D03*
X18120000Y236000D03*
X15580000Y236000D03*
%TD*%
D16*
%TO.C,J74*%
X7800000Y5625000D03*
X6800000Y5625000D03*
D17*
X9100000Y8150000D03*
X5500000Y8150000D03*
%TD*%
D14*
%TO.C,J75*%
X28073477Y65724D03*
D15*
X30613477Y65724D03*
%TD*%
D16*
%TO.C,J71*%
X48093477Y5640724D03*
X47093477Y5640724D03*
D17*
X49393477Y8165724D03*
X45793477Y8165724D03*
%TD*%
D14*
%TO.C,J73*%
X58693477Y65724D03*
D15*
X56153477Y65724D03*
%TD*%
D16*
%TO.C,J71*%
X25093477Y5640724D03*
X24093477Y5640724D03*
D17*
X26393477Y8165724D03*
X22793477Y8165724D03*
%TD*%
D18*
%TO.C,U72*%
X61573477Y8429724D03*
D19*
X64113477Y8429724D03*
X64113477Y301724D03*
X61573477Y301724D03*
%TD*%
D20*
%TO.C,J72*%
X0Y0D03*
D15*
X2540000Y0D03*
%TD*%
D11*
%TO.C,C81*%
X-400000Y2400000D03*
X-400000Y4400000D03*
%TD*%
D14*
%TO.C,J75*%
X51073477Y65724D03*
D15*
X53613477Y65724D03*
%TD*%
D21*
%TO.C,R73*%
X59343477Y2915724D03*
D22*
X58343477Y6165724D03*
D21*
X57343477Y2915724D03*
%TD*%
D14*
%TO.C,J73*%
X12700000Y0D03*
D15*
X10160000Y0D03*
%TD*%
D11*
%TO.C,C71*%
X45593477Y2465724D03*
X45593477Y4465724D03*
%TD*%
D20*
%TO.C,J72*%
X45993477Y65724D03*
D15*
X48533477Y65724D03*
%TD*%
D14*
%TO.C,J73*%
X35693477Y65724D03*
D15*
X33153477Y65724D03*
%TD*%
D16*
%TO.C,J74*%
X30793477Y5690724D03*
X29793477Y5690724D03*
D17*
X32093477Y8215724D03*
X28493477Y8215724D03*
%TD*%
D21*
%TO.C,R83*%
X36343477Y2915724D03*
D22*
X35343477Y6165724D03*
D21*
X34343477Y2915724D03*
%TD*%
D20*
%TO.C,J72*%
X22993477Y65724D03*
D15*
X25533477Y65724D03*
%TD*%
D14*
%TO.C,J75*%
X5080000Y0D03*
D15*
X7620000Y0D03*
%TD*%
D21*
%TO.C,R93*%
X13350000Y2850000D03*
D22*
X12350000Y6100000D03*
D21*
X11350000Y2850000D03*
%TD*%
D18*
%TO.C,U82*%
X38573477Y8429724D03*
D19*
X41113477Y8429724D03*
X41113477Y301724D03*
X38573477Y301724D03*
%TD*%
D11*
%TO.C,C91*%
X22593477Y2465724D03*
X22593477Y4465724D03*
%TD*%
D16*
%TO.C,J71*%
X2100000Y5575000D03*
X1100000Y5575000D03*
D17*
X3400000Y8100000D03*
X-200000Y8100000D03*
%TD*%
M02*
